<?xml version="1.0" encoding="UTF-8" standalone="no"?><svg xmlns="http://www.w3.org/2000/svg" xmlns:xlink="http://www.w3.org/1999/xlink" clip-rule="evenodd" stroke-miterlimit="4.00" viewBox="0 0 1024 768"><desc>SVG generated by Keynote</desc><defs></defs><g transform="matrix(1.00, 0.00, -0.00, -1.00, 0.0, 768.0)"><path d="M 0.0 768.0 L 1024.0 768.0 L 1024.0 0.0 L 0.0 0.0 Z M 0.0 768.0 " fill="#000000"></path><g><clipPath id="clip-130"><path d="M 286.0 618.0 L 650.0 618.0 L 650.0 132.0 L 286.0 132.0 Z M 286.2 617.6 "></path></clipPath><g clip-path="url(#clip-130)"><image xlink:href="35A2E156B367C85D66C6989BD95A51D1.png" width="370.00" height="256.00" transform="matrix(1.90, 0.00, -0.00, -1.90, 286.0, 618.0)"></image></g></g><text xml:space="preserve" font-family="ArialMT" font-size="58.0" fill="#878787" transform="matrix(1.00, 0.00, -0.00, -1.00, 903.2, 15.5)">1</text><text xml:space="preserve" font-family="ArialMT" font-size="58.0" fill="#878787" transform="matrix(1.00, 0.00, -0.00, -1.00, 935.4, 15.5)">2</text><text xml:space="preserve" font-family="Helvetica-Bold" font-weight="bold" font-size="36.0" fill="#53D4B2" transform="matrix(1.00, 0.00, -0.00, -1.00, 672.0, 186.0)">?</text><path d="M 0.0 0.0 L 93.4 0.0 " fill="none" stroke="#53D4B2" stroke-width="4.00" transform="matrix(0.62, -0.78, -0.78, -0.62, 604.6, 286.9)"></path></g></svg>