<?xml version="1.0" encoding="UTF-8" standalone="no"?><svg xmlns="http://www.w3.org/2000/svg" xmlns:xlink="http://www.w3.org/1999/xlink" clip-rule="evenodd" stroke-miterlimit="4.00" viewBox="0 0 1024 768"><desc>SVG generated by Keynote</desc><defs></defs><g transform="matrix(1.00, 0.00, -0.00, -1.00, 0.0, 768.0)"><path d="M 0.0 768.0 L 1024.0 768.0 L 1024.0 0.0 L 0.0 0.0 Z M 0.0 768.0 " fill="#DDDDDD"></path><text xml:space="preserve" font-family="ArialMT" font-size="58.0" fill="#878787" transform="matrix(1.00, 0.00, -0.00, -1.00, 903.2, 15.5)">8</text><text xml:space="preserve" font-family="ArialMT" font-size="58.0" fill="#878787" transform="matrix(1.00, 0.00, -0.00, -1.00, 935.4, 15.5)">1</text><text xml:space="preserve" font-family="Helvetica-Bold" font-weight="bold" font-size="61.0" fill="#912623" transform="matrix(1.00, 0.00, -0.00, -1.00, 268.0, 641.0)">O</text><text xml:space="preserve" font-family="Helvetica-Bold" font-weight="bold" font-size="61.0" fill="#B96EDB" transform="matrix(1.00, 0.00, -0.00, -1.00, 315.4, 641.0)"> </text><text xml:space="preserve" font-family="Helvetica-Bold" font-weight="bold" font-size="61.0" fill="#000000" transform="matrix(1.00, 0.00, -0.00, -1.00, 332.4, 641.0)">/</text><text xml:space="preserve" font-family="Helvetica-Bold" font-weight="bold" font-size="61.0" fill="#B96EDB" transform="matrix(1.00, 0.00, -0.00, -1.00, 349.3, 641.0)"> </text><text xml:space="preserve" font-family="Helvetica-Bold" font-weight="bold" font-size="61.0" fill="#3F508D" transform="matrix(1.00, 0.00, -0.00, -1.00, 366.3, 641.0)">I</text><text xml:space="preserve" font-family="Helvetica-Bold" font-weight="bold" font-size="61.0" fill="#B96EDB" transform="matrix(1.00, 0.00, -0.00, -1.00, 383.2, 641.0)"> </text><text xml:space="preserve" font-family="Helvetica-Bold" font-weight="bold" font-size="61.0" fill="#B96EDB" transform="matrix(1.00, 0.00, -0.00, -1.00, 400.2, 641.0)"> </text><text xml:space="preserve" font-family="Helvetica-Bold" font-weight="bold" font-size="61.0" fill="#B96EDB" transform="matrix(1.00, 0.00, -0.00, -1.00, 417.1, 641.0)">d</text><text xml:space="preserve" font-family="Helvetica-Bold" font-weight="bold" font-size="61.0" fill="#B96EDB" transform="matrix(1.00, 0.00, -0.00, -1.00, 454.4, 641.0)">u</text><text xml:space="preserve" font-family="Helvetica-Bold" font-weight="bold" font-size="61.0" fill="#B96EDB" transform="matrix(1.00, 0.00, -0.00, -1.00, 491.6, 641.0)"> </text><text xml:space="preserve" font-family="Helvetica-Bold" font-weight="bold" font-size="61.0" fill="#B96EDB" transform="matrix(1.00, 0.00, -0.00, -1.00, 508.5, 641.0)">m</text><text xml:space="preserve" font-family="Helvetica-Bold" font-weight="bold" font-size="61.0" fill="#B96EDB" transform="matrix(1.00, 0.00, -0.00, -1.00, 562.8, 641.0)">u</text><text xml:space="preserve" font-family="Helvetica-Bold" font-weight="bold" font-size="61.0" fill="#B96EDB" transform="matrix(1.00, 0.00, -0.00, -1.00, 600.0, 641.0)">s</text><text xml:space="preserve" font-family="Helvetica-Bold" font-weight="bold" font-size="61.0" fill="#B96EDB" transform="matrix(1.00, 0.00, -0.00, -1.00, 633.9, 641.0)">c</text><text xml:space="preserve" font-family="Helvetica-Bold" font-weight="bold" font-size="61.0" fill="#B96EDB" transform="matrix(1.00, 0.00, -0.00, -1.00, 667.8, 641.0)">l</text><text xml:space="preserve" font-family="Helvetica-Bold" font-weight="bold" font-size="61.0" fill="#B96EDB" transform="matrix(1.00, 0.00, -0.00, -1.00, 684.8, 641.0)">e</text><text xml:space="preserve" font-family="Helvetica-Bold" font-weight="bold" font-size="61.0" fill="#B96EDB" transform="matrix(1.00, 0.00, -0.00, -1.00, 718.7, 641.0)">?</text><g><clipPath id="clip-175"><path d="M 998.0 594.0 L 528.0 594.0 L 528.0 95.0 L 998.0 95.0 Z M 998.3 594.3 "></path></clipPath><g clip-path="url(#clip-175)"><image xlink:href="../../603FF3AF-7EA3-4011-A072-2F9CEE9B2A5B/assets/8A69C79E5DCB0486AEADE507D398499B.png" width="447.00" height="522.00" transform="matrix(-1.00, 0.00, 0.00, -1.00, 986.0, 605.0)"></image></g></g><g><clipPath id="clip-176"><path d="M 456.0 543.0 L 285.0 543.0 L 285.0 154.0 L 456.0 154.0 Z M 456.4 542.6 "></path></clipPath><g clip-path="url(#clip-176)"><image xlink:href="../../603FF3AF-7EA3-4011-A072-2F9CEE9B2A5B/assets/D9B692670C511F4CB28244FF489FE1AB.png" width="223.00" height="389.00" transform="matrix(-1.00, 0.00, 0.00, -1.00, 482.0, 543.0)"></image></g></g><path d="M 0.0 0.0 L 0.0 388.5 L 171.4 388.5 L 171.4 0.0 L 0.0 0.0 Z M 0.0 0.0 " fill="none" stroke="#FEFFFE" stroke-width="4.00" transform="matrix(-1.00, 0.00, 0.00, -1.00, 456.4, 542.6)"></path><image xlink:href="../../A328A90B-65A5-4543-8017-6D204CDC36BD/assets/538EBDEA368875A6D9FB99C6AD072501.png" width="483.00" height="512.00" transform="matrix(1.00, 0.00, -0.00, -1.00, 521.4, 602.3)" opacity="0.50"></image><path d="M 0.0 0.0 L 470.4 0.0 L 470.4 498.8 L 0.0 498.8 Z M 0.0 0.0 " fill="none" stroke="#3F508D" stroke-width="7.00" transform="matrix(1.00, 0.00, 0.00, -1.00, 527.9, 597.8)"></path><image xlink:href="../../A328A90B-65A5-4543-8017-6D204CDC36BD/assets/538EBDEA368875A6D9FB99C6AD072501.png" width="483.00" height="512.00" transform="matrix(1.00, 0.00, -0.00, -1.00, 17.8, 602.3)" opacity="0.50"></image><path d="M 0.0 0.0 L 470.4 0.0 L 470.4 498.8 L 0.0 498.8 Z M 0.0 0.0 " fill="none" stroke="#912623" stroke-width="7.00" transform="matrix(1.00, 0.00, 0.00, -1.00, 24.3, 597.8)"></path><g><clipPath id="clip-177"><path d="M 249.0 543.0 L 58.0 543.0 L 58.0 154.0 L 249.0 154.0 Z M 248.6 542.6 "></path></clipPath><g clip-path="url(#clip-177)"><image xlink:href="../../603FF3AF-7EA3-4011-A072-2F9CEE9B2A5B/assets/5B499A8E5D64EB048C1D26C69A98C720.png" width="221.00" height="389.00" transform="matrix(-1.00, 0.00, 0.00, -1.00, 264.0, 543.0)"></image></g></g><path d="M 0.0 0.0 L 0.0 388.5 L 190.8 388.5 L 190.8 0.0 L 0.0 0.0 Z M 0.0 0.0 " fill="none" stroke="#FEFFFE" stroke-width="4.00" transform="matrix(-1.00, 0.00, 0.00, -1.00, 248.6, 542.6)"></path></g></svg>