<?xml version="1.0" encoding="UTF-8" standalone="no"?><svg xmlns="http://www.w3.org/2000/svg" xmlns:xlink="http://www.w3.org/1999/xlink" clip-rule="evenodd" stroke-miterlimit="4.00" viewBox="0 0 1024 768"><desc>SVG generated by Keynote</desc><defs></defs><g transform="matrix(1.00, 0.00, -0.00, -1.00, 0.0, 768.0)"><path d="M 0.0 768.0 L 1024.0 768.0 L 1024.0 0.0 L 0.0 0.0 Z M 0.0 768.0 " fill="#DDDDDD"></path><image xlink:href="../../F0F0411C-76A7-4AB1-8ABE-B61887D8B0AF/assets/9327616A224176763F92D56B44A582F5.png" width="204.00" height="541.00" transform="matrix(-1.36, 0.00, 0.00, -1.35, 1012.0, 779.0)"></image><text xml:space="preserve" font-family="Helvetica-Bold" font-weight="bold" font-size="47.0" fill="#B96EDB" transform="matrix(1.00, 0.00, -0.00, -1.00, 913.0, 488.0)">?</text><path d="M 0.0 0.0 L 77.4 0.0 " fill="none" stroke="#B96EDB" stroke-width="4.00" transform="matrix(-0.98, -0.19, -0.19, 0.98, 911.6, 501.3)"></path><image xlink:href="../../F0F0411C-76A7-4AB1-8ABE-B61887D8B0AF/assets/DF9B9385CE8782C08597C05A530176D3.png" width="271.00" height="541.00" transform="matrix(-1.32, 0.00, 0.00, -1.32, 365.0, 772.0)"></image><text xml:space="preserve" font-family="ArialMT" font-size="58.0" fill="#878787" transform="matrix(1.00, 0.00, -0.00, -1.00, 903.2, 15.5)">9</text><text xml:space="preserve" font-family="ArialMT" font-size="58.0" fill="#878787" transform="matrix(1.00, 0.00, -0.00, -1.00, 935.4, 15.5)">5</text><text xml:space="preserve" font-family="Helvetica-Bold" font-weight="bold" font-size="47.0" fill="#B96EDB" transform="matrix(1.00, 0.00, -0.00, -1.00, 307.0, 325.0)">?</text><path d="M 0.0 0.0 L 142.5 0.0 " fill="none" stroke="#F4F243" stroke-width="4.00" transform="matrix(-0.98, -0.19, -0.19, 0.98, 317.8, 339.9)"></path><image xlink:href="../../F0F0411C-76A7-4AB1-8ABE-B61887D8B0AF/assets/CC67093AF0C34D3A470874C79AE0A3C0.png" width="274.00" height="541.00" transform="matrix(-1.35, 0.00, 0.00, -1.35, 733.0, 780.0)"></image></g></svg>