<?xml version="1.0" encoding="UTF-8" standalone="no"?><svg xmlns="http://www.w3.org/2000/svg" xmlns:xlink="http://www.w3.org/1999/xlink" clip-rule="evenodd" stroke-miterlimit="4.00" viewBox="0 0 1024 768"><desc>SVG generated by Keynote</desc><defs></defs><g transform="matrix(1.00, 0.00, -0.00, -1.00, 0.0, 768.0)"><path d="M 0.0 768.0 L 1024.0 768.0 L 1024.0 0.0 L 0.0 0.0 Z M 0.0 768.0 " fill="#DDDDDD"></path><text xml:space="preserve" font-family="ArialMT" font-size="58.0" fill="#878787" transform="matrix(1.00, 0.00, -0.00, -1.00, 903.2, 15.5)">1</text><text xml:space="preserve" font-family="ArialMT" font-size="58.0" fill="#878787" transform="matrix(1.00, 0.00, -0.00, -1.00, 935.4, 15.5)">5</text><image xlink:href="../../9A8B0B68-C511-4819-90C2-FDBEB40305D2/assets/C19CF42A72AB9D7A78998D32C613265D.png" width="363.00" height="541.00" transform="matrix(1.30, 0.00, -0.00, -1.30, 227.0, 769.0)"></image><path d="M 0.0 0.0 L 80.1 0.0 " fill="none" stroke="#F4F243" stroke-width="4.00" transform="matrix(-0.86, -0.51, -0.51, 0.86, 338.2, 438.5)"></path><image xlink:href="../../9A8B0B68-C511-4819-90C2-FDBEB40305D2/assets/300B36498639FDAA15602AF3A7941273.png" width="283.00" height="423.00" transform="matrix(1.00, 0.00, -0.00, -1.00, 740.0, 629.0)"></image><text xml:space="preserve" font-family="Helvetica-Bold" font-weight="bold" font-size="47.0" fill="#B96EDB" transform="matrix(1.00, 0.00, -0.00, -1.00, 687.0, 489.0)">?</text><text xml:space="preserve" font-family="Helvetica-Bold" font-weight="bold" font-size="47.0" fill="#B96EDB" transform="matrix(1.00, 0.00, -0.00, -1.00, 239.0, 380.0)">?</text><path d="M 0.0 0.0 L 73.9 0.0 " fill="none" stroke="#B96EDB" stroke-width="4.00" transform="matrix(0.83, -0.55, -0.55, -0.83, 717.2, 499.0)"></path><image xlink:href="../../D6EA4DC9-F92B-4E53-9352-720026A56BA4/assets/4A55B5447384878DA944ADB099EDC59D.png" width="222.00" height="318.00" transform="matrix(1.00, 0.00, -0.00, -1.00, -4.0, 769.0)"></image></g></svg>