<?xml version="1.0" encoding="UTF-8" standalone="no"?><svg xmlns="http://www.w3.org/2000/svg" xmlns:xlink="http://www.w3.org/1999/xlink" clip-rule="evenodd" stroke-miterlimit="4.00" viewBox="0 0 1024 768"><desc>SVG generated by Keynote</desc><defs><pattern id="1AFFC891-1F89-435F-8182-DDF8E34564C7" patternUnits="userSpaceOnUse" width="334" height="334" viewBox="0 0 334 334" patternTransform="matrix(0.898204, 0.000000, 0.000000, -0.898204, 174.721800, 771.804500)"><image xlink:href="CF5C1FBC835CF34ADBBA57D7B8B41202.jpeg" width="334.00" height="334.00"></image></pattern></defs><g transform="matrix(1.00, 0.00, -0.00, -1.00, 0.0, 768.0)"><path d="M 0.0 768.0 L 1024.0 768.0 L 1024.0 0.0 L 0.0 0.0 Z M 0.0 768.0 " fill="#DDDDDD"></path><text xml:space="preserve" font-family="ArialMT" font-size="58.0" fill="#878787" transform="matrix(1.00, 0.00, -0.00, -1.00, 903.2, 15.5)">6</text><text xml:space="preserve" font-family="ArialMT" font-size="58.0" fill="#878787" transform="matrix(1.00, 0.00, -0.00, -1.00, 935.4, 15.5)">2</text><image xlink:href="687C1F0574742E68CB5B27488E5B3125.png" width="377.00" height="540.00" transform="matrix(-1.42, 0.00, 0.00, -1.42, 847.0, 768.0)"></image><text xml:space="preserve" font-family="Helvetica-Bold" font-weight="bold" font-size="47.0" fill="#B96EDB" transform="matrix(1.00, 0.00, -0.00, -1.00, 279.0, 378.0)">?</text><image xlink:href="1F142B76783528D4D3AFEBD6618665B8.png" width="195.00" height="540.00" transform="matrix(-1.43, 0.00, 0.00, -1.42, 243.0, 768.0)"></image><g><clipPath id="clip-92"><path d="M 174.7 771.8 L 508.0 771.8 L 508.0 742.7 L 174.7 742.7 Z M 174.7 771.8 "></path></clipPath><g clip-path="url(#clip-92)"><path d="M 174.7 742.7 L 508.0 742.7 L 508.0 768.0 L 174.7 768.0 Z M 174.7 742.7 " fill="url(#1AFFC891-1F89-435F-8182-DDF8E34564C7)"></path><path d="M 174.7 771.8 L 508.0 771.8 L 508.0 742.7 L 174.7 742.7 Z M 174.7 771.8 " fill="#DDDDDD"></path></g></g><path d="M 0.0 0.0 L 185.8 0.0 " fill="none" stroke="#F4F243" stroke-width="4.00" transform="matrix(-0.97, 0.25, 0.25, 0.97, 497.1, 343.8)"></path><path d="M 0.0 0.0 L 88.0 0.0 " fill="none" stroke="#F4F243" stroke-width="4.00" transform="matrix(-0.96, -0.27, -0.27, 0.96, 275.5, 390.4)"></path></g></svg>