<?xml version="1.0" encoding="UTF-8" standalone="no"?><svg xmlns="http://www.w3.org/2000/svg" xmlns:xlink="http://www.w3.org/1999/xlink" clip-rule="evenodd" stroke-miterlimit="4.00" viewBox="0 0 1024 768"><desc>SVG generated by Keynote</desc><defs></defs><g transform="matrix(1.00, 0.00, -0.00, -1.00, 0.0, 768.0)"><path d="M 0.0 768.0 L 1024.0 768.0 L 1024.0 0.0 L 0.0 0.0 Z M 0.0 768.0 " fill="#FEFFFF"></path><image xlink:href="../../4DD6F369-9B38-407F-AFEA-FDD6B01657DA/assets/58C2E32AB1C1D7DCE85DA76DBF9BFA55.png" width="527.00" height="541.00" transform="matrix(1.29, 0.00, -0.00, -1.29, 144.0, 721.0)"></image><text xml:space="preserve" font-family="ArialMT" font-size="58.0" fill="#878787" transform="matrix(1.00, 0.00, -0.00, -1.00, 903.2, 15.5)">7</text><text xml:space="preserve" font-family="ArialMT" font-size="58.0" fill="#878787" transform="matrix(1.00, 0.00, -0.00, -1.00, 935.4, 15.5)">1</text><path d="M 0.0 0.0 L 70.9 0.0 " fill="none" stroke="#000000" stroke-width="4.00" transform="matrix(0.71, 0.70, 0.70, -0.71, 418.1, 133.5)"></path><text xml:space="preserve" font-family="Helvetica-Bold" font-weight="bold" font-size="36.0" fill="#000000" transform="matrix(1.00, 0.00, -0.00, -1.00, 276.0, 114.0)">R</text><text xml:space="preserve" font-family="Helvetica-Bold" font-weight="bold" font-size="36.0" fill="#000000" transform="matrix(1.00, 0.00, -0.00, -1.00, 302.0, 114.0)">e</text><text xml:space="preserve" font-family="Helvetica-Bold" font-weight="bold" font-size="36.0" fill="#000000" transform="matrix(1.00, 0.00, -0.00, -1.00, 322.0, 114.0)">l</text><text xml:space="preserve" font-family="Helvetica-Bold" font-weight="bold" font-size="36.0" fill="#000000" transform="matrix(1.00, 0.00, -0.00, -1.00, 332.0, 114.0)">i</text><text xml:space="preserve" font-family="Helvetica-Bold" font-weight="bold" font-size="36.0" fill="#000000" transform="matrix(1.00, 0.00, -0.00, -1.00, 342.0, 114.0)">e</text><text xml:space="preserve" font-family="Helvetica-Bold" font-weight="bold" font-size="36.0" fill="#000000" transform="matrix(1.00, 0.00, -0.00, -1.00, 362.1, 114.0)">f</text><text xml:space="preserve" font-family="Helvetica-Bold" font-weight="bold" font-size="36.0" fill="#000000" transform="matrix(1.00, 0.00, -0.00, -1.00, 374.0, 114.0)"> </text><text xml:space="preserve" font-family="Helvetica-Bold" font-weight="bold" font-size="36.0" fill="#000000" transform="matrix(1.00, 0.00, -0.00, -1.00, 384.0, 114.0)">?</text><image xlink:href="../../D9EC750E-3677-4FFE-8253-21AD45CC4531/assets/04A65320948A223145642C091B3D1C07.png" width="177.00" height="150.00" transform="matrix(0.80, -0.60, -0.60, -0.80, 506.9, 328.8)" opacity="0.50"></image><path d="M 142.5 20.5 C 175.2 47.8 175.2 92.0 142.5 119.3 C 109.9 146.6 57.1 146.6 24.5 119.3 C -8.2 92.0 -8.2 47.8 24.5 20.5 C 57.1 -6.8 109.9 -6.8 142.5 20.5 Z M 142.5 20.5 " fill="none" stroke="#000000" stroke-width="4.00" transform="matrix(0.80, -0.60, -0.60, -0.80, 507.8, 323.8)"></path></g></svg>