<?xml version="1.0" encoding="UTF-8" standalone="no"?><svg xmlns="http://www.w3.org/2000/svg" xmlns:xlink="http://www.w3.org/1999/xlink" clip-rule="evenodd" stroke-miterlimit="4.00" viewBox="0 0 1024 768"><desc>SVG generated by Keynote</desc><defs></defs><g transform="matrix(1.00, 0.00, -0.00, -1.00, 0.0, 768.0)"><path d="M 0.0 768.0 L 1024.0 768.0 L 1024.0 0.0 L 0.0 0.0 Z M 0.0 768.0 " fill="#DDDDDD"></path><image xlink:href="../../8CC68CDB-ED07-464C-80D8-E499C23EC6B7/assets/D3CF21D0D9433FA75481FCDDB090565C.png" width="375.00" height="540.00" transform="matrix(1.42, 0.00, -0.00, -1.42, 332.0, 761.0)"></image><image xlink:href="../../8CC68CDB-ED07-464C-80D8-E499C23EC6B7/assets/C3AFC2ABCBA9FED8EAA93F122501BA5E.png" width="368.00" height="540.00" transform="matrix(-1.42, 0.00, 0.00, -1.42, 306.0, 759.0)"></image><text xml:space="preserve" font-family="ArialMT" font-size="58.0" fill="#878787" transform="matrix(1.00, 0.00, -0.00, -1.00, 903.2, 15.5)">5</text><text xml:space="preserve" font-family="ArialMT" font-size="58.0" fill="#878787" transform="matrix(1.00, 0.00, -0.00, -1.00, 935.4, 15.5)">2</text><g><clipPath id="clip-68"><path d="M 190.4 648.3 L 447.3 648.3 L 447.3 727.8 L 190.4 727.8 Z M 190.4 648.3 "></path></clipPath><g clip-path="url(#clip-68)"><text xml:space="preserve" font-family="Helvetica-Bold" font-weight="bold" font-size="47.0" fill="#B96EDB" transform="matrix(1.00, 0.00, -0.00, -1.00, 203.0, 671.0)">G</text><text xml:space="preserve" font-family="Helvetica-Bold" font-weight="bold" font-size="47.0" fill="#B96EDB" transform="matrix(1.00, 0.00, -0.00, -1.00, 239.5, 671.0)">R</text><text xml:space="preserve" font-family="Helvetica-Bold" font-weight="bold" font-size="47.0" fill="#B96EDB" transform="matrix(1.00, 0.00, -0.00, -1.00, 273.5, 671.0)">O</text><text xml:space="preserve" font-family="Helvetica-Bold" font-weight="bold" font-size="47.0" fill="#B96EDB" transform="matrix(1.00, 0.00, -0.00, -1.00, 310.0, 671.0)">U</text><text xml:space="preserve" font-family="Helvetica-Bold" font-weight="bold" font-size="47.0" fill="#B96EDB" transform="matrix(1.00, 0.00, -0.00, -1.00, 344.0, 671.0)">P</text><text xml:space="preserve" font-family="Helvetica-Bold" font-weight="bold" font-size="47.0" fill="#B96EDB" transform="matrix(1.00, 0.00, -0.00, -1.00, 375.3, 671.0)">E</text><text xml:space="preserve" font-family="Helvetica-Bold" font-weight="bold" font-size="47.0" fill="#B96EDB" transform="matrix(1.00, 0.00, -0.00, -1.00, 406.7, 671.0)">?</text></g></g><g><clipPath id="clip-69"><path d="M 408.8 661.2 L 204.2 661.2 L 204.2 667.2 L 408.8 667.2 Z M 408.8 661.2 "></path></clipPath><g clip-path="url(#clip-69)"><path d="M 0.0 0.0 L 202.6 0.0 " fill="none" stroke="#F4F243" stroke-width="4.00" transform="matrix(-1.00, 0.00, 0.00, 1.00, 407.8, 664.2)"></path></g></g></g></svg>