<?xml version="1.0" encoding="UTF-8" standalone="no"?><svg xmlns="http://www.w3.org/2000/svg" xmlns:xlink="http://www.w3.org/1999/xlink" clip-rule="evenodd" stroke-miterlimit="4.00" viewBox="0 0 1024 768"><desc>SVG generated by Keynote</desc><defs></defs><g transform="matrix(1.00, 0.00, -0.00, -1.00, 0.0, 768.0)"><path d="M 0.0 768.0 L 1024.0 768.0 L 1024.0 0.0 L 0.0 0.0 Z M 0.0 768.0 " fill="#000000"></path><text xml:space="preserve" font-family="TimesNewRomanPSMT" font-size="62.0" fill="#FFFFFF" transform="matrix(1.00, 0.00, -0.00, -1.00, 354.0, 652.0)">S</text><text xml:space="preserve" font-family="TimesNewRomanPSMT" font-size="62.0" fill="#FFFFFF" transform="matrix(1.00, 0.00, -0.00, -1.00, 388.5, 652.0)">y</text><text xml:space="preserve" font-family="TimesNewRomanPSMT" font-size="62.0" fill="#FFFFFF" transform="matrix(1.00, 0.00, -0.00, -1.00, 419.5, 652.0)">s</text><text xml:space="preserve" font-family="TimesNewRomanPSMT" font-size="62.0" fill="#FFFFFF" transform="matrix(1.00, 0.00, -0.00, -1.00, 443.6, 652.0)">t</text><text xml:space="preserve" font-family="TimesNewRomanPSMT" font-size="62.0" fill="#FFFFFF" transform="matrix(1.00, 0.00, -0.00, -1.00, 460.8, 652.0)">è</text><text xml:space="preserve" font-family="TimesNewRomanPSMT" font-size="62.0" fill="#FFFFFF" transform="matrix(1.00, 0.00, -0.00, -1.00, 488.4, 652.0)">m</text><text xml:space="preserve" font-family="TimesNewRomanPSMT" font-size="62.0" fill="#FFFFFF" transform="matrix(1.00, 0.00, -0.00, -1.00, 536.6, 652.0)">e</text><text xml:space="preserve" font-family="TimesNewRomanPSMT" font-size="62.0" fill="#FFFFFF" transform="matrix(1.00, 0.00, -0.00, -1.00, 564.1, 652.0)"> </text><text xml:space="preserve" font-family="TimesNewRomanPSMT" font-size="62.0" fill="#FFFFFF" transform="matrix(1.00, 0.00, -0.00, -1.00, 579.6, 652.0)">…</text><text xml:space="preserve" font-family="TimesNewRomanPSMT" font-size="62.0" fill="#FFFFFF" transform="matrix(1.00, 0.00, -0.00, -1.00, 641.6, 652.0)">?</text><image xlink:href="../../9332EE9B-6CDA-4505-AFBA-29A0F2CFC99B/assets/0DE7EC7980F2F50B6AB47D48F99F0A98.png" width="264.00" height="519.00" transform="matrix(1.15, 0.00, -0.00, -1.15, 102.0, 597.0)"></image><image xlink:href="../../9332EE9B-6CDA-4505-AFBA-29A0F2CFC99B/assets/0AB74A6660BEE8E34D1B3C7EF09BFA7A.png" width="266.00" height="559.00" transform="matrix(1.07, 0.00, -0.00, -1.07, 649.0, 604.0)"></image><text xml:space="preserve" font-family="ArialMT" font-size="58.0" fill="#878787" transform="matrix(1.00, 0.00, -0.00, -1.00, 935.4, 15.5)">9</text></g></svg>