<?xml version="1.0" encoding="UTF-8" standalone="no"?><svg xmlns="http://www.w3.org/2000/svg" xmlns:xlink="http://www.w3.org/1999/xlink" clip-rule="evenodd" stroke-miterlimit="4.00" viewBox="0 0 1024 768"><desc>SVG generated by Keynote</desc><defs></defs><g transform="matrix(1.00, 0.00, -0.00, -1.00, 0.0, 768.0)"><path d="M 0.0 768.0 L 1024.0 768.0 L 1024.0 0.0 L 0.0 0.0 Z M 0.0 768.0 " fill="#000000"></path><g><clipPath id="clip-129"><path d="M 241.0 628.0 L 675.0 628.0 L 675.0 195.0 L 241.0 195.0 Z M 241.0 627.9 "></path></clipPath><g clip-path="url(#clip-129)"><image xlink:href="../../F20942A2-DD9F-4839-A734-66A3E2FCCAF0/assets/F3E9E40E1D232353973000D3DC51BB93.png" width="369.00" height="232.00" transform="matrix(1.86, 0.00, -0.00, -1.87, 241.0, 628.0)"></image></g></g><text xml:space="preserve" font-family="ArialMT" font-size="58.0" fill="#878787" transform="matrix(1.00, 0.00, -0.00, -1.00, 903.2, 15.5)">1</text><text xml:space="preserve" font-family="ArialMT" font-size="58.0" fill="#878787" transform="matrix(1.00, 0.00, -0.00, -1.00, 935.4, 15.5)">0</text><text xml:space="preserve" font-family="Helvetica-Bold" font-weight="bold" font-size="36.0" fill="#53D4B2" transform="matrix(1.00, 0.00, -0.00, -1.00, 376.0, 91.0)">?</text><path d="M 0.0 0.0 L 168.2 0.0 " fill="none" stroke="#53D4B2" stroke-width="4.00" transform="matrix(-0.54, -0.84, -0.84, 0.54, 483.9, 265.7)"></path></g></svg>