<?xml version="1.0" encoding="UTF-8" standalone="no"?><svg xmlns="http://www.w3.org/2000/svg" xmlns:xlink="http://www.w3.org/1999/xlink" clip-rule="evenodd" stroke-miterlimit="4.00" viewBox="0 0 1024 768"><desc>SVG generated by Keynote</desc><defs></defs><g transform="matrix(1.00, 0.00, -0.00, -1.00, 0.0, 768.0)"><path d="M 0.0 768.0 L 1024.0 768.0 L 1024.0 0.0 L 0.0 0.0 Z M 0.0 768.0 " fill="#000000"></path><g><clipPath id="clip-92"><path d="M 275.0 737.0 L 745.0 737.0 L 745.0 11.0 L 275.0 11.0 Z M 275.1 737.0 "></path></clipPath><g clip-path="url(#clip-92)"><image xlink:href="4E14390D442264D755BAEE45A754D308.png" width="323.00" height="540.00" transform="matrix(1.49, 0.00, -0.00, -1.49, 275.0, 757.0)"></image></g></g><text xml:space="preserve" font-family="ArialMT" font-size="58.0" fill="#878787" transform="matrix(1.00, 0.00, -0.00, -1.00, 903.2, 15.5)">6</text><text xml:space="preserve" font-family="ArialMT" font-size="58.0" fill="#878787" transform="matrix(1.00, 0.00, -0.00, -1.00, 935.4, 15.5)">3</text><text xml:space="preserve" font-family="Helvetica-Bold" font-weight="bold" font-size="36.0" fill="#53D4B2" transform="matrix(1.00, 0.00, -0.00, -1.00, 289.0, 383.0)">?</text><path d="M 0.0 0.0 L 68.4 0.0 " fill="none" stroke="#53D4B2" stroke-width="4.00" transform="matrix(0.98, 0.21, 0.21, -0.98, 320.0, 393.9)"></path></g></svg>