<?xml version="1.0" encoding="UTF-8" standalone="no"?><svg xmlns="http://www.w3.org/2000/svg" xmlns:xlink="http://www.w3.org/1999/xlink" clip-rule="evenodd" stroke-miterlimit="4.00" viewBox="0 0 1024 768"><desc>SVG generated by Keynote</desc><defs></defs><g transform="matrix(1.00, 0.00, -0.00, -1.00, 0.0, 768.0)"><path d="M 0.0 768.0 L 1024.0 768.0 L 1024.0 0.0 L 0.0 0.0 Z M 0.0 768.0 " fill="#000000"></path><text xml:space="preserve" font-family="ArialMT" font-size="58.0" fill="#878787" transform="matrix(1.00, 0.00, -0.00, -1.00, 903.2, 15.5)">6</text><text xml:space="preserve" font-family="ArialMT" font-size="58.0" fill="#878787" transform="matrix(1.00, 0.00, -0.00, -1.00, 935.4, 15.5)">7</text><text xml:space="preserve" font-family="Helvetica-Bold" font-weight="bold" font-size="36.0" fill="#53D4B2" transform="matrix(1.00, 0.00, -0.00, -1.00, 817.0, 237.0)">?</text><g><clipPath id="clip-52"><path d="M 248.0 670.0 L 776.0 670.0 L 776.0 98.0 L 248.0 98.0 Z M 247.7 669.8 "></path></clipPath><g clip-path="url(#clip-52)"><image xlink:href="FFC3FA2A3426AAF09EE1BA3C0DBB4C88.png" width="527.00" height="548.00" transform="matrix(1.04, 0.00, -0.00, -1.04, 248.0, 670.0)"></image></g></g><path d="M 0.0 0.0 L 219.8 0.0 " fill="none" stroke="#00FCFF" stroke-width="4.00" transform="matrix(-1.00, 0.00, 0.00, 1.00, 807.0, 250.2)"></path></g></svg>