<?xml version="1.0" encoding="UTF-8" standalone="no"?><svg xmlns="http://www.w3.org/2000/svg" xmlns:xlink="http://www.w3.org/1999/xlink" clip-rule="evenodd" stroke-miterlimit="4.00" viewBox="0 0 1024 768"><desc>SVG generated by Keynote</desc><defs></defs><g transform="matrix(1.00, 0.00, -0.00, -1.00, 0.0, 768.0)"><path d="M 0.0 768.0 L 1024.0 768.0 L 1024.0 0.0 L 0.0 0.0 Z M 0.0 768.0 " fill="#000000"></path><text xml:space="preserve" font-family="ArialMT" font-size="58.0" fill="#878787" transform="matrix(1.00, 0.00, -0.00, -1.00, 903.2, 15.5)">2</text><text xml:space="preserve" font-family="ArialMT" font-size="58.0" fill="#878787" transform="matrix(1.00, 0.00, -0.00, -1.00, 935.4, 15.5)">1</text><g><clipPath id="clip-25"><path d="M 353.0 639.0 L 671.0 639.0 L 671.0 129.0 L 353.0 129.0 Z M 353.3 639.0 "></path></clipPath><g clip-path="url(#clip-25)"><image xlink:href="../../E4095021-4DD3-43B5-A76F-0E1F2088AE88/assets/59DC6C681BA692CADFB5126C820C67B8.png" width="592.00" height="564.00" transform="matrix(1.17, 0.00, -0.00, -1.17, -21.0, 639.0)"></image></g></g><text xml:space="preserve" font-family="Helvetica-Bold" font-weight="bold" font-size="36.0" fill="#53D4B2" transform="matrix(1.00, 0.00, -0.00, -1.00, 244.0, 532.0)">?</text><path d="M 0.0 0.0 L 174.3 0.0 " fill="none" stroke="#53D4B2" stroke-width="4.00" transform="matrix(-0.93, 0.38, 0.38, 0.93, 433.8, 475.7)"></path></g></svg>