<?xml version="1.0" encoding="UTF-8" standalone="no"?><svg xmlns="http://www.w3.org/2000/svg" xmlns:xlink="http://www.w3.org/1999/xlink" clip-rule="evenodd" stroke-miterlimit="4.00" viewBox="0 0 1024 768"><desc>SVG generated by Keynote</desc><defs></defs><g transform="matrix(1.00, 0.00, -0.00, -1.00, 0.0, 768.0)"><path d="M 0.0 768.0 L 1024.0 768.0 L 1024.0 0.0 L 0.0 0.0 Z M 0.0 768.0 " fill="#DDDDDD"></path><image xlink:href="../../4EE79508-EB0A-4C03-8197-2071FC01DCEC/assets/86915F48EF21EE36053FFF658A57EA49.png" width="209.00" height="541.00" transform="matrix(-1.38, 0.00, 0.00, -1.38, 952.0, 816.0)"></image><text xml:space="preserve" font-family="ArialMT" font-size="58.0" fill="#878787" transform="matrix(1.00, 0.00, -0.00, -1.00, 903.2, 15.5)">6</text><text xml:space="preserve" font-family="ArialMT" font-size="58.0" fill="#878787" transform="matrix(1.00, 0.00, -0.00, -1.00, 935.4, 15.5)">3</text><text xml:space="preserve" font-family="Helvetica-Bold" font-weight="bold" font-size="47.0" fill="#B96EDB" transform="matrix(1.00, 0.00, -0.00, -1.00, 948.0, 473.0)">?</text><image xlink:href="../../4EE79508-EB0A-4C03-8197-2071FC01DCEC/assets/D7534263CA7DB463C380C1BBF39C2122.png" width="226.00" height="541.00" transform="matrix(-1.30, 0.00, 0.00, -1.29, 649.0, 772.0)"></image><image xlink:href="../../4EE79508-EB0A-4C03-8197-2071FC01DCEC/assets/2A256236D06CE2499A74C3AB3749118F.png" width="223.00" height="541.00" transform="matrix(-1.30, 0.00, 0.00, -1.29, 342.0, 772.0)"></image><path d="M 0.0 0.0 L 54.8 0.0 " fill="none" stroke="#B96EDB" stroke-width="4.00" transform="matrix(-0.94, 0.35, 0.35, 0.94, 942.1, 490.6)"></path><text xml:space="preserve" font-family="Helvetica-Bold" font-weight="bold" font-size="47.0" fill="#B96EDB" transform="matrix(1.00, 0.00, -0.00, -1.00, 364.0, 492.0)">?</text><path d="M 0.0 0.0 L 63.1 0.0 " fill="none" stroke="#F4F243" stroke-width="4.00" transform="matrix(-0.95, 0.32, 0.32, 0.95, 359.1, 513.5)"></path></g></svg>