<?xml version="1.0" encoding="UTF-8" standalone="no"?><svg xmlns="http://www.w3.org/2000/svg" xmlns:xlink="http://www.w3.org/1999/xlink" clip-rule="evenodd" stroke-miterlimit="4.00" viewBox="0 0 1024 768"><desc>SVG generated by Keynote</desc><defs></defs><g transform="matrix(1.00, 0.00, -0.00, -1.00, 0.0, 768.0)"><path d="M 0.0 768.0 L 1024.0 768.0 L 1024.0 0.0 L 0.0 0.0 Z M 0.0 768.0 " fill="#000000"></path><g><clipPath id="clip-122"><path d="M 315.0 781.0 L 709.0 781.0 L 709.0 47.0 L 315.0 47.0 Z M 315.4 781.3 "></path></clipPath><g clip-path="url(#clip-122)"><image xlink:href="7C0F75D7728C91EC98BF4CD8297E8EC9.png" width="581.00" height="572.00" transform="matrix(1.28, 0.00, -0.00, -1.28, 315.0, 781.0)"></image></g></g><text xml:space="preserve" font-family="ArialMT" font-size="58.0" fill="#878787" transform="matrix(1.00, 0.00, -0.00, -1.00, 903.2, 15.5)">8</text><text xml:space="preserve" font-family="ArialMT" font-size="58.0" fill="#878787" transform="matrix(1.00, 0.00, -0.00, -1.00, 935.4, 15.5)">4</text><text xml:space="preserve" font-family="Helvetica-Bold" font-weight="bold" font-size="36.0" fill="#53D4B2" transform="matrix(1.00, 0.00, -0.00, -1.00, 335.0, 593.0)">?</text><path d="M 0.0 0.0 L 116.3 0.0 " fill="none" stroke="#53D4B2" stroke-width="4.00" transform="matrix(-0.96, 0.28, 0.28, 0.96, 491.8, 559.8)"></path></g></svg>