<?xml version="1.0" encoding="UTF-8" standalone="no"?><svg xmlns="http://www.w3.org/2000/svg" xmlns:xlink="http://www.w3.org/1999/xlink" clip-rule="evenodd" stroke-miterlimit="4.00" viewBox="0 0 1024 768"><desc>SVG generated by Keynote</desc><defs></defs><g transform="matrix(1.00, 0.00, -0.00, -1.00, 0.0, 768.0)"><path d="M 0.0 768.0 L 1024.0 768.0 L 1024.0 0.0 L 0.0 0.0 Z M 0.0 768.0 " fill="#000000"></path><text xml:space="preserve" font-family="ArialMT" font-size="58.0" fill="#878787" transform="matrix(1.00, 0.00, -0.00, -1.00, 903.2, 15.5)">7</text><text xml:space="preserve" font-family="ArialMT" font-size="58.0" fill="#878787" transform="matrix(1.00, 0.00, -0.00, -1.00, 935.4, 15.5)">0</text><g><clipPath id="clip-99"><path d="M 228.0 692.0 L 796.0 692.0 L 796.0 76.0 L 228.0 76.0 Z M 228.1 692.3 "></path></clipPath><g clip-path="url(#clip-99)"><image xlink:href="2B9A865E671B100C62EBD018852A3442.png" width="526.00" height="548.00" transform="matrix(1.12, 0.00, -0.00, -1.12, 228.0, 692.0)"></image></g></g><text xml:space="preserve" font-family="Helvetica-Bold" font-weight="bold" font-size="36.0" fill="#53D4B2" transform="matrix(1.00, 0.00, -0.00, -1.00, 782.0, 239.0)">?</text><path d="M 0.0 0.0 L 161.7 0.0 " fill="none" stroke="#00FCFF" stroke-width="4.00" transform="matrix(-0.88, 0.48, 0.48, 0.88, 774.0, 259.0)"></path></g></svg>