<?xml version="1.0" encoding="UTF-8" standalone="no"?><svg xmlns="http://www.w3.org/2000/svg" xmlns:xlink="http://www.w3.org/1999/xlink" clip-rule="evenodd" stroke-miterlimit="4.00" viewBox="0 0 1024 768"><desc>SVG generated by Keynote</desc><defs><pattern id="85873745-5202-4C37-93BC-8CE5BDB477D7" patternUnits="userSpaceOnUse" width="334" height="334" viewBox="0 0 334 334" patternTransform="matrix(0.898204, 0.000000, 0.000000, -0.898204, 174.721800, 771.804500)"><image xlink:href="../../1A81FDF9-AE2C-4495-AFB2-68D19D91DF79/assets/CF5C1FBC835CF34ADBBA57D7B8B41202.jpeg" width="334.00" height="334.00"></image></pattern></defs><g transform="matrix(1.00, 0.00, -0.00, -1.00, 0.0, 768.0)"><path d="M 0.0 768.0 L 1024.0 768.0 L 1024.0 0.0 L 0.0 0.0 Z M 0.0 768.0 " fill="#DDDDDD"></path><text xml:space="preserve" font-family="ArialMT" font-size="58.0" fill="#878787" transform="matrix(1.00, 0.00, -0.00, -1.00, 903.2, 15.5)">5</text><text xml:space="preserve" font-family="ArialMT" font-size="58.0" fill="#878787" transform="matrix(1.00, 0.00, -0.00, -1.00, 935.4, 15.5)">4</text><image xlink:href="7F37F1A2A0E427423783C2842A68D757.png" width="287.00" height="540.00" transform="matrix(1.42, 0.00, -0.00, -1.42, 308.0, 768.0)"></image><text xml:space="preserve" font-family="Helvetica-Bold" font-weight="bold" font-size="47.0" fill="#B96EDB" transform="matrix(1.00, 0.00, -0.00, -1.00, 236.0, 487.0)">?</text><path d="M 0.0 0.0 L 144.7 0.0 " fill="none" stroke="#BA6EDC" stroke-width="4.00" transform="matrix(-0.99, 0.12, 0.12, 0.99, 408.9, 480.5)"></path><g><clipPath id="clip-72"><path d="M 174.7 771.8 L 508.0 771.8 L 508.0 742.7 L 174.7 742.7 Z M 174.7 771.8 "></path></clipPath><g clip-path="url(#clip-72)"><path d="M 174.7 742.7 L 508.0 742.7 L 508.0 768.0 L 174.7 768.0 Z M 174.7 742.7 " fill="url(#85873745-5202-4C37-93BC-8CE5BDB477D7)"></path><path d="M 174.7 771.8 L 508.0 771.8 L 508.0 742.7 L 174.7 742.7 Z M 174.7 771.8 " fill="#DDDDDD"></path></g></g></g></svg>