<?xml version="1.0" encoding="UTF-8" standalone="no"?><svg xmlns="http://www.w3.org/2000/svg" xmlns:xlink="http://www.w3.org/1999/xlink" clip-rule="evenodd" stroke-miterlimit="4.00" viewBox="0 0 1024 768"><desc>SVG generated by Keynote</desc><defs><pattern id="B6A5C75B-512B-4AB5-869A-ED84DF29705E" patternUnits="userSpaceOnUse" width="334" height="334" viewBox="0 0 334 334" patternTransform="matrix(0.898204, 0.000000, 0.000000, -0.898204, 174.721800, 771.804500)"><image xlink:href="../../1A81FDF9-AE2C-4495-AFB2-68D19D91DF79/assets/CF5C1FBC835CF34ADBBA57D7B8B41202.jpeg" width="334.00" height="334.00"></image></pattern></defs><g transform="matrix(1.00, 0.00, -0.00, -1.00, 0.0, 768.0)"><path d="M 0.0 768.0 L 1024.0 768.0 L 1024.0 0.0 L 0.0 0.0 Z M 0.0 768.0 " fill="#DDDDDD"></path><image xlink:href="../../1A81FDF9-AE2C-4495-AFB2-68D19D91DF79/assets/A1BE9C94ED0F95FF47F276F6129C7176.png" width="374.00" height="540.00" transform="matrix(1.42, 0.00, -0.00, -1.42, 361.0, 765.0)"></image><text xml:space="preserve" font-family="ArialMT" font-size="58.0" fill="#878787" transform="matrix(1.00, 0.00, -0.00, -1.00, 903.2, 15.5)">5</text><text xml:space="preserve" font-family="ArialMT" font-size="58.0" fill="#878787" transform="matrix(1.00, 0.00, -0.00, -1.00, 935.4, 15.5)">3</text><image xlink:href="../../1A81FDF9-AE2C-4495-AFB2-68D19D91DF79/assets/C77C190AAE68FABC06381DE804E29AB8.png" width="372.00" height="540.00" transform="matrix(-1.42, 0.00, 0.00, -1.42, 311.0, 763.0)"></image><text xml:space="preserve" font-family="Helvetica-Bold" font-weight="bold" font-size="47.0" fill="#B96EDB" transform="matrix(1.00, 0.00, -0.00, -1.00, 327.0, 326.0)">?</text><path d="M 0.0 0.0 L 217.7 0.0 " fill="none" stroke="#F4F243" stroke-width="4.00" transform="matrix(-1.00, 0.10, 0.10, 1.00, 572.8, 314.9)"></path><path d="M 0.0 0.0 L 226.4 0.0 " fill="none" stroke="#F4F243" stroke-width="4.00" transform="matrix(-0.99, -0.10, -0.10, 0.99, 321.2, 337.6)"></path><g><clipPath id="clip-71"><path d="M 174.7 771.8 L 508.0 771.8 L 508.0 742.7 L 174.7 742.7 Z M 174.7 771.8 "></path></clipPath><g clip-path="url(#clip-71)"><path d="M 174.7 742.7 L 508.0 742.7 L 508.0 768.0 L 174.7 768.0 Z M 174.7 742.7 " fill="url(#B6A5C75B-512B-4AB5-869A-ED84DF29705E)"></path><path d="M 174.7 771.8 L 508.0 771.8 L 508.0 742.7 L 174.7 742.7 Z M 174.7 771.8 " fill="#DDDDDD"></path></g></g></g></svg>