<?xml version="1.0" encoding="UTF-8" standalone="no"?><svg xmlns="http://www.w3.org/2000/svg" xmlns:xlink="http://www.w3.org/1999/xlink" clip-rule="evenodd" stroke-miterlimit="4.00" viewBox="0 0 1024 768"><desc>SVG generated by Keynote</desc><defs></defs><g transform="matrix(1.00, 0.00, -0.00, -1.00, 0.0, 768.0)"><path d="M 0.0 768.0 L 1024.0 768.0 L 1024.0 0.0 L 0.0 0.0 Z M 0.0 768.0 " fill="#DDDDDD"></path><image xlink:href="DFD86DDF0C4029BFF6D7DC7788B15BA3.png" width="261.00" height="540.00" transform="matrix(-1.43, 0.00, 0.00, -1.42, 385.0, 768.0)"></image><image xlink:href="884DB986A5922AA01A8C46ACFBCBCD89.png" width="244.00" height="540.00" transform="matrix(1.42, 0.00, -0.00, -1.42, 535.0, 768.0)"></image><text xml:space="preserve" font-family="ArialMT" font-size="58.0" fill="#878787" transform="matrix(1.00, 0.00, -0.00, -1.00, 903.2, 15.5)">4</text><text xml:space="preserve" font-family="ArialMT" font-size="58.0" fill="#878787" transform="matrix(1.00, 0.00, -0.00, -1.00, 935.4, 15.5)">3</text><text xml:space="preserve" font-family="Helvetica-Bold" font-weight="bold" font-size="47.0" fill="#B96EDB" transform="matrix(1.00, 0.00, -0.00, -1.00, 436.0, 571.0)">?</text><path d="M 0.0 0.0 L 104.6 0.0 " fill="none" stroke="#F4F243" stroke-width="4.00" transform="matrix(0.98, -0.22, -0.22, -0.98, 317.6, 614.4)"></path><path d="M 0.0 0.0 L 104.6 0.0 " fill="none" stroke="#F4F243" stroke-width="4.00" transform="matrix(-0.98, -0.22, -0.22, 0.98, 582.9, 614.4)"></path></g></svg>