<?xml version="1.0" encoding="UTF-8" standalone="no"?><svg xmlns="http://www.w3.org/2000/svg" xmlns:xlink="http://www.w3.org/1999/xlink" clip-rule="evenodd" stroke-miterlimit="4.00" viewBox="0 0 1024 768"><desc>SVG generated by Keynote</desc><defs></defs><g transform="matrix(1.00, 0.00, -0.00, -1.00, 0.0, 768.0)"><path d="M 0.0 768.0 L 1024.0 768.0 L 1024.0 0.0 L 0.0 0.0 Z M 0.0 768.0 " fill="#DDDDDD"></path><text xml:space="preserve" font-family="ArialMT" font-size="58.0" fill="#878787" transform="matrix(1.00, 0.00, -0.00, -1.00, 870.0, 15.5)">1</text><text xml:space="preserve" font-family="ArialMT" font-size="58.0" fill="#878787" transform="matrix(1.00, 0.00, -0.00, -1.00, 902.2, 15.5)">3</text><text xml:space="preserve" font-family="ArialMT" font-size="58.0" fill="#878787" transform="matrix(1.00, 0.00, -0.00, -1.00, 934.5, 15.5)">1</text><g><clipPath id="clip-234"><path d="M 1011.0 446.0 L 752.0 446.0 L 752.0 168.0 L 1011.0 168.0 Z M 1011.0 446.0 "></path></clipPath><g clip-path="url(#clip-234)"><image xlink:href="../../A867207E-7921-4650-A847-C96144991D1E/assets/3B7F97E825C9A672330F9D97BA073AA4.png" width="214.00" height="278.00" transform="matrix(-1.00, 0.00, 0.00, -1.00, 1001.0, 455.0)"></image></g></g><g><clipPath id="clip-235"><path d="M 1013.0 753.0 L 748.0 753.0 L 748.0 475.0 L 1013.0 475.0 Z M 1012.7 752.6 "></path></clipPath><g clip-path="url(#clip-235)"><image xlink:href="../../A867207E-7921-4650-A847-C96144991D1E/assets/7D665068AFCD2ABEA678D7D4AA603417.png" width="225.00" height="376.00" transform="matrix(-0.74, 0.00, 0.00, -0.74, 963.0, 753.0)"></image></g></g><image xlink:href="../../FFACBCCE-E3FB-4BCA-8570-ECC8896484DE/assets/8A242FBE5A7A27E0F3B237F944434D2D.png" width="277.00" height="293.00" transform="matrix(1.00, 0.00, -0.00, -1.00, 741.5, 758.0)" opacity="0.50"></image><path d="M 0.0 0.0 L 264.4 0.0 L 264.4 280.4 L 0.0 280.4 Z M 0.0 0.0 " fill="none" stroke="#912623" stroke-width="7.00" transform="matrix(1.00, 0.00, 0.00, -1.00, 748.0, 753.5)"></path><image xlink:href="../../FFACBCCE-E3FB-4BCA-8570-ECC8896484DE/assets/85509769F90E1BD4B1C1DFF883FEAD53.png" width="277.00" height="293.00" transform="matrix(1.00, 0.00, -0.00, -1.00, 741.6, 451.6)" opacity="0.50"></image><path d="M 0.0 0.0 L 264.4 0.0 L 264.4 280.0 L 0.0 280.0 Z M 0.0 0.0 " fill="none" stroke="#3F508D" stroke-width="7.00" transform="matrix(1.00, 0.00, 0.00, -1.00, 748.1, 447.1)"></path><image xlink:href="../../67C013FA-A870-4FC7-8E8B-C52C7A26AC4C/assets/063EEE46CE7A3D0DCA17CF104EC1D7A1.png" width="274.00" height="541.00" transform="matrix(-1.30, 0.00, 0.00, -1.30, 364.0, 768.0)"></image><image xlink:href="../../67C013FA-A870-4FC7-8E8B-C52C7A26AC4C/assets/74F329A53FFE6056127B4D6C1E78A766.png" width="249.00" height="541.00" transform="matrix(-1.30, 0.00, 0.00, -1.30, 730.0, 780.0)"></image><text xml:space="preserve" font-family="Helvetica-Bold" font-weight="bold" font-size="47.0" fill="#B96EDB" transform="matrix(1.00, 0.00, -0.00, -1.00, 255.0, 522.0)">?</text><path d="M 0.0 0.0 L 154.0 0.0 " fill="none" stroke="#F4F243" stroke-width="4.00" transform="matrix(-0.98, -0.17, -0.17, 0.98, 253.2, 534.4)"></path><text xml:space="preserve" font-family="Helvetica-Bold" font-weight="bold" font-size="47.0" fill="#B96EDB" transform="matrix(1.00, 0.00, -0.00, -1.00, 383.0, 511.0)">?</text><path d="M 0.0 0.0 L 48.1 0.0 " fill="none" stroke="#B96EDB" stroke-width="4.00" transform="matrix(0.96, -0.29, -0.29, -0.96, 417.8, 522.2)"></path></g></svg>