<?xml version="1.0" encoding="UTF-8" standalone="no"?><svg xmlns="http://www.w3.org/2000/svg" xmlns:xlink="http://www.w3.org/1999/xlink" clip-rule="evenodd" stroke-miterlimit="4.00" viewBox="0 0 1024 768"><desc>SVG generated by Keynote</desc><defs></defs><g transform="matrix(1.00, 0.00, -0.00, -1.00, 0.0, 768.0)"><path d="M 0.0 768.0 L 1024.0 768.0 L 1024.0 0.0 L 0.0 0.0 Z M 0.0 768.0 " fill="#000000"></path><text xml:space="preserve" font-family="TimesNewRomanPSMT" font-size="62.0" fill="#FFFFFF" transform="matrix(1.00, 0.00, -0.00, -1.00, 354.0, 652.0)">S</text><text xml:space="preserve" font-family="TimesNewRomanPSMT" font-size="62.0" fill="#FFFFFF" transform="matrix(1.00, 0.00, -0.00, -1.00, 388.5, 652.0)">y</text><text xml:space="preserve" font-family="TimesNewRomanPSMT" font-size="62.0" fill="#FFFFFF" transform="matrix(1.00, 0.00, -0.00, -1.00, 419.5, 652.0)">s</text><text xml:space="preserve" font-family="TimesNewRomanPSMT" font-size="62.0" fill="#FFFFFF" transform="matrix(1.00, 0.00, -0.00, -1.00, 443.6, 652.0)">t</text><text xml:space="preserve" font-family="TimesNewRomanPSMT" font-size="62.0" fill="#FFFFFF" transform="matrix(1.00, 0.00, -0.00, -1.00, 460.8, 652.0)">è</text><text xml:space="preserve" font-family="TimesNewRomanPSMT" font-size="62.0" fill="#FFFFFF" transform="matrix(1.00, 0.00, -0.00, -1.00, 488.4, 652.0)">m</text><text xml:space="preserve" font-family="TimesNewRomanPSMT" font-size="62.0" fill="#FFFFFF" transform="matrix(1.00, 0.00, -0.00, -1.00, 536.6, 652.0)">e</text><text xml:space="preserve" font-family="TimesNewRomanPSMT" font-size="62.0" fill="#FFFFFF" transform="matrix(1.00, 0.00, -0.00, -1.00, 564.1, 652.0)"> </text><text xml:space="preserve" font-family="TimesNewRomanPSMT" font-size="62.0" fill="#FFFFFF" transform="matrix(1.00, 0.00, -0.00, -1.00, 579.6, 652.0)">…</text><text xml:space="preserve" font-family="TimesNewRomanPSMT" font-size="62.0" fill="#FFFFFF" transform="matrix(1.00, 0.00, -0.00, -1.00, 641.6, 652.0)">?</text><image xlink:href="../../F533EE9B-6CDA-4505-AFBA-29A0F2CFC99B/assets/FB15EEF879E768C08D3311CB628A12CC.png" width="231.00" height="515.00" transform="matrix(1.17, 0.00, -0.00, -1.18, 137.0, 606.0)"></image><image xlink:href="../../F533EE9B-6CDA-4505-AFBA-29A0F2CFC99B/assets/2CD2C930E5B37BBE21CFFD5F4B475747.png" width="279.00" height="568.00" transform="matrix(1.07, 0.00, -0.00, -1.07, 563.0, 613.0)"></image><text xml:space="preserve" font-family="ArialMT" font-size="58.0" fill="#878787" transform="matrix(1.00, 0.00, -0.00, -1.00, 935.4, 15.5)">8</text></g></svg>