<?xml version="1.0" encoding="UTF-8" standalone="no"?><svg xmlns="http://www.w3.org/2000/svg" xmlns:xlink="http://www.w3.org/1999/xlink" clip-rule="evenodd" stroke-miterlimit="4.00" viewBox="0 0 1024 768"><desc>SVG generated by Keynote</desc><defs></defs><g transform="matrix(1.00, 0.00, -0.00, -1.00, 0.0, 768.0)"><path d="M 0.0 768.0 L 1024.0 768.0 L 1024.0 0.0 L 0.0 0.0 Z M 0.0 768.0 " fill="#000000"></path><g><clipPath id="clip-26"><path d="M 267.0 758.0 L 757.0 758.0 L 757.0 10.0 L 267.0 10.0 Z M 267.4 758.3 "></path></clipPath><g clip-path="url(#clip-26)"><image xlink:href="../../38A29B66-8901-49C6-BA23-E2E6A0AF6F98/assets/4F93C335271515C8D755F353E115E854.png" width="360.00" height="540.00" transform="matrix(1.42, 0.00, -0.00, -1.42, 256.0, 768.0)"></image></g></g><text xml:space="preserve" font-family="ArialMT" font-size="58.0" fill="#878787" transform="matrix(1.00, 0.00, -0.00, -1.00, 903.2, 15.5)">3</text><text xml:space="preserve" font-family="ArialMT" font-size="58.0" fill="#878787" transform="matrix(1.00, 0.00, -0.00, -1.00, 935.4, 15.5)">4</text><path d="M 0.0 0.0 L 124.5 0.0 " fill="none" stroke="#FEFFFE" stroke-width="4.00" transform="matrix(1.00, 0.00, 0.00, -1.00, 336.0, 461.8)"></path><path d="M 0.0 0.0 L 124.9 0.0 " fill="none" stroke="#FEFFFE" stroke-width="4.00" transform="matrix(0.00, -1.00, -1.00, 0.00, 389.7, 504.7)"></path><text xml:space="preserve" font-family="Helvetica-Bold" font-weight="bold" font-size="36.0" fill="#000000" transform="matrix(1.00, 0.00, -0.00, -1.00, 447.0, 495.0)">C</text><text xml:space="preserve" font-family="Helvetica-Bold" font-weight="bold" font-size="36.0" fill="#000000" transform="matrix(1.00, 0.00, -0.00, -1.00, 473.0, 495.0)">a</text><text xml:space="preserve" font-family="Helvetica-Bold" font-weight="bold" font-size="36.0" fill="#000000" transform="matrix(1.00, 0.00, -0.00, -1.00, 493.0, 495.0)">v</text><text xml:space="preserve" font-family="Helvetica-Bold" font-weight="bold" font-size="36.0" fill="#000000" transform="matrix(1.00, 0.00, -0.00, -1.00, 513.1, 495.0)">i</text><text xml:space="preserve" font-family="Helvetica-Bold" font-weight="bold" font-size="36.0" fill="#000000" transform="matrix(1.00, 0.00, -0.00, -1.00, 523.1, 495.0)">t</text><text xml:space="preserve" font-family="Helvetica-Bold" font-weight="bold" font-size="36.0" fill="#000000" transform="matrix(1.00, 0.00, -0.00, -1.00, 535.0, 495.0)">é</text><text xml:space="preserve" font-family="Helvetica-Bold" font-weight="bold" font-size="36.0" fill="#000000" transform="matrix(1.00, 0.00, -0.00, -1.00, 555.1, 495.0)">?</text><path d="M 0.0 0.0 L 34.9 0.0 " fill="none" stroke="#000000" stroke-width="4.00" transform="matrix(-0.73, -0.68, -0.68, 0.73, 473.1, 492.1)"></path></g></svg>