<?xml version="1.0" encoding="UTF-8" standalone="no"?><svg xmlns="http://www.w3.org/2000/svg" xmlns:xlink="http://www.w3.org/1999/xlink" clip-rule="evenodd" stroke-miterlimit="4.00" viewBox="0 0 1024 768"><desc>SVG generated by Keynote</desc><defs></defs><g transform="matrix(1.00, 0.00, -0.00, -1.00, 0.0, 768.0)"><path d="M 0.0 768.0 L 1024.0 768.0 L 1024.0 0.0 L 0.0 0.0 Z M 0.0 768.0 " fill="#000000"></path><image xlink:href="6C5DDFFE470C6BD4B044A939EAA92DF0.png" width="201.00" height="273.00" transform="matrix(1.45, 0.00, -0.00, -1.45, 407.0, 539.0)"></image><text xml:space="preserve" font-family="ArialMT" font-size="58.0" fill="#878787" transform="matrix(1.00, 0.00, -0.00, -1.00, 903.2, 15.5)">1</text><text xml:space="preserve" font-family="ArialMT" font-size="58.0" fill="#878787" transform="matrix(1.00, 0.00, -0.00, -1.00, 935.4, 15.5)">7</text><text xml:space="preserve" font-family="Helvetica-Bold" font-weight="bold" font-size="36.0" fill="#53D4B2" transform="matrix(1.00, 0.00, -0.00, -1.00, 315.0, 580.0)">R</text><text xml:space="preserve" font-family="Helvetica-Bold" font-weight="bold" font-size="36.0" fill="#53D4B2" transform="matrix(1.00, 0.00, -0.00, -1.00, 341.0, 580.0)">e</text><text xml:space="preserve" font-family="Helvetica-Bold" font-weight="bold" font-size="36.0" fill="#53D4B2" transform="matrix(1.00, 0.00, -0.00, -1.00, 361.0, 580.0)">l</text><text xml:space="preserve" font-family="Helvetica-Bold" font-weight="bold" font-size="36.0" fill="#53D4B2" transform="matrix(1.00, 0.00, -0.00, -1.00, 371.0, 580.0)">i</text><text xml:space="preserve" font-family="Helvetica-Bold" font-weight="bold" font-size="36.0" fill="#53D4B2" transform="matrix(1.00, 0.00, -0.00, -1.00, 381.0, 580.0)">e</text><text xml:space="preserve" font-family="Helvetica-Bold" font-weight="bold" font-size="36.0" fill="#53D4B2" transform="matrix(1.00, 0.00, -0.00, -1.00, 401.1, 580.0)">f</text><text xml:space="preserve" font-family="Helvetica-Bold" font-weight="bold" font-size="36.0" fill="#53D4B2" transform="matrix(1.00, 0.00, -0.00, -1.00, 413.0, 580.0)">?</text><path d="M 0.0 0.0 L 98.5 0.0 " fill="none" stroke="#53D4B2" stroke-width="4.00" transform="matrix(0.71, -0.71, -0.71, -0.71, 408.0, 562.5)"></path></g></svg>