<?xml version="1.0" encoding="UTF-8" standalone="no"?><svg xmlns="http://www.w3.org/2000/svg" xmlns:xlink="http://www.w3.org/1999/xlink" clip-rule="evenodd" stroke-miterlimit="4.00" viewBox="0 0 1024 768"><desc>SVG generated by Keynote</desc><defs></defs><g transform="matrix(1.00, 0.00, -0.00, -1.00, 0.0, 768.0)"><path d="M 0.0 768.0 L 1024.0 768.0 L 1024.0 0.0 L 0.0 0.0 Z M 0.0 768.0 " fill="#DDDDDD"></path><image xlink:href="../../D0964DF0-523B-4B4A-AA01-8986950165D0/assets/9C67A5A9E51527735DE51456C8462AAC.png" width="381.00" height="541.00" transform="matrix(1.20, 0.00, -0.00, -1.20, 196.0, 769.0)"></image><text xml:space="preserve" font-family="ArialMT" font-size="58.0" fill="#878787" transform="matrix(1.00, 0.00, -0.00, -1.00, 903.2, 15.5)">1</text><text xml:space="preserve" font-family="ArialMT" font-size="58.0" fill="#878787" transform="matrix(1.00, 0.00, -0.00, -1.00, 935.4, 15.5)">7</text><path d="M 0.0 0.0 L 87.1 0.0 " fill="none" stroke="#F4F243" stroke-width="4.00" transform="matrix(-0.92, -0.38, -0.38, 0.92, 317.5, 426.0)"></path><image xlink:href="../../D0964DF0-523B-4B4A-AA01-8986950165D0/assets/F7A5481E1B6FB1AACD0F7DF4285CA13F.png" width="339.00" height="380.00" transform="matrix(1.00, 0.00, -0.00, -1.00, 684.0, 627.0)"></image><text xml:space="preserve" font-family="Helvetica-Bold" font-weight="bold" font-size="47.0" fill="#B96EDB" transform="matrix(1.00, 0.00, -0.00, -1.00, 938.0, 530.0)">?</text><text xml:space="preserve" font-family="Helvetica-Bold" font-weight="bold" font-size="47.0" fill="#B96EDB" transform="matrix(1.00, 0.00, -0.00, -1.00, 195.0, 373.0)">?</text><path d="M 0.0 0.0 L 86.7 0.0 " fill="none" stroke="#B96EDB" stroke-width="4.00" transform="matrix(-0.71, -0.71, -0.71, 0.71, 936.4, 540.6)"></path><image xlink:href="../../D6EA4DC9-F92B-4E53-9352-720026A56BA4/assets/4A55B5447384878DA944ADB099EDC59D.png" width="222.00" height="318.00" transform="matrix(1.00, 0.00, -0.00, -1.00, -4.0, 768.0)"></image></g></svg>