<?xml version="1.0" encoding="UTF-8" standalone="no"?><svg xmlns="http://www.w3.org/2000/svg" xmlns:xlink="http://www.w3.org/1999/xlink" clip-rule="evenodd" stroke-miterlimit="4.00" viewBox="0 0 1024 768"><desc>SVG generated by Keynote</desc><defs></defs><g transform="matrix(1.00, 0.00, -0.00, -1.00, 0.0, 768.0)"><path d="M 0.0 768.0 L 1024.0 768.0 L 1024.0 0.0 L 0.0 0.0 Z M 0.0 768.0 " fill="#000000"></path><text xml:space="preserve" font-family="ArialMT" font-size="58.0" fill="#878787" transform="matrix(1.00, 0.00, -0.00, -1.00, 903.2, 15.5)">4</text><text xml:space="preserve" font-family="ArialMT" font-size="58.0" fill="#878787" transform="matrix(1.00, 0.00, -0.00, -1.00, 935.4, 15.5)">8</text><g><clipPath id="clip-187"><path d="M 251.0 657.0 L 773.0 657.0 L 773.0 111.0 L 251.0 111.0 Z M 251.0 657.4 "></path></clipPath><g clip-path="url(#clip-187)"><image xlink:href="../../3E0056BE-4587-46E6-B980-9F3D089E4339/assets/5E0CA94775309D12E18BB92303B44BFD.png" width="527.00" height="548.00" transform="matrix(1.01, 0.00, -0.00, -1.01, 251.0, 657.0)"></image></g></g><text xml:space="preserve" font-family="Helvetica-Bold" font-weight="bold" font-size="47.0" fill="#B96EDB" transform="matrix(1.00, 0.00, -0.00, -1.00, 909.0, 296.0)">?</text><path d="M 0.0 0.0 L 187.4 0.0 " fill="none" stroke="#B96EDB" stroke-width="4.00" transform="matrix(-1.00, 0.00, 0.00, 1.00, 892.0, 313.7)"></path></g></svg>