<?xml version="1.0" encoding="UTF-8" standalone="no"?><svg xmlns="http://www.w3.org/2000/svg" xmlns:xlink="http://www.w3.org/1999/xlink" clip-rule="evenodd" stroke-miterlimit="4.00" viewBox="0 0 1024 768"><desc>SVG generated by Keynote</desc><defs></defs><g transform="matrix(1.00, 0.00, -0.00, -1.00, 0.0, 768.0)"><path d="M 0.0 768.0 L 1024.0 768.0 L 1024.0 0.0 L 0.0 0.0 Z M 0.0 768.0 " fill="#DDDDDD"></path><image xlink:href="A7F528AC98E496B1407FE91A007160B2.png" width="315.00" height="518.00" transform="matrix(-1.00, 0.00, 0.00, -1.00, 1023.0, 696.0)"></image><image xlink:href="0CB61F91C5CCDF6E5493050D066E6DBC.png" width="270.00" height="541.00" transform="matrix(-1.33, 0.00, 0.00, -1.33, 354.0, 778.0)"></image><image xlink:href="BBE79259120D60BC99E3465F6C398401.png" width="273.00" height="541.00" transform="matrix(-1.31, 0.00, 0.00, -1.30, 709.0, 782.0)"></image><text xml:space="preserve" font-family="Helvetica-Bold" font-weight="bold" font-size="47.0" fill="#B96EDB" transform="matrix(1.00, 0.00, -0.00, -1.00, 788.0, 470.0)">?</text><path d="M 0.0 0.0 L 72.8 0.0 " fill="none" stroke="#B96EDB" stroke-width="4.00" transform="matrix(0.98, -0.20, -0.20, -0.98, 818.4, 485.7)"></path><text xml:space="preserve" font-family="ArialMT" font-size="58.0" fill="#878787" transform="matrix(1.00, 0.00, -0.00, -1.00, 870.9, 15.5)">1</text><text xml:space="preserve" font-family="ArialMT" font-size="58.0" fill="#878787" transform="matrix(1.00, 0.00, -0.00, -1.00, 903.2, 15.5)">0</text><text xml:space="preserve" font-family="ArialMT" font-size="58.0" fill="#878787" transform="matrix(1.00, 0.00, -0.00, -1.00, 935.4, 15.5)">8</text><text xml:space="preserve" font-family="Helvetica-Bold" font-weight="bold" font-size="47.0" fill="#B96EDB" transform="matrix(1.00, 0.00, -0.00, -1.00, 336.0, 479.0)">?</text><path d="M 0.0 0.0 L 81.6 0.0 " fill="none" stroke="#F4F243" stroke-width="4.00" transform="matrix(-0.99, -0.16, -0.16, 0.99, 346.3, 493.5)"></path></g></svg>