<?xml version="1.0" encoding="UTF-8" standalone="no"?><svg xmlns="http://www.w3.org/2000/svg" xmlns:xlink="http://www.w3.org/1999/xlink" clip-rule="evenodd" stroke-miterlimit="4.00" viewBox="0 0 1024 768"><desc>SVG generated by Keynote</desc><defs></defs><g transform="matrix(1.00, 0.00, -0.00, -1.00, 0.0, 768.0)"><path d="M 0.0 768.0 L 1024.0 768.0 L 1024.0 0.0 L 0.0 0.0 Z M 0.0 768.0 " fill="#FEFFFF"></path><image xlink:href="../../4DD6F369-9B38-407F-AFEA-FDD6B01657DA/assets/58C2E32AB1C1D7DCE85DA76DBF9BFA55.png" width="527.00" height="541.00" transform="matrix(1.29, 0.00, -0.00, -1.29, 144.0, 721.0)"></image><text xml:space="preserve" font-family="ArialMT" font-size="58.0" fill="#878787" transform="matrix(1.00, 0.00, -0.00, -1.00, 903.2, 15.5)">7</text><text xml:space="preserve" font-family="ArialMT" font-size="58.0" fill="#878787" transform="matrix(1.00, 0.00, -0.00, -1.00, 935.4, 15.5)">0</text><path d="M 0.0 0.0 L 70.9 0.0 " fill="none" stroke="#000000" stroke-width="4.00" transform="matrix(0.71, 0.70, 0.70, -0.71, 485.0, 34.1)"></path><text xml:space="preserve" font-family="Helvetica-Bold" font-weight="bold" font-size="36.0" fill="#000000" transform="matrix(1.00, 0.00, -0.00, -1.00, 345.0, 16.0)">R</text><text xml:space="preserve" font-family="Helvetica-Bold" font-weight="bold" font-size="36.0" fill="#000000" transform="matrix(1.00, 0.00, -0.00, -1.00, 371.0, 16.0)">e</text><text xml:space="preserve" font-family="Helvetica-Bold" font-weight="bold" font-size="36.0" fill="#000000" transform="matrix(1.00, 0.00, -0.00, -1.00, 391.0, 16.0)">l</text><text xml:space="preserve" font-family="Helvetica-Bold" font-weight="bold" font-size="36.0" fill="#000000" transform="matrix(1.00, 0.00, -0.00, -1.00, 401.0, 16.0)">i</text><text xml:space="preserve" font-family="Helvetica-Bold" font-weight="bold" font-size="36.0" fill="#000000" transform="matrix(1.00, 0.00, -0.00, -1.00, 411.0, 16.0)">e</text><text xml:space="preserve" font-family="Helvetica-Bold" font-weight="bold" font-size="36.0" fill="#000000" transform="matrix(1.00, 0.00, -0.00, -1.00, 431.1, 16.0)">f</text><text xml:space="preserve" font-family="Helvetica-Bold" font-weight="bold" font-size="36.0" fill="#000000" transform="matrix(1.00, 0.00, -0.00, -1.00, 443.0, 16.0)"> </text><text xml:space="preserve" font-family="Helvetica-Bold" font-weight="bold" font-size="36.0" fill="#000000" transform="matrix(1.00, 0.00, -0.00, -1.00, 453.0, 16.0)">?</text><image xlink:href="../../7E29E33A-366A-48F4-8306-3FD17A346CB6/assets/AEBFF78C9952F7774304BCD82DA07545.png" width="296.00" height="150.00" transform="matrix(0.97, -0.23, -0.23, -0.97, 523.7, 209.4)" opacity="0.50"></image><path d="M 244.1 20.5 C 299.9 47.8 299.9 92.0 244.1 119.3 C 188.2 146.6 97.7 146.6 41.9 119.3 C -14.0 92.0 -14.0 47.8 41.9 20.5 C 97.7 -6.8 188.2 -6.8 244.1 20.5 Z M 244.1 20.5 " fill="none" stroke="#000000" stroke-width="4.00" transform="matrix(0.97, -0.23, -0.23, -0.97, 527.4, 205.4)"></path></g></svg>