<?xml version="1.0" encoding="UTF-8" standalone="no"?><svg xmlns="http://www.w3.org/2000/svg" xmlns:xlink="http://www.w3.org/1999/xlink" clip-rule="evenodd" stroke-miterlimit="4.00" viewBox="0 0 1024 768"><desc>SVG generated by Keynote</desc><defs></defs><g transform="matrix(1.00, 0.00, -0.00, -1.00, 0.0, 768.0)"><path d="M 0.0 768.0 L 1024.0 768.0 L 1024.0 0.0 L 0.0 0.0 Z M 0.0 768.0 " fill="#000000"></path><image xlink:href="../../D034C651-F17F-4871-B3DB-87D95B2E2BA0/assets/2FE617CCB6B5C0166A61CC083228DF7E.png" width="300.00" height="347.00" transform="matrix(1.58, 0.00, -0.00, -1.58, 263.0, 669.0)"></image><text xml:space="preserve" font-family="ArialMT" font-size="58.0" fill="#878787" transform="matrix(1.00, 0.00, -0.00, -1.00, 903.2, 15.5)">6</text><text xml:space="preserve" font-family="ArialMT" font-size="58.0" fill="#878787" transform="matrix(1.00, 0.00, -0.00, -1.00, 935.4, 15.5)">4</text><text xml:space="preserve" font-family="Helvetica-Bold" font-weight="bold" font-size="36.0" fill="#000000" transform="matrix(1.00, 0.00, -0.00, -1.00, 430.0, 496.0)">?</text><path d="M 0.0 0.0 L 23.3 0.0 " fill="none" stroke="#000000" stroke-width="4.00" transform="matrix(0.63, -0.78, -0.78, -0.63, 451.4, 504.6)"></path><image xlink:href="../../D034C651-F17F-4871-B3DB-87D95B2E2BA0/assets/12805CBFF92675A3E6F8B708DB8335AE.png" width="201.00" height="174.00" transform="matrix(1.00, 0.00, -0.00, -1.00, 14.0, 742.0)"></image></g></svg>