<?xml version="1.0" encoding="UTF-8" standalone="no"?><svg xmlns="http://www.w3.org/2000/svg" xmlns:xlink="http://www.w3.org/1999/xlink" clip-rule="evenodd" stroke-miterlimit="4.00" viewBox="0 0 1024 768"><desc>SVG generated by Keynote</desc><defs></defs><g transform="matrix(1.00, 0.00, -0.00, -1.00, 0.0, 768.0)"><path d="M 0.0 768.0 L 1024.0 768.0 L 1024.0 0.0 L 0.0 0.0 Z M 0.0 768.0 " fill="#DDDDDD"></path><image xlink:href="078252D743AA7BC4A81B0CE8D99560D3.png" width="327.00" height="540.00" transform="matrix(1.29, 0.00, -0.00, -1.29, 197.0, 768.0)"></image><text xml:space="preserve" font-family="ArialMT" font-size="58.0" fill="#878787" transform="matrix(1.00, 0.00, -0.00, -1.00, 903.2, 15.5)">1</text><text xml:space="preserve" font-family="ArialMT" font-size="58.0" fill="#878787" transform="matrix(1.00, 0.00, -0.00, -1.00, 935.4, 15.5)">4</text><text xml:space="preserve" font-family="Helvetica-Bold" font-weight="bold" font-size="47.0" fill="#B96EDB" transform="matrix(1.00, 0.00, -0.00, -1.00, 552.0, 527.0)">?</text><image xlink:href="938FFA6646EC574B0CD160684F8F1455.png" width="297.00" height="326.00" transform="matrix(1.00, 0.00, -0.00, -1.00, 681.0, 516.0)"></image><path d="M 0.0 0.0 L 145.4 0.0 " fill="none" stroke="#F4F243" stroke-width="4.00" transform="matrix(-0.51, -0.86, -0.86, 0.51, 552.4, 532.3)"></path><text xml:space="preserve" font-family="Helvetica-Bold" font-weight="bold" font-size="47.0" fill="#B96EDB" transform="matrix(1.00, 0.00, -0.00, -1.00, 928.0, 506.0)">?</text><path d="M 0.0 0.0 L 126.5 0.0 " fill="none" stroke="#B96EDB" stroke-width="4.00" transform="matrix(-0.58, -0.81, -0.81, 0.58, 926.0, 511.6)"></path><image xlink:href="../../D6EA4DC9-F92B-4E53-9352-720026A56BA4/assets/4A55B5447384878DA944ADB099EDC59D.png" width="222.00" height="318.00" transform="matrix(1.00, 0.00, -0.00, -1.00, -4.0, 769.0)"></image></g></svg>