<?xml version="1.0" encoding="UTF-8" standalone="no"?><svg xmlns="http://www.w3.org/2000/svg" xmlns:xlink="http://www.w3.org/1999/xlink" clip-rule="evenodd" stroke-miterlimit="4.00" viewBox="0 0 1024 768"><desc>SVG generated by Keynote</desc><defs></defs><g transform="matrix(1.00, 0.00, -0.00, -1.00, 0.0, 768.0)"><path d="M 0.0 768.0 L 1024.0 768.0 L 1024.0 0.0 L 0.0 0.0 Z M 0.0 768.0 " fill="#DDDDDD"></path><text xml:space="preserve" font-family="ArialMT" font-size="58.0" fill="#878787" transform="matrix(1.00, 0.00, -0.00, -1.00, 935.4, 15.5)">2</text><g><clipPath id="clip-4"><path d="M 30.2 658.4 L 287.1 658.4 L 287.1 737.9 L 30.2 737.9 Z M 30.2 658.4 "></path></clipPath><g clip-path="url(#clip-4)"><text xml:space="preserve" font-family="Helvetica-Bold" font-weight="bold" font-size="47.0" fill="#B96EDB" transform="matrix(1.00, 0.00, -0.00, -1.00, 42.0, 681.0)">G</text><text xml:space="preserve" font-family="Helvetica-Bold" font-weight="bold" font-size="47.0" fill="#B96EDB" transform="matrix(1.00, 0.00, -0.00, -1.00, 78.5, 681.0)">R</text><text xml:space="preserve" font-family="Helvetica-Bold" font-weight="bold" font-size="47.0" fill="#B96EDB" transform="matrix(1.00, 0.00, -0.00, -1.00, 112.5, 681.0)">O</text><text xml:space="preserve" font-family="Helvetica-Bold" font-weight="bold" font-size="47.0" fill="#B96EDB" transform="matrix(1.00, 0.00, -0.00, -1.00, 149.0, 681.0)">U</text><text xml:space="preserve" font-family="Helvetica-Bold" font-weight="bold" font-size="47.0" fill="#B96EDB" transform="matrix(1.00, 0.00, -0.00, -1.00, 183.0, 681.0)">P</text><text xml:space="preserve" font-family="Helvetica-Bold" font-weight="bold" font-size="47.0" fill="#B96EDB" transform="matrix(1.00, 0.00, -0.00, -1.00, 214.3, 681.0)">E</text><text xml:space="preserve" font-family="Helvetica-Bold" font-weight="bold" font-size="47.0" fill="#B96EDB" transform="matrix(1.00, 0.00, -0.00, -1.00, 245.7, 681.0)">?</text></g></g><g><clipPath id="clip-5"><path d="M 248.6 671.4 L 44.0 671.4 L 44.0 677.4 L 248.6 677.4 Z M 248.6 671.4 "></path></clipPath><g clip-path="url(#clip-5)"><path d="M 0.0 0.0 L 202.6 0.0 " fill="none" stroke="#F4F243" stroke-width="4.00" transform="matrix(-1.00, 0.00, 0.00, 1.00, 247.6, 674.4)"></path></g></g><image xlink:href="../../77CA4C05-27C6-4880-BD54-3A2D0E5B61D0/assets/92ADEC1BE5839565041F88891C60927C.png" width="312.00" height="540.00" transform="matrix(1.43, 0.00, -0.00, -1.42, 322.0, 713.0)"></image></g></svg>