<?xml version="1.0" encoding="UTF-8" standalone="no"?><svg xmlns="http://www.w3.org/2000/svg" xmlns:xlink="http://www.w3.org/1999/xlink" clip-rule="evenodd" stroke-miterlimit="4.00" viewBox="0 0 1024 768"><desc>SVG generated by Keynote</desc><defs></defs><g transform="matrix(1.00, 0.00, -0.00, -1.00, 0.0, 768.0)"><path d="M 0.0 768.0 L 1024.0 768.0 L 1024.0 0.0 L 0.0 0.0 Z M 0.0 768.0 " fill="#000000"></path><text xml:space="preserve" font-family="ArialMT" font-size="58.0" fill="#878787" transform="matrix(1.00, 0.00, -0.00, -1.00, 903.2, 15.5)">9</text><text xml:space="preserve" font-family="ArialMT" font-size="58.0" fill="#878787" transform="matrix(1.00, 0.00, -0.00, -1.00, 935.4, 15.5)">6</text><text xml:space="preserve" font-family="TimesNewRomanPSMT" font-size="62.0" fill="#FFFFFF" transform="matrix(1.00, 0.00, -0.00, -1.00, 401.0, 652.0)">R</text><text xml:space="preserve" font-family="TimesNewRomanPSMT" font-size="62.0" fill="#FFFFFF" transform="matrix(1.00, 0.00, -0.00, -1.00, 442.4, 652.0)">é</text><text xml:space="preserve" font-family="TimesNewRomanPSMT" font-size="62.0" fill="#FFFFFF" transform="matrix(1.00, 0.00, -0.00, -1.00, 469.9, 652.0)">g</text><text xml:space="preserve" font-family="TimesNewRomanPSMT" font-size="62.0" fill="#FFFFFF" transform="matrix(1.00, 0.00, -0.00, -1.00, 500.9, 652.0)">i</text><text xml:space="preserve" font-family="TimesNewRomanPSMT" font-size="62.0" fill="#FFFFFF" transform="matrix(1.00, 0.00, -0.00, -1.00, 518.1, 652.0)">o</text><text xml:space="preserve" font-family="TimesNewRomanPSMT" font-size="62.0" fill="#FFFFFF" transform="matrix(1.00, 0.00, -0.00, -1.00, 549.1, 652.0)">n</text><text xml:space="preserve" font-family="TimesNewRomanPSMT" font-size="62.0" fill="#FFFFFF" transform="matrix(1.00, 0.00, -0.00, -1.00, 580.1, 652.0)"> </text><text xml:space="preserve" font-family="TimesNewRomanPSMT" font-size="62.0" fill="#FFFFFF" transform="matrix(1.00, 0.00, -0.00, -1.00, 595.6, 652.0)">?</text><image xlink:href="E5AC1F81EC414025B8E8291339BC6C88.jpeg" width="168.00" height="209.00" transform="matrix(1.96, 0.00, -0.00, -1.98, 347.0, 544.0)"></image></g></svg>