<?xml version="1.0" encoding="UTF-8" standalone="no"?><svg xmlns="http://www.w3.org/2000/svg" xmlns:xlink="http://www.w3.org/1999/xlink" clip-rule="evenodd" stroke-miterlimit="4.00" viewBox="0 0 1024 768"><desc>SVG generated by Keynote</desc><defs></defs><g transform="matrix(1.00, 0.00, -0.00, -1.00, 0.0, 768.0)"><path d="M 0.0 768.0 L 1024.0 768.0 L 1024.0 0.0 L 0.0 0.0 Z M 0.0 768.0 " fill="#DDDDDD"></path><image xlink:href="D49AC4DBA24AB2A5F2BEC2BA6333CAFB.png" width="271.00" height="540.00" transform="matrix(-1.32, 0.00, 0.00, -1.32, 356.0, 768.0)"></image><text xml:space="preserve" font-family="ArialMT" font-size="58.0" fill="#878787" transform="matrix(1.00, 0.00, -0.00, -1.00, 875.2, 15.5)">1</text><text xml:space="preserve" font-family="ArialMT" font-size="58.0" fill="#878787" transform="matrix(1.00, 0.00, -0.00, -1.00, 903.2, 15.5)">1</text><text xml:space="preserve" font-family="ArialMT" font-size="58.0" fill="#878787" transform="matrix(1.00, 0.00, -0.00, -1.00, 935.4, 15.5)">5</text><text xml:space="preserve" font-family="Helvetica-Bold" font-weight="bold" font-size="47.0" fill="#B96EDB" transform="matrix(1.00, 0.00, -0.00, -1.00, 241.0, 437.0)">?</text><path d="M 0.0 0.0 L 95.6 0.0 " fill="none" stroke="#F4F243" stroke-width="4.00" transform="matrix(-0.99, -0.16, -0.16, 0.99, 251.3, 451.8)"></path><image xlink:href="3388E77CC4E6CD161487D80BF6A59822.png" width="276.00" height="540.00" transform="matrix(-1.32, 0.00, 0.00, -1.32, 713.0, 768.0)"></image><image xlink:href="0EC17B26F25E091E0A30794D54276694.png" width="295.00" height="541.00" transform="matrix(-1.06, 0.00, 0.00, -1.06, 1016.0, 736.0)"></image><text xml:space="preserve" font-family="Helvetica-Bold" font-weight="bold" font-size="47.0" fill="#B96EDB" transform="matrix(1.00, 0.00, -0.00, -1.00, 738.0, 450.0)">?</text><path d="M 0.0 0.0 L 72.8 0.0 " fill="none" stroke="#B96EDB" stroke-width="4.00" transform="matrix(0.98, -0.20, -0.20, -0.98, 773.0, 461.5)"></path></g></svg>