<?xml version="1.0" encoding="UTF-8" standalone="no"?><svg xmlns="http://www.w3.org/2000/svg" xmlns:xlink="http://www.w3.org/1999/xlink" clip-rule="evenodd" stroke-miterlimit="4.00" viewBox="0 0 1024 768"><desc>SVG generated by Keynote</desc><defs></defs><g transform="matrix(1.00, 0.00, -0.00, -1.00, 0.0, 768.0)"><path d="M 0.0 768.0 L 1024.0 768.0 L 1024.0 0.0 L 0.0 0.0 Z M 0.0 768.0 " fill="#DDDDDD"></path><image xlink:href="C5D02351DB9A4BA4EE376CC16C2A9CE1.png" width="285.00" height="541.00" transform="matrix(-1.27, 0.00, 0.00, -1.27, 391.0, 771.0)"></image><text xml:space="preserve" font-family="ArialMT" font-size="58.0" fill="#878787" transform="matrix(1.00, 0.00, -0.00, -1.00, 903.2, 15.5)">8</text><text xml:space="preserve" font-family="ArialMT" font-size="58.0" fill="#878787" transform="matrix(1.00, 0.00, -0.00, -1.00, 935.4, 15.5)">3</text><text xml:space="preserve" font-family="Helvetica-Bold" font-weight="bold" font-size="47.0" fill="#B96EDB" transform="matrix(1.00, 0.00, -0.00, -1.00, 290.0, 503.0)">?</text><image xlink:href="9C5C914E86A2DBC8A7F62AFD97332ABA.png" width="248.00" height="541.00" transform="matrix(-1.24, 0.00, 0.00, -1.23, 1021.0, 771.0)"></image><path d="M 0.0 0.0 L 117.7 0.0 " fill="none" stroke="#F4F243" stroke-width="4.00" transform="matrix(-0.94, 0.34, 0.34, 0.94, 285.1, 524.9)"></path><text xml:space="preserve" font-family="Helvetica-Bold" font-weight="bold" font-size="47.0" fill="#B96EDB" transform="matrix(1.00, 0.00, -0.00, -1.00, 914.0, 518.0)">?</text><path d="M 0.0 0.0 L 81.0 0.0 " fill="none" stroke="#B96EDB" stroke-width="4.00" transform="matrix(-0.92, 0.40, 0.40, 0.92, 907.9, 535.3)"></path><image xlink:href="AEF4C7714078BF461DBCC1CDF5E2EC6E.png" width="268.00" height="541.00" transform="matrix(-1.26, 0.00, 0.00, -1.26, 718.0, 773.0)"></image></g></svg>