<?xml version="1.0" encoding="UTF-8" standalone="no"?><svg xmlns="http://www.w3.org/2000/svg" xmlns:xlink="http://www.w3.org/1999/xlink" clip-rule="evenodd" stroke-miterlimit="4.00" viewBox="0 0 1024 768"><desc>SVG generated by Keynote</desc><defs></defs><g transform="matrix(1.00, 0.00, -0.00, -1.00, 0.0, 768.0)"><path d="M 0.0 768.0 L 1024.0 768.0 L 1024.0 0.0 L 0.0 0.0 Z M 0.0 768.0 " fill="#000000"></path><g><clipPath id="clip-28"><path d="M 348.0 726.0 L 652.0 726.0 L 652.0 32.0 L 348.0 32.0 Z M 347.7 725.6 "></path></clipPath><g clip-path="url(#clip-28)"><image xlink:href="87C56EC4D8161EB9E903D8E22749A9EF.png" width="204.00" height="540.00" transform="matrix(1.49, 0.00, -0.00, -1.49, 348.0, 838.0)"></image></g></g><text xml:space="preserve" font-family="ArialMT" font-size="58.0" fill="#878787" transform="matrix(1.00, 0.00, -0.00, -1.00, 903.2, 15.5)">4</text><text xml:space="preserve" font-family="ArialMT" font-size="58.0" fill="#878787" transform="matrix(1.00, 0.00, -0.00, -1.00, 935.4, 15.5)">5</text><text xml:space="preserve" font-family="Helvetica-Bold" font-weight="bold" font-size="36.0" fill="#53D4B2" transform="matrix(1.00, 0.00, -0.00, -1.00, 587.0, 371.0)">?</text><path d="M 0.0 0.0 L 90.9 0.0 " fill="none" stroke="#53D4B2" stroke-width="4.00" transform="matrix(1.00, 0.00, 0.00, -1.00, 490.9, 382.8)"></path></g></svg>