<?xml version="1.0" encoding="UTF-8" standalone="no"?><svg xmlns="http://www.w3.org/2000/svg" xmlns:xlink="http://www.w3.org/1999/xlink" clip-rule="evenodd" stroke-miterlimit="4.00" viewBox="0 0 1024 768"><desc>SVG generated by Keynote</desc><defs></defs><g transform="matrix(1.00, 0.00, -0.00, -1.00, 0.0, 768.0)"><path d="M 0.0 768.0 L 1024.0 768.0 L 1024.0 0.0 L 0.0 0.0 Z M 0.0 768.0 " fill="#FEFFFF"></path><text xml:space="preserve" font-family="ArialMT" font-size="58.0" fill="#878787" transform="matrix(1.00, 0.00, -0.00, -1.00, 870.9, 15.5)">1</text><text xml:space="preserve" font-family="ArialMT" font-size="58.0" fill="#878787" transform="matrix(1.00, 0.00, -0.00, -1.00, 903.2, 15.5)">2</text><text xml:space="preserve" font-family="ArialMT" font-size="58.0" fill="#878787" transform="matrix(1.00, 0.00, -0.00, -1.00, 935.4, 15.5)">4</text><text xml:space="preserve" font-family="Helvetica-Bold" font-weight="bold" font-size="36.0" fill="#000000" transform="matrix(1.00, 0.00, -0.00, -1.00, 312.0, 584.0)">?</text><g><clipPath id="clip-234"><path d="M 409.0 611.0 L 615.0 611.0 L 615.0 136.0 L 409.0 136.0 Z M 409.3 611.0 "></path></clipPath><g clip-path="url(#clip-234)"><image xlink:href="../../A106136A-53EC-4344-82BB-5B985F48CE10/assets/BE65FBB4A7D3A2EA5A89978614F4B8C1.jpeg" width="1257.00" height="746.00" transform="matrix(0.64, 0.00, -0.00, -0.64, 336.0, 611.0)"></image></g></g><g><clipPath id="clip-235"><path d="M 768.0 629.0 L 964.0 629.0 L 964.0 509.0 L 768.0 509.0 Z M 767.8 629.1 "></path></clipPath><g clip-path="url(#clip-235)"><image xlink:href="../../A106136A-53EC-4344-82BB-5B985F48CE10/assets/BE65FBB4A7D3A2EA5A89978614F4B8C1.jpeg" width="1257.00" height="746.00" transform="matrix(1.00, 0.00, -0.00, -1.00, 768.0, 1256.0)"></image></g></g><path d="M 364.9 206.6 L 464.9 206.6 L 464.9 106.6 L 364.9 106.6 Z M 364.9 206.6 " fill="#FEFFFF"></path><path d="M 0.0 0.0 L 94.7 0.0 " fill="none" stroke="#000000" stroke-width="4.00" transform="matrix(-0.99, 0.12, 0.12, 0.99, 431.9, 581.1)"></path><path d="M 14.8 0.0 L 16.8 0.0 L 52.7 0.0 " fill="none" stroke="#000000" stroke-width="4.00" stroke-dasharray="4.0, 4.0" transform="matrix(0.00, 1.00, 1.00, 0.00, 892.0, 598.3)"></path><path d="M 883.6 615.1 L 892.0 598.3 L 900.4 615.1 Z M 883.6 615.1 " fill="#000000"></path></g></svg>