<?xml version="1.0" encoding="UTF-8" standalone="no"?><svg xmlns="http://www.w3.org/2000/svg" xmlns:xlink="http://www.w3.org/1999/xlink" clip-rule="evenodd" stroke-miterlimit="4.00" viewBox="0 0 1024 768"><desc>SVG generated by Keynote</desc><defs></defs><g transform="matrix(1.00, 0.00, -0.00, -1.00, 0.0, 768.0)"><path d="M 0.0 768.0 L 1024.0 768.0 L 1024.0 0.0 L 0.0 0.0 Z M 0.0 768.0 " fill="#FEFFFF"></path><image xlink:href="B4A8C1F9DB2470A1DBF44B0A69372613.png" width="174.00" height="540.00" transform="matrix(1.39, 0.00, -0.00, -1.39, 348.0, 767.0)"></image><text xml:space="preserve" font-family="ArialMT" font-size="58.0" fill="#878787" transform="matrix(1.00, 0.00, -0.00, -1.00, 903.2, 15.5)">2</text><text xml:space="preserve" font-family="ArialMT" font-size="58.0" fill="#878787" transform="matrix(1.00, 0.00, -0.00, -1.00, 935.4, 15.5)">5</text><text xml:space="preserve" font-family="Helvetica-Bold" font-weight="bold" font-size="36.0" fill="#000000" transform="matrix(1.00, 0.00, -0.00, -1.00, 682.0, 679.0)">R</text><text xml:space="preserve" font-family="Helvetica-Bold" font-weight="bold" font-size="36.0" fill="#000000" transform="matrix(1.00, 0.00, -0.00, -1.00, 708.0, 679.0)">e</text><text xml:space="preserve" font-family="Helvetica-Bold" font-weight="bold" font-size="36.0" fill="#000000" transform="matrix(1.00, 0.00, -0.00, -1.00, 728.0, 679.0)">l</text><text xml:space="preserve" font-family="Helvetica-Bold" font-weight="bold" font-size="36.0" fill="#000000" transform="matrix(1.00, 0.00, -0.00, -1.00, 738.0, 679.0)">i</text><text xml:space="preserve" font-family="Helvetica-Bold" font-weight="bold" font-size="36.0" fill="#000000" transform="matrix(1.00, 0.00, -0.00, -1.00, 748.0, 679.0)">e</text><text xml:space="preserve" font-family="Helvetica-Bold" font-weight="bold" font-size="36.0" fill="#000000" transform="matrix(1.00, 0.00, -0.00, -1.00, 768.1, 679.0)">f</text><text xml:space="preserve" font-family="Helvetica-Bold" font-weight="bold" font-size="36.0" fill="#000000" transform="matrix(1.00, 0.00, -0.00, -1.00, 780.0, 679.0)">?</text><path d="M 0.0 0.0 L 116.6 0.0 " fill="none" stroke="#000000" stroke-width="4.00" transform="matrix(-1.00, 0.00, 0.00, 1.00, 673.4, 692.5)"></path><text xml:space="preserve" font-family="Helvetica-Bold" font-weight="bold" font-size="36.0" fill="#000000" transform="matrix(1.00, 0.00, -0.00, -1.00, 677.0, 434.0)">R</text><text xml:space="preserve" font-family="Helvetica-Bold" font-weight="bold" font-size="36.0" fill="#000000" transform="matrix(1.00, 0.00, -0.00, -1.00, 703.0, 434.0)">e</text><text xml:space="preserve" font-family="Helvetica-Bold" font-weight="bold" font-size="36.0" fill="#000000" transform="matrix(1.00, 0.00, -0.00, -1.00, 723.0, 434.0)">l</text><text xml:space="preserve" font-family="Helvetica-Bold" font-weight="bold" font-size="36.0" fill="#000000" transform="matrix(1.00, 0.00, -0.00, -1.00, 733.0, 434.0)">i</text><text xml:space="preserve" font-family="Helvetica-Bold" font-weight="bold" font-size="36.0" fill="#000000" transform="matrix(1.00, 0.00, -0.00, -1.00, 743.0, 434.0)">e</text><text xml:space="preserve" font-family="Helvetica-Bold" font-weight="bold" font-size="36.0" fill="#000000" transform="matrix(1.00, 0.00, -0.00, -1.00, 763.1, 434.0)">f</text><text xml:space="preserve" font-family="Helvetica-Bold" font-weight="bold" font-size="36.0" fill="#000000" transform="matrix(1.00, 0.00, -0.00, -1.00, 775.0, 434.0)">?</text><path d="M 0.0 0.0 L 116.6 0.0 " fill="none" stroke="#000000" stroke-width="4.00" transform="matrix(-1.00, 0.00, 0.00, 1.00, 668.9, 446.8)"></path><text xml:space="preserve" font-family="Helvetica-Bold" font-weight="bold" font-size="36.0" fill="#000000" transform="matrix(1.00, 0.00, -0.00, -1.00, 673.0, 188.0)">R</text><text xml:space="preserve" font-family="Helvetica-Bold" font-weight="bold" font-size="36.0" fill="#000000" transform="matrix(1.00, 0.00, -0.00, -1.00, 699.0, 188.0)">e</text><text xml:space="preserve" font-family="Helvetica-Bold" font-weight="bold" font-size="36.0" fill="#000000" transform="matrix(1.00, 0.00, -0.00, -1.00, 719.0, 188.0)">l</text><text xml:space="preserve" font-family="Helvetica-Bold" font-weight="bold" font-size="36.0" fill="#000000" transform="matrix(1.00, 0.00, -0.00, -1.00, 729.0, 188.0)">i</text><text xml:space="preserve" font-family="Helvetica-Bold" font-weight="bold" font-size="36.0" fill="#000000" transform="matrix(1.00, 0.00, -0.00, -1.00, 739.0, 188.0)">e</text><text xml:space="preserve" font-family="Helvetica-Bold" font-weight="bold" font-size="36.0" fill="#000000" transform="matrix(1.00, 0.00, -0.00, -1.00, 759.1, 188.0)">f</text><text xml:space="preserve" font-family="Helvetica-Bold" font-weight="bold" font-size="36.0" fill="#000000" transform="matrix(1.00, 0.00, -0.00, -1.00, 771.0, 188.0)">?</text><path d="M 0.0 0.0 L 165.8 0.0 " fill="none" stroke="#000000" stroke-width="4.00" transform="matrix(-1.00, 0.00, 0.00, 1.00, 664.3, 201.0)"></path><text xml:space="preserve" font-family="Helvetica-Bold" font-weight="bold" font-size="17.0" fill="#000000" transform="matrix(1.00, 0.00, -0.00, -1.00, 421.0, 6.0)">V</text><text xml:space="preserve" font-family="Helvetica-Bold" font-weight="bold" font-size="17.0" fill="#000000" transform="matrix(1.00, 0.00, -0.00, -1.00, 431.7, 6.0)">u</text><text xml:space="preserve" font-family="Helvetica-Bold" font-weight="bold" font-size="17.0" fill="#000000" transform="matrix(1.00, 0.00, -0.00, -1.00, 442.1, 6.0)">e</text><text xml:space="preserve" font-family="Helvetica-Bold" font-weight="bold" font-size="17.0" fill="#000000" transform="matrix(1.00, 0.00, -0.00, -1.00, 451.6, 6.0)"> </text><text xml:space="preserve" font-family="Helvetica-Bold" font-weight="bold" font-size="17.0" fill="#000000" transform="matrix(1.00, 0.00, -0.00, -1.00, 456.3, 6.0)">l</text><text xml:space="preserve" font-family="Helvetica-Bold" font-weight="bold" font-size="17.0" fill="#000000" transform="matrix(1.00, 0.00, -0.00, -1.00, 461.0, 6.0)">a</text><text xml:space="preserve" font-family="Helvetica-Bold" font-weight="bold" font-size="17.0" fill="#000000" transform="matrix(1.00, 0.00, -0.00, -1.00, 470.5, 6.0)">t</text><text xml:space="preserve" font-family="Helvetica-Bold" font-weight="bold" font-size="17.0" fill="#000000" transform="matrix(1.00, 0.00, -0.00, -1.00, 476.1, 6.0)">é</text><text xml:space="preserve" font-family="Helvetica-Bold" font-weight="bold" font-size="17.0" fill="#000000" transform="matrix(1.00, 0.00, -0.00, -1.00, 485.6, 6.0)">r</text><text xml:space="preserve" font-family="Helvetica-Bold" font-weight="bold" font-size="17.0" fill="#000000" transform="matrix(1.00, 0.00, -0.00, -1.00, 492.2, 6.0)">a</text><text xml:space="preserve" font-family="Helvetica-Bold" font-weight="bold" font-size="17.0" fill="#000000" transform="matrix(1.00, 0.00, -0.00, -1.00, 501.6, 6.0)">l</text><text xml:space="preserve" font-family="Helvetica-Bold" font-weight="bold" font-size="17.0" fill="#000000" transform="matrix(1.00, 0.00, -0.00, -1.00, 506.4, 6.0)">e</text><text xml:space="preserve" font-family="Helvetica-Bold" font-weight="bold" font-size="17.0" fill="#000000" transform="matrix(1.00, 0.00, -0.00, -1.00, 407.0, 512.0)">V</text><text xml:space="preserve" font-family="Helvetica-Bold" font-weight="bold" font-size="17.0" fill="#000000" transform="matrix(1.00, 0.00, -0.00, -1.00, 417.7, 512.0)">u</text><text xml:space="preserve" font-family="Helvetica-Bold" font-weight="bold" font-size="17.0" fill="#000000" transform="matrix(1.00, 0.00, -0.00, -1.00, 428.1, 512.0)">e</text><text xml:space="preserve" font-family="Helvetica-Bold" font-weight="bold" font-size="17.0" fill="#000000" transform="matrix(1.00, 0.00, -0.00, -1.00, 437.6, 512.0)"> </text><text xml:space="preserve" font-family="Helvetica-Bold" font-weight="bold" font-size="17.0" fill="#000000" transform="matrix(1.00, 0.00, -0.00, -1.00, 442.3, 512.0)">s</text><text xml:space="preserve" font-family="Helvetica-Bold" font-weight="bold" font-size="17.0" fill="#000000" transform="matrix(1.00, 0.00, -0.00, -1.00, 451.7, 512.0)">u</text><text xml:space="preserve" font-family="Helvetica-Bold" font-weight="bold" font-size="17.0" fill="#000000" transform="matrix(1.00, 0.00, -0.00, -1.00, 462.1, 512.0)">p</text><text xml:space="preserve" font-family="Helvetica-Bold" font-weight="bold" font-size="17.0" fill="#000000" transform="matrix(1.00, 0.00, -0.00, -1.00, 472.5, 512.0)">é</text><text xml:space="preserve" font-family="Helvetica-Bold" font-weight="bold" font-size="17.0" fill="#000000" transform="matrix(1.00, 0.00, -0.00, -1.00, 481.9, 512.0)">r</text><text xml:space="preserve" font-family="Helvetica-Bold" font-weight="bold" font-size="17.0" fill="#000000" transform="matrix(1.00, 0.00, -0.00, -1.00, 488.6, 512.0)">i</text><text xml:space="preserve" font-family="Helvetica-Bold" font-weight="bold" font-size="17.0" fill="#000000" transform="matrix(1.00, 0.00, -0.00, -1.00, 493.3, 512.0)">e</text><text xml:space="preserve" font-family="Helvetica-Bold" font-weight="bold" font-size="17.0" fill="#000000" transform="matrix(1.00, 0.00, -0.00, -1.00, 502.7, 512.0)">u</text><text xml:space="preserve" font-family="Helvetica-Bold" font-weight="bold" font-size="17.0" fill="#000000" transform="matrix(1.00, 0.00, -0.00, -1.00, 513.1, 512.0)">r</text><text xml:space="preserve" font-family="Helvetica-Bold" font-weight="bold" font-size="17.0" fill="#000000" transform="matrix(1.00, 0.00, -0.00, -1.00, 519.7, 512.0)">e</text><text xml:space="preserve" font-family="Helvetica-Bold" font-weight="bold" font-size="17.0" fill="#000000" transform="matrix(1.00, 0.00, -0.00, -1.00, 404.0, 259.0)">V</text><text xml:space="preserve" font-family="Helvetica-Bold" font-weight="bold" font-size="17.0" fill="#000000" transform="matrix(1.00, 0.00, -0.00, -1.00, 414.7, 259.0)">u</text><text xml:space="preserve" font-family="Helvetica-Bold" font-weight="bold" font-size="17.0" fill="#000000" transform="matrix(1.00, 0.00, -0.00, -1.00, 425.1, 259.0)">e</text><text xml:space="preserve" font-family="Helvetica-Bold" font-weight="bold" font-size="17.0" fill="#000000" transform="matrix(1.00, 0.00, -0.00, -1.00, 434.6, 259.0)"> </text><text xml:space="preserve" font-family="Helvetica-Bold" font-weight="bold" font-size="17.0" fill="#000000" transform="matrix(1.00, 0.00, -0.00, -1.00, 439.3, 259.0)">p</text><text xml:space="preserve" font-family="Helvetica-Bold" font-weight="bold" font-size="17.0" fill="#000000" transform="matrix(1.00, 0.00, -0.00, -1.00, 449.7, 259.0)">o</text><text xml:space="preserve" font-family="Helvetica-Bold" font-weight="bold" font-size="17.0" fill="#000000" transform="matrix(1.00, 0.00, -0.00, -1.00, 460.0, 259.0)">s</text><text xml:space="preserve" font-family="Helvetica-Bold" font-weight="bold" font-size="17.0" fill="#000000" transform="matrix(1.00, 0.00, -0.00, -1.00, 469.5, 259.0)">t</text><text xml:space="preserve" font-family="Helvetica-Bold" font-weight="bold" font-size="17.0" fill="#000000" transform="matrix(1.00, 0.00, -0.00, -1.00, 475.2, 259.0)">é</text><text xml:space="preserve" font-family="Helvetica-Bold" font-weight="bold" font-size="17.0" fill="#000000" transform="matrix(1.00, 0.00, -0.00, -1.00, 484.6, 259.0)">r</text><text xml:space="preserve" font-family="Helvetica-Bold" font-weight="bold" font-size="17.0" fill="#000000" transform="matrix(1.00, 0.00, -0.00, -1.00, 491.2, 259.0)">i</text><text xml:space="preserve" font-family="Helvetica-Bold" font-weight="bold" font-size="17.0" fill="#000000" transform="matrix(1.00, 0.00, -0.00, -1.00, 496.0, 259.0)">e</text><text xml:space="preserve" font-family="Helvetica-Bold" font-weight="bold" font-size="17.0" fill="#000000" transform="matrix(1.00, 0.00, -0.00, -1.00, 505.4, 259.0)">u</text><text xml:space="preserve" font-family="Helvetica-Bold" font-weight="bold" font-size="17.0" fill="#000000" transform="matrix(1.00, 0.00, -0.00, -1.00, 515.8, 259.0)">r</text><text xml:space="preserve" font-family="Helvetica-Bold" font-weight="bold" font-size="17.0" fill="#000000" transform="matrix(1.00, 0.00, -0.00, -1.00, 522.4, 259.0)">e</text><path d="M 0.0 0.0 L 105.0 0.0 " fill="none" stroke="#000000" stroke-width="4.00" transform="matrix(-0.64, -0.77, -0.77, 0.64, 619.6, 446.5)"></path><path d="M 0.0 0.0 L 132.1 0.0 " fill="none" stroke="#000000" stroke-width="4.00" transform="matrix(-0.91, -0.42, -0.42, 0.91, 618.1, 201.1)"></path><path d="M 0.0 0.0 L 169.7 0.0 " fill="none" stroke="#000000" stroke-width="4.00" transform="matrix(-0.71, -0.71, -0.71, 0.71, 615.7, 199.8)"></path></g></svg>