<?xml version="1.0" encoding="UTF-8" standalone="no"?><svg xmlns="http://www.w3.org/2000/svg" xmlns:xlink="http://www.w3.org/1999/xlink" clip-rule="evenodd" stroke-miterlimit="4.00" viewBox="0 0 1024 768"><desc>SVG generated by Keynote</desc><defs></defs><g transform="matrix(1.00, 0.00, -0.00, -1.00, 0.0, 768.0)"><path d="M 0.0 768.0 L 1024.0 768.0 L 1024.0 0.0 L 0.0 0.0 Z M 0.0 768.0 " fill="#DDDDDD"></path><text xml:space="preserve" font-family="ArialMT" font-size="58.0" fill="#878787" transform="matrix(1.00, 0.00, -0.00, -1.00, 874.3, 15.5)">1</text><text xml:space="preserve" font-family="ArialMT" font-size="58.0" fill="#878787" transform="matrix(1.00, 0.00, -0.00, -1.00, 902.2, 15.5)">1</text><text xml:space="preserve" font-family="ArialMT" font-size="58.0" fill="#878787" transform="matrix(1.00, 0.00, -0.00, -1.00, 934.5, 15.5)">3</text><g><clipPath id="clip-212"><path d="M 1011.0 446.0 L 752.0 446.0 L 752.0 168.0 L 1011.0 168.0 Z M 1011.0 446.0 "></path></clipPath><g clip-path="url(#clip-212)"><image xlink:href="../../27686514-479B-482A-8CAF-E02791836182/assets/BFD644E6EE226CAE023C8BED2EABB803.png" width="236.00" height="454.00" transform="matrix(-1.00, 0.00, 0.00, -1.00, 999.0, 611.0)"></image></g></g><g><clipPath id="clip-213"><path d="M 1013.0 753.0 L 748.0 753.0 L 748.0 475.0 L 1013.0 475.0 Z M 1012.7 752.6 "></path></clipPath><g clip-path="url(#clip-213)"><image xlink:href="../../27686514-479B-482A-8CAF-E02791836182/assets/B2E3C502E5D141CAEE122F11EC82A4A2.png" width="265.00" height="445.00" transform="matrix(-1.00, 0.00, 0.00, -1.00, 1013.0, 906.0)"></image></g></g><image xlink:href="../../FFACBCCE-E3FB-4BCA-8570-ECC8896484DE/assets/8A242FBE5A7A27E0F3B237F944434D2D.png" width="277.00" height="293.00" transform="matrix(1.00, 0.00, -0.00, -1.00, 741.5, 758.0)" opacity="0.50"></image><path d="M 0.0 0.0 L 264.4 0.0 L 264.4 280.4 L 0.0 280.4 Z M 0.0 0.0 " fill="none" stroke="#912623" stroke-width="7.00" transform="matrix(1.00, 0.00, 0.00, -1.00, 748.0, 753.5)"></path><image xlink:href="../../FFACBCCE-E3FB-4BCA-8570-ECC8896484DE/assets/85509769F90E1BD4B1C1DFF883FEAD53.png" width="277.00" height="293.00" transform="matrix(1.00, 0.00, -0.00, -1.00, 741.6, 451.6)" opacity="0.50"></image><path d="M 0.0 0.0 L 264.4 0.0 L 264.4 280.0 L 0.0 280.0 Z M 0.0 0.0 " fill="none" stroke="#3F508D" stroke-width="7.00" transform="matrix(1.00, 0.00, 0.00, -1.00, 748.1, 447.1)"></path><image xlink:href="../../6887F6BC-13BB-4042-8066-F5975FD4D80E/assets/2321582B71CA062A5141B2E936B449F3.png" width="233.00" height="444.00" transform="matrix(-1.00, 0.00, 0.00, -1.00, 674.0, 715.0)"></image><text xml:space="preserve" font-family="Helvetica-Bold" font-weight="bold" font-size="47.0" fill="#B96EDB" transform="matrix(1.00, 0.00, -0.00, -1.00, 625.0, 330.0)">?</text><image xlink:href="../../6887F6BC-13BB-4042-8066-F5975FD4D80E/assets/B66E9D07C7FB6C60018343EDC795C35C.png" width="268.00" height="541.00" transform="matrix(-1.29, 0.00, 0.00, -1.28, 361.0, 775.0)"></image><path d="M 0.0 0.0 L 72.8 0.0 " fill="none" stroke="#B96EDB" stroke-width="4.00" transform="matrix(0.98, -0.20, -0.20, -0.98, 543.1, 363.3)"></path><text xml:space="preserve" font-family="Helvetica-Bold" font-weight="bold" font-size="47.0" fill="#B96EDB" transform="matrix(1.00, 0.00, -0.00, -1.00, 300.0, 367.0)">?</text><path d="M 0.0 0.0 L 81.6 0.0 " fill="none" stroke="#F4F243" stroke-width="4.00" transform="matrix(-0.99, -0.16, -0.16, 0.99, 310.2, 381.6)"></path></g></svg>