<?xml version="1.0" encoding="UTF-8" standalone="no"?><svg xmlns="http://www.w3.org/2000/svg" xmlns:xlink="http://www.w3.org/1999/xlink" clip-rule="evenodd" stroke-miterlimit="4.00" viewBox="0 0 1024 768"><desc>SVG generated by Keynote</desc><defs></defs><g transform="matrix(1.00, 0.00, -0.00, -1.00, 0.0, 768.0)"><path d="M 0.0 768.0 L 1024.0 768.0 L 1024.0 0.0 L 0.0 0.0 Z M 0.0 768.0 " fill="#DDDDDD"></path><image xlink:href="A33D958D1A7B6D7639BC4800B4BBB58A.png" width="207.00" height="540.00" transform="matrix(-1.35, 0.00, 0.00, -1.34, 938.0, 768.0)"></image><text xml:space="preserve" font-family="ArialMT" font-size="58.0" fill="#878787" transform="matrix(1.00, 0.00, -0.00, -1.00, 903.2, 15.5)">7</text><text xml:space="preserve" font-family="ArialMT" font-size="58.0" fill="#878787" transform="matrix(1.00, 0.00, -0.00, -1.00, 935.4, 15.5)">2</text><image xlink:href="33910E9688A6D06542D1BC2FCE343C95.png" width="224.00" height="540.00" transform="matrix(-1.35, 0.00, 0.00, -1.34, 328.0, 769.0)"></image><text xml:space="preserve" font-family="Helvetica-Bold" font-weight="bold" font-size="47.0" fill="#B96EDB" transform="matrix(1.00, 0.00, -0.00, -1.00, 948.0, 473.0)">?</text><path d="M 0.0 0.0 L 54.8 0.0 " fill="none" stroke="#B96EDB" stroke-width="4.00" transform="matrix(-0.94, 0.35, 0.35, 0.94, 942.1, 490.6)"></path><text xml:space="preserve" font-family="Helvetica-Bold" font-weight="bold" font-size="47.0" fill="#B96EDB" transform="matrix(1.00, 0.00, -0.00, -1.00, 277.0, 304.0)">?</text><path d="M 0.0 0.0 L 63.1 0.0 " fill="none" stroke="#F4F243" stroke-width="4.00" transform="matrix(-0.95, 0.32, 0.32, 0.95, 271.8, 325.6)"></path><image xlink:href="D7BA5461013047C5E22153B23E688D8B.png" width="219.00" height="540.00" transform="matrix(-1.35, 0.00, 0.00, -1.34, 641.0, 768.0)"></image></g></svg>