<?xml version="1.0" encoding="UTF-8" standalone="no"?><svg xmlns="http://www.w3.org/2000/svg" xmlns:xlink="http://www.w3.org/1999/xlink" clip-rule="evenodd" stroke-miterlimit="4.00" viewBox="0 0 1024 768"><desc>SVG generated by Keynote</desc><defs></defs><g transform="matrix(1.00, 0.00, -0.00, -1.00, 0.0, 768.0)"><path d="M 0.0 768.0 L 1024.0 768.0 L 1024.0 0.0 L 0.0 0.0 Z M 0.0 768.0 " fill="#FEFFFF"></path><g><clipPath id="clip-182"><path d="M 150.0 810.0 L 782.0 810.0 L 782.0 93.0 L 150.0 93.0 Z M 149.6 809.8 "></path></clipPath><g clip-path="url(#clip-182)"><image xlink:href="../../72E69C12-F147-4586-81A1-70AD4FC5C488/assets/F146DB08C902074FB2FA3068F7F08D32.jpeg" width="1069.00" height="627.00" transform="matrix(1.49, 0.00, -0.00, -1.49, 150.0, 810.0)"></image></g></g><text xml:space="preserve" font-family="ArialMT" font-size="58.0" fill="#878787" transform="matrix(1.00, 0.00, -0.00, -1.00, 870.9, 15.5)">1</text><text xml:space="preserve" font-family="ArialMT" font-size="58.0" fill="#878787" transform="matrix(1.00, 0.00, -0.00, -1.00, 903.2, 15.5)">8</text><text xml:space="preserve" font-family="ArialMT" font-size="58.0" fill="#878787" transform="matrix(1.00, 0.00, -0.00, -1.00, 935.4, 15.5)">8</text><text xml:space="preserve" font-family="Helvetica-Bold" font-weight="bold" font-size="36.0" fill="#000000" transform="matrix(1.00, 0.00, -0.00, -1.00, 760.0, 237.0)">?</text><path d="M 0.0 0.0 L 134.5 0.0 " fill="none" stroke="#000000" stroke-width="4.00" transform="matrix(-0.98, -0.18, -0.18, 0.98, 745.0, 249.2)"></path></g></svg>