<?xml version="1.0" encoding="UTF-8" standalone="no"?><svg xmlns="http://www.w3.org/2000/svg" xmlns:xlink="http://www.w3.org/1999/xlink" clip-rule="evenodd" stroke-miterlimit="4.00" viewBox="0 0 1024 768"><desc>SVG generated by Keynote</desc><defs></defs><g transform="matrix(1.00, 0.00, -0.00, -1.00, 0.0, 768.0)"><path d="M 0.0 768.0 L 1024.0 768.0 L 1024.0 0.0 L 0.0 0.0 Z M 0.0 768.0 " fill="#000000"></path><text xml:space="preserve" font-family="ArialMT" font-size="58.0" fill="#878787" transform="matrix(1.00, 0.00, -0.00, -1.00, 870.9, 15.5)">1</text><text xml:space="preserve" font-family="ArialMT" font-size="58.0" fill="#878787" transform="matrix(1.00, 0.00, -0.00, -1.00, 903.2, 15.5)">8</text><text xml:space="preserve" font-family="ArialMT" font-size="58.0" fill="#878787" transform="matrix(1.00, 0.00, -0.00, -1.00, 935.4, 15.5)">1</text><image xlink:href="../../676BFB82-9C05-4700-ADEB-039BC0FE23E0/assets/847C8072A4AD8B7376EF0EA44D23FB50.jpeg" width="313.00" height="360.00" transform="matrix(1.64, 0.00, -0.00, -1.64, 258.0, 679.0)"></image><text xml:space="preserve" font-family="Helvetica-Bold" font-weight="bold" font-size="36.0" fill="#000000" transform="matrix(1.00, 0.00, -0.00, -1.00, 346.0, 249.0)">S</text><text xml:space="preserve" font-family="Helvetica-Bold" font-weight="bold" font-size="36.0" fill="#000000" transform="matrix(1.00, 0.00, -0.00, -1.00, 370.0, 249.0)">t</text><text xml:space="preserve" font-family="Helvetica-Bold" font-weight="bold" font-size="36.0" fill="#000000" transform="matrix(1.00, 0.00, -0.00, -1.00, 382.0, 249.0)">r</text><text xml:space="preserve" font-family="Helvetica-Bold" font-weight="bold" font-size="36.0" fill="#000000" transform="matrix(1.00, 0.00, -0.00, -1.00, 396.0, 249.0)">u</text><text xml:space="preserve" font-family="Helvetica-Bold" font-weight="bold" font-size="36.0" fill="#000000" transform="matrix(1.00, 0.00, -0.00, -1.00, 418.0, 249.0)">c</text><text xml:space="preserve" font-family="Helvetica-Bold" font-weight="bold" font-size="36.0" fill="#000000" transform="matrix(1.00, 0.00, -0.00, -1.00, 438.0, 249.0)">t</text><text xml:space="preserve" font-family="Helvetica-Bold" font-weight="bold" font-size="36.0" fill="#000000" transform="matrix(1.00, 0.00, -0.00, -1.00, 450.0, 249.0)">u</text><text xml:space="preserve" font-family="Helvetica-Bold" font-weight="bold" font-size="36.0" fill="#000000" transform="matrix(1.00, 0.00, -0.00, -1.00, 472.0, 249.0)">r</text><text xml:space="preserve" font-family="Helvetica-Bold" font-weight="bold" font-size="36.0" fill="#000000" transform="matrix(1.00, 0.00, -0.00, -1.00, 486.0, 249.0)">e</text><text xml:space="preserve" font-family="Helvetica-Bold" font-weight="bold" font-size="36.0" fill="#000000" transform="matrix(1.00, 0.00, -0.00, -1.00, 506.0, 249.0)">?</text><path d="M 0.0 0.0 L 217.4 0.0 " fill="none" stroke="#000000" stroke-width="4.00" transform="matrix(-0.27, -0.96, -0.96, 0.27, 449.4, 503.1)"></path><image xlink:href="../../6D260374-3B64-4C3D-A009-F7D50487CEAC/assets/12805CBFF92675A3E6F8B708DB8335AE.png" width="201.00" height="174.00" transform="matrix(1.00, 0.00, -0.00, -1.00, 14.0, 742.0)"></image></g></svg>