<?xml version="1.0" encoding="UTF-8" standalone="no"?><svg xmlns="http://www.w3.org/2000/svg" xmlns:xlink="http://www.w3.org/1999/xlink" clip-rule="evenodd" stroke-miterlimit="4.00" viewBox="0 0 1024 768"><desc>SVG generated by Keynote</desc><defs></defs><g transform="matrix(1.00, 0.00, -0.00, -1.00, 0.0, 768.0)"><path d="M 0.0 768.0 L 1024.0 768.0 L 1024.0 0.0 L 0.0 0.0 Z M 0.0 768.0 " fill="#DDDDDD"></path><image xlink:href="A7FB380871922E7922FFDF4818D9F97F.png" width="190.00" height="541.00" transform="matrix(-1.02, 0.00, 0.00, -1.02, 947.0, 768.0)"></image><text xml:space="preserve" font-family="ArialMT" font-size="58.0" fill="#878787" transform="matrix(1.00, 0.00, -0.00, -1.00, 903.2, 15.5)">5</text><text xml:space="preserve" font-family="ArialMT" font-size="58.0" fill="#878787" transform="matrix(1.00, 0.00, -0.00, -1.00, 935.4, 15.5)">3</text><text xml:space="preserve" font-family="Helvetica-Bold" font-weight="bold" font-size="47.0" fill="#B96EDB" transform="matrix(1.00, 0.00, -0.00, -1.00, 930.0, 426.0)">?</text><image xlink:href="BF6731A08C7C424D6955C00F52881F1C.png" width="225.00" height="541.00" transform="matrix(-1.36, 0.00, 0.00, -1.35, 641.0, 772.0)"></image><image xlink:href="56C82B77AB00ECFEE1CB4271173A5FF2.png" width="223.00" height="541.00" transform="matrix(-1.35, 0.00, 0.00, -1.35, 324.0, 772.0)"></image><path d="M 0.0 0.0 L 96.0 0.0 " fill="none" stroke="#B96EDB" stroke-width="4.00" transform="matrix(-0.92, 0.39, 0.39, 0.92, 925.9, 443.2)"></path><text xml:space="preserve" font-family="Helvetica-Bold" font-weight="bold" font-size="47.0" fill="#B96EDB" transform="matrix(1.00, 0.00, -0.00, -1.00, 364.0, 492.0)">?</text><path d="M 0.0 0.0 L 155.2 0.0 " fill="none" stroke="#F4F243" stroke-width="4.00" transform="matrix(-0.95, 0.32, 0.32, 0.95, 359.1, 513.5)"></path></g></svg>