<?xml version="1.0" encoding="UTF-8" standalone="no"?><svg xmlns="http://www.w3.org/2000/svg" xmlns:xlink="http://www.w3.org/1999/xlink" clip-rule="evenodd" stroke-miterlimit="4.00" viewBox="0 0 1024 768"><desc>SVG generated by Keynote</desc><defs></defs><g transform="matrix(1.00, 0.00, -0.00, -1.00, 0.0, 768.0)"><path d="M 0.0 768.0 L 1024.0 768.0 L 1024.0 0.0 L 0.0 0.0 Z M 0.0 768.0 " fill="#000000"></path><g><clipPath id="clip-203"><path d="M 448.0 702.0 L 606.0 702.0 L 606.0 66.0 L 448.0 66.0 Z M 448.3 702.3 "></path></clipPath><g clip-path="url(#clip-203)"><image xlink:href="../../CA7517BA-E474-4C27-BC63-0FBA44B5FDF4/assets/CCBF5850C92963E9BA6FF819A35558C6.png" width="262.00" height="552.00" transform="matrix(1.15, 0.00, -0.00, -1.15, 296.0, 702.0)"></image></g></g><text xml:space="preserve" font-family="ArialMT" font-size="58.0" fill="#878787" transform="matrix(1.00, 0.00, -0.00, -1.00, 903.2, 15.5)">8</text><text xml:space="preserve" font-family="ArialMT" font-size="58.0" fill="#878787" transform="matrix(1.00, 0.00, -0.00, -1.00, 935.4, 15.5)">8</text><text xml:space="preserve" font-family="Helvetica-Bold" font-weight="bold" font-size="36.0" fill="#53D4B2" transform="matrix(1.00, 0.00, -0.00, -1.00, 664.0, 408.0)">?</text><path d="M 0.0 0.0 L 90.9 0.0 " fill="none" stroke="#53D4B2" stroke-width="4.00" transform="matrix(1.00, 0.00, 0.00, -1.00, 572.0, 420.9)"></path></g></svg>