<?xml version="1.0" encoding="UTF-8" standalone="no"?><svg xmlns="http://www.w3.org/2000/svg" xmlns:xlink="http://www.w3.org/1999/xlink" clip-rule="evenodd" stroke-miterlimit="4.00" viewBox="0 0 1024 768"><desc>SVG generated by Keynote</desc><defs></defs><g transform="matrix(1.00, 0.00, -0.00, -1.00, 0.0, 768.0)"><path d="M 0.0 768.0 L 1024.0 768.0 L 1024.0 0.0 L 0.0 0.0 Z M 0.0 768.0 " fill="#000000"></path><g><clipPath id="clip-24"><path d="M 267.0 758.0 L 757.0 758.0 L 757.0 10.0 L 267.0 10.0 Z M 267.4 758.3 "></path></clipPath><g clip-path="url(#clip-24)"><image xlink:href="../../38A29B66-8901-49C6-BA23-E2E6A0AF6F98/assets/4F93C335271515C8D755F353E115E854.png" width="360.00" height="540.00" transform="matrix(1.42, 0.00, -0.00, -1.42, 256.0, 768.0)"></image></g></g><text xml:space="preserve" font-family="ArialMT" font-size="58.0" fill="#878787" transform="matrix(1.00, 0.00, -0.00, -1.00, 903.2, 15.5)">3</text><text xml:space="preserve" font-family="ArialMT" font-size="58.0" fill="#878787" transform="matrix(1.00, 0.00, -0.00, -1.00, 935.4, 15.5)">3</text><path d="M 0.0 0.0 L 87.4 0.0 " fill="none" stroke="#FEFFFE" stroke-width="4.00" transform="matrix(1.00, 0.00, 0.00, -1.00, 464.1, 308.3)"></path><text xml:space="preserve" font-family="Helvetica-Bold" font-weight="bold" font-size="36.0" fill="#000000" transform="matrix(1.00, 0.00, -0.00, -1.00, 313.0, 333.0)">C</text><text xml:space="preserve" font-family="Helvetica-Bold" font-weight="bold" font-size="36.0" fill="#000000" transform="matrix(1.00, 0.00, -0.00, -1.00, 339.0, 333.0)">a</text><text xml:space="preserve" font-family="Helvetica-Bold" font-weight="bold" font-size="36.0" fill="#000000" transform="matrix(1.00, 0.00, -0.00, -1.00, 359.0, 333.0)">v</text><text xml:space="preserve" font-family="Helvetica-Bold" font-weight="bold" font-size="36.0" fill="#000000" transform="matrix(1.00, 0.00, -0.00, -1.00, 379.1, 333.0)">i</text><text xml:space="preserve" font-family="Helvetica-Bold" font-weight="bold" font-size="36.0" fill="#000000" transform="matrix(1.00, 0.00, -0.00, -1.00, 389.1, 333.0)">t</text><text xml:space="preserve" font-family="Helvetica-Bold" font-weight="bold" font-size="36.0" fill="#000000" transform="matrix(1.00, 0.00, -0.00, -1.00, 401.0, 333.0)">é</text><text xml:space="preserve" font-family="Helvetica-Bold" font-weight="bold" font-size="36.0" fill="#000000" transform="matrix(1.00, 0.00, -0.00, -1.00, 421.1, 333.0)">?</text><path d="M 0.0 0.0 L 114.6 0.0 " fill="none" stroke="#FEFFFE" stroke-width="4.00" transform="matrix(0.00, -1.00, -1.00, 0.00, 503.6, 386.9)"></path><path d="M 0.0 0.0 L 34.4 0.0 " fill="none" stroke="#000000" stroke-width="4.00" transform="matrix(0.96, -0.28, -0.28, -0.96, 446.0, 339.1)"></path></g></svg>