<?xml version="1.0" encoding="UTF-8" standalone="no"?><svg xmlns="http://www.w3.org/2000/svg" xmlns:xlink="http://www.w3.org/1999/xlink" clip-rule="evenodd" stroke-miterlimit="4.00" viewBox="0 0 1024 768"><desc>SVG generated by Keynote</desc><defs></defs><g transform="matrix(1.00, 0.00, -0.00, -1.00, 0.0, 768.0)"><path d="M 0.0 768.0 L 1024.0 768.0 L 1024.0 0.0 L 0.0 0.0 Z M 0.0 768.0 " fill="#000000"></path><text xml:space="preserve" font-family="ArialMT" font-size="58.0" fill="#878787" transform="matrix(1.00, 0.00, -0.00, -1.00, 903.2, 15.5)">1</text><text xml:space="preserve" font-family="ArialMT" font-size="58.0" fill="#878787" transform="matrix(1.00, 0.00, -0.00, -1.00, 935.4, 15.5)">3</text><text xml:space="preserve" font-family="Helvetica-Bold" font-weight="bold" font-size="36.0" fill="#53D4B2" transform="matrix(1.00, 0.00, -0.00, -1.00, 319.0, 441.0)">?</text><path d="M 0.0 0.0 L 116.3 0.0 " fill="none" stroke="#53D4B2" stroke-width="4.00" transform="matrix(-0.96, 0.28, 0.28, 0.96, 455.5, 415.7)"></path><g><clipPath id="clip-11"><path d="M 291.0 730.0 L 795.0 730.0 L 795.0 38.0 L 291.0 38.0 Z M 290.8 730.0 "></path></clipPath><g clip-path="url(#clip-11)"><image xlink:href="../../0FA4BF69-FFCC-4919-81C7-4297AE4234A3/assets/47A2A8397AD846C3641C6AEEE662D240.png" width="416.00" height="540.00" transform="matrix(1.28, 0.00, -0.00, -1.28, 261.0, 730.0)"></image></g></g><text xml:space="preserve" font-family="Helvetica-Bold" font-weight="bold" font-size="36.0" fill="#53D4B2" transform="matrix(1.00, 0.00, -0.00, -1.00, 683.0, 433.0)">?</text><path d="M 0.0 0.0 L 64.9 0.0 " fill="none" stroke="#53D4B2" stroke-width="4.00" transform="matrix(-0.96, -0.27, -0.27, 0.96, 678.2, 440.8)"></path></g></svg>