<?xml version="1.0" encoding="UTF-8" standalone="no"?><svg xmlns="http://www.w3.org/2000/svg" xmlns:xlink="http://www.w3.org/1999/xlink" clip-rule="evenodd" stroke-miterlimit="4.00" viewBox="0 0 1024 768"><desc>SVG generated by Keynote</desc><defs></defs><g transform="matrix(1.00, 0.00, -0.00, -1.00, 0.0, 768.0)"><path d="M 0.0 768.0 L 1024.0 768.0 L 1024.0 0.0 L 0.0 0.0 Z M 0.0 768.0 " fill="#000000"></path><g><clipPath id="clip-107"><path d="M 257.0 798.0 L 669.0 798.0 L 669.0 20.0 L 257.0 20.0 Z M 257.4 798.3 "></path></clipPath><g clip-path="url(#clip-107)"><image xlink:href="../../D3C19052-7D5A-4A34-8237-F0ADDD36576D/assets/FAA65AB2476B55B57F3CF91CDE3AB56C.png" width="584.00" height="576.00" transform="matrix(1.35, 0.00, -0.00, -1.35, 257.0, 798.0)"></image></g></g><text xml:space="preserve" font-family="ArialMT" font-size="58.0" fill="#878787" transform="matrix(1.00, 0.00, -0.00, -1.00, 903.2, 15.5)">7</text><text xml:space="preserve" font-family="ArialMT" font-size="58.0" fill="#878787" transform="matrix(1.00, 0.00, -0.00, -1.00, 935.4, 15.5)">6</text><text xml:space="preserve" font-family="Helvetica-Bold" font-weight="bold" font-size="36.0" fill="#53D4B2" transform="matrix(1.00, 0.00, -0.00, -1.00, 667.0, 625.0)">?</text><path d="M 0.0 0.0 L 116.3 0.0 " fill="none" stroke="#53D4B2" stroke-width="4.00" transform="matrix(-0.96, -0.28, -0.28, 0.96, 659.7, 632.7)"></path></g></svg>