<?xml version="1.0" encoding="UTF-8" standalone="no"?><svg xmlns="http://www.w3.org/2000/svg" xmlns:xlink="http://www.w3.org/1999/xlink" clip-rule="evenodd" stroke-miterlimit="4.00" viewBox="0 0 1024 768"><desc>SVG generated by Keynote</desc><defs></defs><g transform="matrix(1.00, 0.00, -0.00, -1.00, 0.0, 768.0)"><path d="M 0.0 768.0 L 1024.0 768.0 L 1024.0 0.0 L 0.0 0.0 Z M 0.0 768.0 " fill="#000000"></path><text xml:space="preserve" font-family="ArialMT" font-size="58.0" fill="#878787" transform="matrix(1.00, 0.00, -0.00, -1.00, 935.4, 15.5)">4</text><g><clipPath id="clip-61"><path d="M 455.0 568.0 L 1004.0 568.0 L 1004.0 405.0 L 455.0 405.0 Z M 454.6 567.6 "></path></clipPath><g clip-path="url(#clip-61)"><image xlink:href="../../AFE383E6-257D-4F63-A7A8-7F1143481183/assets/7C233BA68882CDEBF70DFDDEA68ED4C9.png" width="961.00" height="540.00" transform="matrix(1.47, 0.00, -0.00, -1.48, -3.0, 904.0)"></image></g></g><path d="M 0.0 0.0 L 92.6 0.0 " fill="none" stroke="#E46DC8" stroke-width="4.00" transform="matrix(-0.86, 0.51, 0.51, 0.86, 506.7, 541.4)"></path><text xml:space="preserve" font-family="Helvetica-Bold" font-weight="bold" font-size="36.0" fill="#E46DC8" transform="matrix(1.00, 0.00, -0.00, -1.00, 252.0, 577.0)">R</text><text xml:space="preserve" font-family="Helvetica-Bold" font-weight="bold" font-size="36.0" fill="#E46DC8" transform="matrix(1.00, 0.00, -0.00, -1.00, 278.0, 577.0)">E</text><text xml:space="preserve" font-family="Helvetica-Bold" font-weight="bold" font-size="36.0" fill="#E46DC8" transform="matrix(1.00, 0.00, -0.00, -1.00, 302.0, 577.0)">L</text><text xml:space="preserve" font-family="Helvetica-Bold" font-weight="bold" font-size="36.0" fill="#E46DC8" transform="matrix(1.00, 0.00, -0.00, -1.00, 324.0, 577.0)">I</text><text xml:space="preserve" font-family="Helvetica-Bold" font-weight="bold" font-size="36.0" fill="#E46DC8" transform="matrix(1.00, 0.00, -0.00, -1.00, 334.0, 577.0)">E</text><text xml:space="preserve" font-family="Helvetica-Bold" font-weight="bold" font-size="36.0" fill="#E46DC8" transform="matrix(1.00, 0.00, -0.00, -1.00, 358.0, 577.0)">F</text><text xml:space="preserve" font-family="Helvetica-Bold" font-weight="bold" font-size="36.0" fill="#E46DC8" transform="matrix(1.00, 0.00, -0.00, -1.00, 380.0, 577.0)"> </text><text xml:space="preserve" font-family="Helvetica-Bold" font-weight="bold" font-size="36.0" fill="#E46DC8" transform="matrix(1.00, 0.00, -0.00, -1.00, 390.0, 577.0)">?</text><image xlink:href="../../AFE383E6-257D-4F63-A7A8-7F1143481183/assets/69BBF635F9A413ED29CE565DE3B26283.png" width="420.00" height="500.00" transform="matrix(1.00, 0.00, -0.00, -1.00, 5.0, 501.0)"></image><image xlink:href="../../AFE383E6-257D-4F63-A7A8-7F1143481183/assets/748923372DBB820FD3D9F72B64B76270.png" width="511.00" height="290.00" transform="matrix(1.00, 0.00, -0.00, -1.00, 458.0, 431.0)"></image><text xml:space="preserve" font-family="Helvetica-Light" font-size="36.0" fill="#FEFFFE" transform="matrix(1.00, 0.00, -0.00, -1.00, 608.0, 148.0)">V</text><text xml:space="preserve" font-family="Helvetica-Light" font-size="36.0" fill="#FEFFFE" transform="matrix(1.00, 0.00, -0.00, -1.00, 628.7, 148.0)">u</text><text xml:space="preserve" font-family="Helvetica-Light" font-size="36.0" fill="#FEFFFE" transform="matrix(1.00, 0.00, -0.00, -1.00, 648.7, 148.0)">e</text><text xml:space="preserve" font-family="Helvetica-Light" font-size="36.0" fill="#FEFFFE" transform="matrix(1.00, 0.00, -0.00, -1.00, 668.7, 148.0)"> </text><text xml:space="preserve" font-family="Helvetica-Light" font-size="36.0" fill="#FEFFFE" transform="matrix(1.00, 0.00, -0.00, -1.00, 678.7, 148.0)">s</text><text xml:space="preserve" font-family="Helvetica-Light" font-size="36.0" fill="#FEFFFE" transform="matrix(1.00, 0.00, -0.00, -1.00, 696.7, 148.0)">u</text><text xml:space="preserve" font-family="Helvetica-Light" font-size="36.0" fill="#FEFFFE" transform="matrix(1.00, 0.00, -0.00, -1.00, 716.7, 148.0)">p</text><text xml:space="preserve" font-family="Helvetica-Light" font-size="36.0" fill="#FEFFFE" transform="matrix(1.00, 0.00, -0.00, -1.00, 738.7, 148.0)">é</text><text xml:space="preserve" font-family="Helvetica-Light" font-size="36.0" fill="#FEFFFE" transform="matrix(1.00, 0.00, -0.00, -1.00, 758.7, 148.0)">r</text><text xml:space="preserve" font-family="Helvetica-Light" font-size="36.0" fill="#FEFFFE" transform="matrix(1.00, 0.00, -0.00, -1.00, 770.7, 148.0)">i</text><text xml:space="preserve" font-family="Helvetica-Light" font-size="36.0" fill="#FEFFFE" transform="matrix(1.00, 0.00, -0.00, -1.00, 778.7, 148.0)">e</text><text xml:space="preserve" font-family="Helvetica-Light" font-size="36.0" fill="#FEFFFE" transform="matrix(1.00, 0.00, -0.00, -1.00, 798.7, 148.0)">u</text><text xml:space="preserve" font-family="Helvetica-Light" font-size="36.0" fill="#FEFFFE" transform="matrix(1.00, 0.00, -0.00, -1.00, 818.7, 148.0)">r</text><text xml:space="preserve" font-family="Helvetica-Light" font-size="36.0" fill="#FEFFFE" transform="matrix(1.00, 0.00, -0.00, -1.00, 830.1, 148.0)">e</text></g></svg>