<?xml version="1.0" encoding="UTF-8" standalone="no"?><svg xmlns="http://www.w3.org/2000/svg" xmlns:xlink="http://www.w3.org/1999/xlink" clip-rule="evenodd" stroke-miterlimit="4.00" viewBox="0 0 1024 768"><desc>SVG generated by Keynote</desc><defs></defs><g transform="matrix(1.00, 0.00, -0.00, -1.00, 0.0, 768.0)"><path d="M 0.0 768.0 L 1024.0 768.0 L 1024.0 0.0 L 0.0 0.0 Z M 0.0 768.0 " fill="#000000"></path><g><clipPath id="clip-127"><path d="M 353.0 638.0 L 720.0 638.0 L 720.0 -113.0 L 353.0 -113.0 Z M 353.0 638.4 "></path></clipPath><g clip-path="url(#clip-127)"><image xlink:href="../../42005FB1-95E2-4A36-81E0-63D681482184/assets/2E39A99FFCE9654B0E95B4061AD09ABF.png" width="591.00" height="576.00" transform="matrix(1.30, 0.00, -0.00, -1.30, -51.0, 638.0)"></image></g></g><text xml:space="preserve" font-family="ArialMT" font-size="58.0" fill="#878787" transform="matrix(1.00, 0.00, -0.00, -1.00, 903.2, 15.5)">8</text><text xml:space="preserve" font-family="ArialMT" font-size="58.0" fill="#878787" transform="matrix(1.00, 0.00, -0.00, -1.00, 935.4, 15.5)">6</text><text xml:space="preserve" font-family="Helvetica-Bold" font-weight="bold" font-size="36.0" fill="#53D4B2" transform="matrix(1.00, 0.00, -0.00, -1.00, 699.0, 601.0)">?</text><path d="M 0.0 0.0 L 116.3 0.0 " fill="none" stroke="#53D4B2" stroke-width="4.00" transform="matrix(-0.96, -0.28, -0.28, 0.96, 674.0, 606.7)"></path></g></svg>