<?xml version="1.0" encoding="UTF-8" standalone="no"?><svg xmlns="http://www.w3.org/2000/svg" xmlns:xlink="http://www.w3.org/1999/xlink" clip-rule="evenodd" stroke-miterlimit="4.00" viewBox="0 0 1024 768"><desc>SVG generated by Keynote</desc><defs></defs><g transform="matrix(1.00, 0.00, -0.00, -1.00, 0.0, 768.0)"><path d="M 0.0 768.0 L 1024.0 768.0 L 1024.0 0.0 L 0.0 0.0 Z M 0.0 768.0 " fill="#000000"></path><text xml:space="preserve" font-family="ArialMT" font-size="58.0" fill="#878787" transform="matrix(1.00, 0.00, -0.00, -1.00, 903.2, 15.5)">7</text><text xml:space="preserve" font-family="ArialMT" font-size="58.0" fill="#878787" transform="matrix(1.00, 0.00, -0.00, -1.00, 935.4, 15.5)">5</text><g><clipPath id="clip-33"><path d="M 179.0 750.0 L 849.0 750.0 L 849.0 23.0 L 179.0 23.0 Z M 178.6 750.3 "></path></clipPath><g clip-path="url(#clip-33)"><g><clipPath id="clip-34"><path d="M 178.6 22.9 L 849.1 22.9 L 849.1 750.3 L 178.6 750.3 Z M 178.6 22.9 "></path></clipPath><g clip-path="url(#clip-34)"><image xlink:href="../../50E3CE92-4B85-4CD4-AC48-B0627AB6AB1C/assets/AEC6D55B2EBE3E480FB20B49F8F0C7EA.png" width="503.00" height="541.00" transform="matrix(1.36, 0.00, -0.00, -1.35, 171.0, 750.0)"></image></g></g></g></g><g><clipPath id="clip-35"><path d="M 173.5 17.7 L 510.0 17.7 L 510.0 199.4 L 173.5 199.4 Z M 173.5 17.7 "></path></clipPath><g clip-path="url(#clip-35)"><image xlink:href="../../50E3CE92-4B85-4CD4-AC48-B0627AB6AB1C/assets/B3EBD644AC81DE1B7343768D45E809D8.png" width="334.00" height="180.00" transform="matrix(1.00, 0.00, -0.00, -1.00, 174.5, 198.4)" opacity="0.50"></image><path d="M 177.5 197.4 L 506.0 197.4 L 506.0 23.7 L 177.5 23.7 Z M 177.5 197.4 " fill="#050E10"></path></g></g><path d="M 0.0 0.0 L 28.9 0.0 " fill="none" stroke="#000000" stroke-width="4.00" transform="matrix(-0.94, -0.34, -0.34, 0.94, 669.3, 604.0)"></path><text xml:space="preserve" font-family="Helvetica-Bold" font-weight="bold" font-size="36.0" fill="#000000" transform="matrix(1.00, 0.00, -0.00, -1.00, 683.0, 598.0)">?</text></g></svg>