<?xml version="1.0" encoding="UTF-8" standalone="no"?><svg xmlns="http://www.w3.org/2000/svg" xmlns:xlink="http://www.w3.org/1999/xlink" clip-rule="evenodd" stroke-miterlimit="4.00" viewBox="0 0 1024 768"><desc>SVG generated by Keynote</desc><defs></defs><g transform="matrix(1.00, 0.00, -0.00, -1.00, 0.0, 768.0)"><path d="M 0.0 768.0 L 1024.0 768.0 L 1024.0 0.0 L 0.0 0.0 Z M 0.0 768.0 " fill="#DDDDDD"></path><image xlink:href="../../461ABC86-4FB7-4538-BCA5-CE956818B6AD/assets/66A59A97A591301EFC5AA6CF9D155236.png" width="276.00" height="540.00" transform="matrix(-1.29, 0.00, 0.00, -1.29, 356.0, 769.0)"></image><text xml:space="preserve" font-family="ArialMT" font-size="58.0" fill="#878787" transform="matrix(1.00, 0.00, -0.00, -1.00, 875.2, 15.5)">1</text><text xml:space="preserve" font-family="ArialMT" font-size="58.0" fill="#878787" transform="matrix(1.00, 0.00, -0.00, -1.00, 903.2, 15.5)">1</text><text xml:space="preserve" font-family="ArialMT" font-size="58.0" fill="#878787" transform="matrix(1.00, 0.00, -0.00, -1.00, 935.4, 15.5)">8</text><text xml:space="preserve" font-family="Helvetica-Bold" font-weight="bold" font-size="47.0" fill="#B96EDB" transform="matrix(1.00, 0.00, -0.00, -1.00, 248.0, 437.0)">?</text><path d="M 0.0 0.0 L 103.2 0.0 " fill="none" stroke="#F4F243" stroke-width="4.00" transform="matrix(-0.98, -0.22, -0.22, 0.98, 249.4, 452.8)"></path><image xlink:href="../../461ABC86-4FB7-4538-BCA5-CE956818B6AD/assets/9CBE75A575CF88517E198F324520A0C6.png" width="336.00" height="516.00" transform="matrix(-1.00, 0.00, 0.00, -1.00, 1029.0, 712.0)"></image><text xml:space="preserve" font-family="Helvetica-Bold" font-weight="bold" font-size="47.0" fill="#B96EDB" transform="matrix(1.00, 0.00, -0.00, -1.00, 738.0, 450.0)">?</text><path d="M 0.0 0.0 L 48.1 0.0 " fill="none" stroke="#B96EDB" stroke-width="4.00" transform="matrix(0.96, -0.29, -0.29, -0.96, 773.0, 461.5)"></path><image xlink:href="../../461ABC86-4FB7-4538-BCA5-CE956818B6AD/assets/4B21E871CD3BB7C0F19D3ADA06FE8F77.png" width="275.00" height="540.00" transform="matrix(-1.29, 0.00, 0.00, -1.29, 699.0, 772.0)"></image></g></svg>