<?xml version="1.0" encoding="UTF-8" standalone="no"?><svg xmlns="http://www.w3.org/2000/svg" xmlns:xlink="http://www.w3.org/1999/xlink" clip-rule="evenodd" stroke-miterlimit="4.00" viewBox="0 0 1024 768"><desc>SVG generated by Keynote</desc><defs></defs><g transform="matrix(1.00, 0.00, -0.00, -1.00, 0.0, 768.0)"><path d="M 0.0 768.0 L 1024.0 768.0 L 1024.0 0.0 L 0.0 0.0 Z M 0.0 768.0 " fill="#000000"></path><g><clipPath id="clip-31"><path d="M 393.0 552.0 L 680.0 552.0 L 680.0 266.0 L 393.0 266.0 Z M 393.3 551.9 "></path></clipPath><g clip-path="url(#clip-31)"><image xlink:href="../../5A99570E-E561-45AF-8DB1-1868C8F6205D/assets/F3E9E40E1D232353973000D3DC51BB93.png" width="369.00" height="232.00" transform="matrix(1.23, 0.00, -0.00, -1.23, 393.0, 552.0)"></image></g></g><image xlink:href="../../5A99570E-E561-45AF-8DB1-1868C8F6205D/assets/93DB249FEC7B6B1D0724F925399BBE9A.png" width="190.00" height="266.00" transform="matrix(1.01, 0.00, -0.00, -1.00, 176.0, 542.0)"></image><text xml:space="preserve" font-family="ArialMT" font-size="58.0" fill="#878787" transform="matrix(1.00, 0.00, -0.00, -1.00, 903.2, 15.5)">3</text><text xml:space="preserve" font-family="ArialMT" font-size="58.0" fill="#878787" transform="matrix(1.00, 0.00, -0.00, -1.00, 935.4, 15.5)">4</text><text xml:space="preserve" font-family="Helvetica-Bold" font-weight="bold" font-size="36.0" fill="#53D4B2" transform="matrix(1.00, 0.00, -0.00, -1.00, 376.0, 152.0)">?</text><path d="M 0.0 0.0 L 204.8 0.0 " fill="none" stroke="#53D4B2" stroke-width="4.00" transform="matrix(-0.73, -0.69, -0.69, 0.73, 557.6, 312.1)"></path><path d="M 0.0 0.0 L 132.2 0.0 " fill="none" stroke="#53D4B2" stroke-width="4.00" transform="matrix(0.61, -0.79, -0.79, -0.61, 284.1, 275.3)"></path></g></svg>