<?xml version="1.0" encoding="UTF-8" standalone="no"?><svg xmlns="http://www.w3.org/2000/svg" xmlns:xlink="http://www.w3.org/1999/xlink" clip-rule="evenodd" stroke-miterlimit="4.00" viewBox="0 0 1024 768"><desc>SVG generated by Keynote</desc><defs></defs><g transform="matrix(1.00, 0.00, -0.00, -1.00, 0.0, 768.0)"><path d="M 0.0 768.0 L 1024.0 768.0 L 1024.0 0.0 L 0.0 0.0 Z M 0.0 768.0 " fill="#000000"></path><g><clipPath id="clip-32"><path d="M 409.0 535.0 L 646.0 535.0 L 646.0 218.0 L 409.0 218.0 Z M 408.7 534.5 "></path></clipPath><g clip-path="url(#clip-32)"><image xlink:href="35A2E156B367C85D66C6989BD95A51D1.png" width="370.00" height="256.00" transform="matrix(1.24, 0.00, -0.00, -1.24, 409.0, 534.0)"></image></g></g><image xlink:href="26C75B97FED9B14B8136F1E228D3BBD9.png" width="190.00" height="267.00" transform="matrix(1.00, 0.00, -0.00, -1.00, 154.0, 541.0)"></image><text xml:space="preserve" font-family="ArialMT" font-size="58.0" fill="#878787" transform="matrix(1.00, 0.00, -0.00, -1.00, 903.2, 15.5)">3</text><text xml:space="preserve" font-family="ArialMT" font-size="58.0" fill="#878787" transform="matrix(1.00, 0.00, -0.00, -1.00, 935.4, 15.5)">5</text><text xml:space="preserve" font-family="Helvetica-Bold" font-weight="bold" font-size="36.0" fill="#53D4B2" transform="matrix(1.00, 0.00, -0.00, -1.00, 409.0, 91.0)">?</text><path d="M 0.0 0.0 L 225.7 0.0 " fill="none" stroke="#53D4B2" stroke-width="4.00" transform="matrix(-0.66, -0.76, -0.76, 0.66, 589.6, 288.1)"></path><path d="M 0.0 0.0 L 210.8 0.0 " fill="none" stroke="#53D4B2" stroke-width="4.00" transform="matrix(0.43, -0.90, -0.90, -0.43, 308.5, 309.7)"></path></g></svg>