<?xml version="1.0" encoding="UTF-8" standalone="no"?><svg xmlns="http://www.w3.org/2000/svg" xmlns:xlink="http://www.w3.org/1999/xlink" clip-rule="evenodd" stroke-miterlimit="4.00" viewBox="0 0 1024 768"><desc>SVG generated by Keynote</desc><defs></defs><g transform="matrix(1.00, 0.00, -0.00, -1.00, 0.0, 768.0)"><path d="M 0.0 768.0 L 1024.0 768.0 L 1024.0 0.0 L 0.0 0.0 Z M 0.0 768.0 " fill="#DDDDDD"></path><text xml:space="preserve" font-family="ArialMT" font-size="58.0" fill="#878787" transform="matrix(1.00, 0.00, -0.00, -1.00, 903.2, 15.5)">6</text><text xml:space="preserve" font-family="ArialMT" font-size="58.0" fill="#878787" transform="matrix(1.00, 0.00, -0.00, -1.00, 935.4, 15.5)">4</text><text xml:space="preserve" font-family="Helvetica-Bold" font-weight="bold" font-size="61.0" fill="#912623" transform="matrix(1.00, 0.00, -0.00, -1.00, 268.0, 641.0)">O</text><text xml:space="preserve" font-family="Helvetica-Bold" font-weight="bold" font-size="61.0" fill="#B96EDB" transform="matrix(1.00, 0.00, -0.00, -1.00, 315.4, 641.0)"> </text><text xml:space="preserve" font-family="Helvetica-Bold" font-weight="bold" font-size="61.0" fill="#000000" transform="matrix(1.00, 0.00, -0.00, -1.00, 332.4, 641.0)">/</text><text xml:space="preserve" font-family="Helvetica-Bold" font-weight="bold" font-size="61.0" fill="#B96EDB" transform="matrix(1.00, 0.00, -0.00, -1.00, 349.3, 641.0)"> </text><text xml:space="preserve" font-family="Helvetica-Bold" font-weight="bold" font-size="61.0" fill="#3F508D" transform="matrix(1.00, 0.00, -0.00, -1.00, 366.3, 641.0)">I</text><text xml:space="preserve" font-family="Helvetica-Bold" font-weight="bold" font-size="61.0" fill="#B96EDB" transform="matrix(1.00, 0.00, -0.00, -1.00, 383.2, 641.0)"> </text><text xml:space="preserve" font-family="Helvetica-Bold" font-weight="bold" font-size="61.0" fill="#B96EDB" transform="matrix(1.00, 0.00, -0.00, -1.00, 400.2, 641.0)"> </text><text xml:space="preserve" font-family="Helvetica-Bold" font-weight="bold" font-size="61.0" fill="#B96EDB" transform="matrix(1.00, 0.00, -0.00, -1.00, 417.1, 641.0)">d</text><text xml:space="preserve" font-family="Helvetica-Bold" font-weight="bold" font-size="61.0" fill="#B96EDB" transform="matrix(1.00, 0.00, -0.00, -1.00, 454.4, 641.0)">u</text><text xml:space="preserve" font-family="Helvetica-Bold" font-weight="bold" font-size="61.0" fill="#B96EDB" transform="matrix(1.00, 0.00, -0.00, -1.00, 491.6, 641.0)"> </text><text xml:space="preserve" font-family="Helvetica-Bold" font-weight="bold" font-size="61.0" fill="#B96EDB" transform="matrix(1.00, 0.00, -0.00, -1.00, 508.5, 641.0)">m</text><text xml:space="preserve" font-family="Helvetica-Bold" font-weight="bold" font-size="61.0" fill="#B96EDB" transform="matrix(1.00, 0.00, -0.00, -1.00, 562.8, 641.0)">u</text><text xml:space="preserve" font-family="Helvetica-Bold" font-weight="bold" font-size="61.0" fill="#B96EDB" transform="matrix(1.00, 0.00, -0.00, -1.00, 600.0, 641.0)">s</text><text xml:space="preserve" font-family="Helvetica-Bold" font-weight="bold" font-size="61.0" fill="#B96EDB" transform="matrix(1.00, 0.00, -0.00, -1.00, 633.9, 641.0)">c</text><text xml:space="preserve" font-family="Helvetica-Bold" font-weight="bold" font-size="61.0" fill="#B96EDB" transform="matrix(1.00, 0.00, -0.00, -1.00, 667.8, 641.0)">l</text><text xml:space="preserve" font-family="Helvetica-Bold" font-weight="bold" font-size="61.0" fill="#B96EDB" transform="matrix(1.00, 0.00, -0.00, -1.00, 684.8, 641.0)">e</text><text xml:space="preserve" font-family="Helvetica-Bold" font-weight="bold" font-size="61.0" fill="#B96EDB" transform="matrix(1.00, 0.00, -0.00, -1.00, 718.7, 641.0)">?</text><g><clipPath id="clip-162"><path d="M 453.0 601.0 L -17.0 601.0 L -17.0 102.0 L 453.0 102.0 Z M 453.4 601.3 "></path></clipPath><g clip-path="url(#clip-162)"><image xlink:href="../../78676FD9-E2F5-44E0-AD86-4EF2384A7A06/assets/C872B487FCA68172F3C457A6051E235A.png" width="501.00" height="499.00" transform="matrix(-1.00, 0.00, 0.00, -1.00, 468.0, 601.0)"></image></g></g><g><clipPath id="clip-163"><path d="M 998.0 594.0 L 528.0 594.0 L 528.0 95.0 L 998.0 95.0 Z M 998.3 594.3 "></path></clipPath><g clip-path="url(#clip-163)"><image xlink:href="../../F7F16010-397C-4EE0-89B0-B107E66C00C8/assets/DF4E3A631381C55AED57C44AA24B6A7D.png" width="560.00" height="499.00" transform="matrix(-1.00, 0.00, 0.00, -1.00, 1043.0, 594.0)"></image></g></g><image xlink:href="../../A328A90B-65A5-4543-8017-6D204CDC36BD/assets/538EBDEA368875A6D9FB99C6AD072501.png" width="483.00" height="512.00" transform="matrix(1.00, 0.00, -0.00, -1.00, 521.4, 602.3)" opacity="0.50"></image><path d="M 0.0 0.0 L 470.4 0.0 L 470.4 498.8 L 0.0 498.8 Z M 0.0 0.0 " fill="none" stroke="#3F508D" stroke-width="7.00" transform="matrix(1.00, 0.00, 0.00, -1.00, 527.9, 597.8)"></path><image xlink:href="../../A328A90B-65A5-4543-8017-6D204CDC36BD/assets/538EBDEA368875A6D9FB99C6AD072501.png" width="483.00" height="512.00" transform="matrix(1.00, 0.00, -0.00, -1.00, 17.8, 602.3)" opacity="0.50"></image><path d="M 0.0 0.0 L 470.4 0.0 L 470.4 498.8 L 0.0 498.8 Z M 0.0 0.0 " fill="none" stroke="#912623" stroke-width="7.00" transform="matrix(1.00, 0.00, 0.00, -1.00, 24.3, 597.8)"></path></g></svg>