<?xml version="1.0" encoding="UTF-8" standalone="no"?><svg xmlns="http://www.w3.org/2000/svg" xmlns:xlink="http://www.w3.org/1999/xlink" clip-rule="evenodd" stroke-miterlimit="4.00" viewBox="0 0 1024 768"><desc>SVG generated by Keynote</desc><defs></defs><g transform="matrix(1.00, 0.00, -0.00, -1.00, 0.0, 768.0)"><path d="M 0.0 768.0 L 1024.0 768.0 L 1024.0 0.0 L 0.0 0.0 Z M 0.0 768.0 " fill="#DDDDDD"></path><text xml:space="preserve" font-family="ArialMT" font-size="58.0" fill="#878787" transform="matrix(1.00, 0.00, -0.00, -1.00, 903.2, 15.5)">8</text><text xml:space="preserve" font-family="ArialMT" font-size="58.0" fill="#878787" transform="matrix(1.00, 0.00, -0.00, -1.00, 935.4, 15.5)">4</text><g><clipPath id="clip-180"><path d="M 1011.0 446.0 L 752.0 446.0 L 752.0 168.0 L 1011.0 168.0 Z M 1011.0 446.0 "></path></clipPath><g clip-path="url(#clip-180)"><image xlink:href="79D5377C7E19C4E5977C0039486562B9.png" width="259.00" height="340.00" transform="matrix(-1.00, 0.00, 0.00, -1.00, 1011.0, 497.0)"></image></g></g><g><clipPath id="clip-181"><path d="M 1036.0 752.0 L 771.0 752.0 L 771.0 475.0 L 1036.0 475.0 Z M 1035.6 751.9 "></path></clipPath><g clip-path="url(#clip-181)"><image xlink:href="72C5239A2B0C57F4880FF62664B03FBD.png" width="265.00" height="541.00" transform="matrix(-1.00, 0.00, 0.00, -1.00, 1036.0, 884.0)"></image></g></g><image xlink:href="../../FFACBCCE-E3FB-4BCA-8570-ECC8896484DE/assets/8A242FBE5A7A27E0F3B237F944434D2D.png" width="277.00" height="293.00" transform="matrix(1.00, 0.00, -0.00, -1.00, 741.5, 758.0)" opacity="0.50"></image><path d="M 0.0 0.0 L 264.4 0.0 L 264.4 280.4 L 0.0 280.4 Z M 0.0 0.0 " fill="none" stroke="#912623" stroke-width="7.00" transform="matrix(1.00, 0.00, 0.00, -1.00, 748.0, 753.5)"></path><image xlink:href="../../FFACBCCE-E3FB-4BCA-8570-ECC8896484DE/assets/85509769F90E1BD4B1C1DFF883FEAD53.png" width="277.00" height="293.00" transform="matrix(1.00, 0.00, -0.00, -1.00, 741.6, 451.6)" opacity="0.50"></image><path d="M 0.0 0.0 L 264.4 0.0 L 264.4 280.0 L 0.0 280.0 Z M 0.0 0.0 " fill="none" stroke="#3F508D" stroke-width="7.00" transform="matrix(1.00, 0.00, 0.00, -1.00, 748.1, 447.1)"></path><image xlink:href="../../A59C494C-001B-474B-8902-9437FCC5CA77/assets/C5D02351DB9A4BA4EE376CC16C2A9CE1.png" width="285.00" height="541.00" transform="matrix(-1.27, 0.00, 0.00, -1.27, 391.0, 771.0)"></image><text xml:space="preserve" font-family="Helvetica-Bold" font-weight="bold" font-size="47.0" fill="#B96EDB" transform="matrix(1.00, 0.00, -0.00, -1.00, 290.0, 503.0)">?</text><image xlink:href="../../A59C494C-001B-474B-8902-9437FCC5CA77/assets/9C5C914E86A2DBC8A7F62AFD97332ABA.png" width="248.00" height="541.00" transform="matrix(-1.24, 0.00, 0.00, -1.23, 700.0, 769.0)"></image><path d="M 0.0 0.0 L 117.7 0.0 " fill="none" stroke="#F4F243" stroke-width="4.00" transform="matrix(-0.94, 0.34, 0.34, 0.94, 285.1, 524.9)"></path><text xml:space="preserve" font-family="Helvetica-Bold" font-weight="bold" font-size="47.0" fill="#B96EDB" transform="matrix(1.00, 0.00, -0.00, -1.00, 593.0, 516.0)">?</text><path d="M 0.0 0.0 L 81.0 0.0 " fill="none" stroke="#B96EDB" stroke-width="4.00" transform="matrix(-0.92, 0.40, 0.40, 0.92, 586.8, 533.4)"></path></g></svg>