<?xml version="1.0" encoding="UTF-8" standalone="no"?><svg xmlns="http://www.w3.org/2000/svg" xmlns:xlink="http://www.w3.org/1999/xlink" clip-rule="evenodd" stroke-miterlimit="4.00" viewBox="0 0 1024 768"><desc>SVG generated by Keynote</desc><defs></defs><g transform="matrix(1.00, 0.00, -0.00, -1.00, 0.0, 768.0)"><path d="M 0.0 768.0 L 1024.0 768.0 L 1024.0 0.0 L 0.0 0.0 Z M 0.0 768.0 " fill="#DDDDDD"></path><text xml:space="preserve" font-family="ArialMT" font-size="58.0" fill="#878787" transform="matrix(1.00, 0.00, -0.00, -1.00, 903.2, 15.5)">5</text><text xml:space="preserve" font-family="ArialMT" font-size="58.0" fill="#878787" transform="matrix(1.00, 0.00, -0.00, -1.00, 935.4, 15.5)">7</text><text xml:space="preserve" font-family="Helvetica-Bold" font-weight="bold" font-size="61.0" fill="#912623" transform="matrix(1.00, 0.00, -0.00, -1.00, 268.0, 641.0)">O</text><text xml:space="preserve" font-family="Helvetica-Bold" font-weight="bold" font-size="61.0" fill="#B96EDB" transform="matrix(1.00, 0.00, -0.00, -1.00, 315.4, 641.0)"> </text><text xml:space="preserve" font-family="Helvetica-Bold" font-weight="bold" font-size="61.0" fill="#000000" transform="matrix(1.00, 0.00, -0.00, -1.00, 332.4, 641.0)">/</text><text xml:space="preserve" font-family="Helvetica-Bold" font-weight="bold" font-size="61.0" fill="#B96EDB" transform="matrix(1.00, 0.00, -0.00, -1.00, 349.3, 641.0)"> </text><text xml:space="preserve" font-family="Helvetica-Bold" font-weight="bold" font-size="61.0" fill="#3F508D" transform="matrix(1.00, 0.00, -0.00, -1.00, 366.3, 641.0)">I</text><text xml:space="preserve" font-family="Helvetica-Bold" font-weight="bold" font-size="61.0" fill="#B96EDB" transform="matrix(1.00, 0.00, -0.00, -1.00, 383.2, 641.0)"> </text><text xml:space="preserve" font-family="Helvetica-Bold" font-weight="bold" font-size="61.0" fill="#B96EDB" transform="matrix(1.00, 0.00, -0.00, -1.00, 400.2, 641.0)"> </text><text xml:space="preserve" font-family="Helvetica-Bold" font-weight="bold" font-size="61.0" fill="#B96EDB" transform="matrix(1.00, 0.00, -0.00, -1.00, 417.1, 641.0)">d</text><text xml:space="preserve" font-family="Helvetica-Bold" font-weight="bold" font-size="61.0" fill="#B96EDB" transform="matrix(1.00, 0.00, -0.00, -1.00, 454.4, 641.0)">u</text><text xml:space="preserve" font-family="Helvetica-Bold" font-weight="bold" font-size="61.0" fill="#B96EDB" transform="matrix(1.00, 0.00, -0.00, -1.00, 491.6, 641.0)"> </text><text xml:space="preserve" font-family="Helvetica-Bold" font-weight="bold" font-size="61.0" fill="#B96EDB" transform="matrix(1.00, 0.00, -0.00, -1.00, 508.5, 641.0)">m</text><text xml:space="preserve" font-family="Helvetica-Bold" font-weight="bold" font-size="61.0" fill="#B96EDB" transform="matrix(1.00, 0.00, -0.00, -1.00, 562.8, 641.0)">u</text><text xml:space="preserve" font-family="Helvetica-Bold" font-weight="bold" font-size="61.0" fill="#B96EDB" transform="matrix(1.00, 0.00, -0.00, -1.00, 600.0, 641.0)">s</text><text xml:space="preserve" font-family="Helvetica-Bold" font-weight="bold" font-size="61.0" fill="#B96EDB" transform="matrix(1.00, 0.00, -0.00, -1.00, 633.9, 641.0)">c</text><text xml:space="preserve" font-family="Helvetica-Bold" font-weight="bold" font-size="61.0" fill="#B96EDB" transform="matrix(1.00, 0.00, -0.00, -1.00, 667.8, 641.0)">l</text><text xml:space="preserve" font-family="Helvetica-Bold" font-weight="bold" font-size="61.0" fill="#B96EDB" transform="matrix(1.00, 0.00, -0.00, -1.00, 684.8, 641.0)">e</text><text xml:space="preserve" font-family="Helvetica-Bold" font-weight="bold" font-size="61.0" fill="#B96EDB" transform="matrix(1.00, 0.00, -0.00, -1.00, 718.7, 641.0)">?</text><g><clipPath id="clip-190"><path d="M 525.0 595.0 L 995.0 595.0 L 995.0 96.0 L 525.0 96.0 Z M 525.1 595.0 "></path></clipPath><g clip-path="url(#clip-190)"><image xlink:href="53F0D0B4D5D83D58F5D8FCCDCC7F76A9.png" width="451.00" height="541.00" transform="matrix(1.58, 0.00, -0.00, -1.58, 507.0, 583.0)"></image></g></g><g><clipPath id="clip-191"><path d="M 27.0 599.0 L 498.0 599.0 L 498.0 100.0 L 27.0 100.0 Z M 27.1 599.2 "></path></clipPath><g clip-path="url(#clip-191)"><image xlink:href="../../E185D75B-A2A3-44A9-BDFF-D28D26E063C5/assets/53F0D0B4D5D83D58F5D8FCCDCC7F76A9.png" width="451.00" height="541.00" transform="matrix(1.27, 0.00, -0.00, -1.27, -89.0, 550.0)"></image></g></g><image xlink:href="../../11ED82F2-A490-460F-94C4-B32EDC80E000/assets/538EBDEA368875A6D9FB99C6AD072501.png" width="483.00" height="512.00" transform="matrix(1.00, 0.00, -0.00, -1.00, 521.4, 602.3)" opacity="0.50"></image><path d="M 0.0 0.0 L 470.4 0.0 L 470.4 498.8 L 0.0 498.8 Z M 0.0 0.0 " fill="none" stroke="#3F508D" stroke-width="7.00" transform="matrix(1.00, 0.00, 0.00, -1.00, 527.9, 597.8)"></path><image xlink:href="../../11ED82F2-A490-460F-94C4-B32EDC80E000/assets/538EBDEA368875A6D9FB99C6AD072501.png" width="483.00" height="512.00" transform="matrix(1.00, 0.00, -0.00, -1.00, 19.2, 602.3)" opacity="0.50"></image><path d="M 0.0 0.0 L 470.4 0.0 L 470.4 498.8 L 0.0 498.8 Z M 0.0 0.0 " fill="none" stroke="#912623" stroke-width="7.00" transform="matrix(1.00, 0.00, 0.00, -1.00, 25.7, 597.8)"></path></g></svg>