<?xml version="1.0" encoding="UTF-8" standalone="no"?><svg xmlns="http://www.w3.org/2000/svg" xmlns:xlink="http://www.w3.org/1999/xlink" clip-rule="evenodd" stroke-miterlimit="4.00" viewBox="0 0 1024 768"><desc>SVG generated by Keynote</desc><defs></defs><g transform="matrix(1.00, 0.00, -0.00, -1.00, 0.0, 768.0)"><path d="M 0.0 768.0 L 1024.0 768.0 L 1024.0 0.0 L 0.0 0.0 Z M 0.0 768.0 " fill="#000000"></path><g><clipPath id="clip-131"><path d="M 321.0 684.0 L 703.0 684.0 L 703.0 118.0 L 321.0 118.0 Z M 321.2 683.6 "></path></clipPath><g clip-path="url(#clip-131)"><image xlink:href="../../F0CDA1FB-17C2-495A-A63E-131C7E26FDC6/assets/A55E4DDE7ABC8F1C1560081ACE3AB5E8.png" width="257.00" height="386.00" transform="matrix(1.49, 0.00, -0.00, -1.48, 321.0, 691.0)"></image></g></g><text xml:space="preserve" font-family="ArialMT" font-size="58.0" fill="#878787" transform="matrix(1.00, 0.00, -0.00, -1.00, 870.9, 15.5)">1</text><text xml:space="preserve" font-family="ArialMT" font-size="58.0" fill="#878787" transform="matrix(1.00, 0.00, -0.00, -1.00, 903.2, 15.5)">4</text><text xml:space="preserve" font-family="ArialMT" font-size="58.0" fill="#878787" transform="matrix(1.00, 0.00, -0.00, -1.00, 935.4, 15.5)">9</text><path d="M 0.0 0.0 L 25.1 0.0 " fill="none" stroke="#000000" stroke-width="4.00" transform="matrix(-0.82, 0.58, 0.58, 0.82, 399.5, 531.9)"></path><text xml:space="preserve" font-family="Helvetica-Bold" font-weight="bold" font-size="36.0" fill="#000000" transform="matrix(1.00, 0.00, -0.00, -1.00, 404.0, 514.0)">?</text></g></svg>