<?xml version="1.0" encoding="UTF-8" standalone="no"?><svg xmlns="http://www.w3.org/2000/svg" xmlns:xlink="http://www.w3.org/1999/xlink" clip-rule="evenodd" stroke-miterlimit="4.00" viewBox="0 0 1024 768"><desc>SVG generated by Keynote</desc><defs></defs><g transform="matrix(1.00, 0.00, -0.00, -1.00, 0.0, 768.0)"><path d="M 0.0 768.0 L 1024.0 768.0 L 1024.0 0.0 L 0.0 0.0 Z M 0.0 768.0 " fill="#000000"></path><text xml:space="preserve" font-family="ArialMT" font-size="58.0" fill="#878787" transform="matrix(1.00, 0.00, -0.00, -1.00, 903.2, 15.5)">1</text><text xml:space="preserve" font-family="ArialMT" font-size="58.0" fill="#878787" transform="matrix(1.00, 0.00, -0.00, -1.00, 935.4, 15.5)">3</text><image xlink:href="44E6A5F56F8B69D396C4DE6A4A7D3784.png" width="375.00" height="509.00" transform="matrix(1.00, 0.00, -0.00, -1.00, 284.0, 638.0)"></image><path d="M 0.0 0.0 L 139.1 0.0 " fill="none" stroke="#E46DC8" stroke-width="4.00" transform="matrix(-0.86, 0.52, 0.52, 0.86, 447.4, 558.7)"></path><text xml:space="preserve" font-family="Helvetica-Bold" font-weight="bold" font-size="36.0" fill="#E46DC8" transform="matrix(1.00, 0.00, -0.00, -1.00, 153.0, 619.0)">R</text><text xml:space="preserve" font-family="Helvetica-Bold" font-weight="bold" font-size="36.0" fill="#E46DC8" transform="matrix(1.00, 0.00, -0.00, -1.00, 179.0, 619.0)">E</text><text xml:space="preserve" font-family="Helvetica-Bold" font-weight="bold" font-size="36.0" fill="#E46DC8" transform="matrix(1.00, 0.00, -0.00, -1.00, 203.0, 619.0)">L</text><text xml:space="preserve" font-family="Helvetica-Bold" font-weight="bold" font-size="36.0" fill="#E46DC8" transform="matrix(1.00, 0.00, -0.00, -1.00, 225.0, 619.0)">I</text><text xml:space="preserve" font-family="Helvetica-Bold" font-weight="bold" font-size="36.0" fill="#E46DC8" transform="matrix(1.00, 0.00, -0.00, -1.00, 235.0, 619.0)">E</text><text xml:space="preserve" font-family="Helvetica-Bold" font-weight="bold" font-size="36.0" fill="#E46DC8" transform="matrix(1.00, 0.00, -0.00, -1.00, 259.0, 619.0)">F</text><text xml:space="preserve" font-family="Helvetica-Bold" font-weight="bold" font-size="36.0" fill="#E46DC8" transform="matrix(1.00, 0.00, -0.00, -1.00, 281.0, 619.0)"> </text><text xml:space="preserve" font-family="Helvetica-Bold" font-weight="bold" font-size="36.0" fill="#E46DC8" transform="matrix(1.00, 0.00, -0.00, -1.00, 291.0, 619.0)">?</text></g></svg>