<?xml version="1.0" encoding="UTF-8" standalone="no"?><svg xmlns="http://www.w3.org/2000/svg" xmlns:xlink="http://www.w3.org/1999/xlink" clip-rule="evenodd" stroke-miterlimit="4.00" viewBox="0 0 1024 768"><desc>SVG generated by Keynote</desc><defs></defs><g transform="matrix(1.00, 0.00, -0.00, -1.00, 0.0, 768.0)"><path d="M 0.0 768.0 L 1024.0 768.0 L 1024.0 0.0 L 0.0 0.0 Z M 0.0 768.0 " fill="#DDDDDD"></path><text xml:space="preserve" font-family="ArialMT" font-size="58.0" fill="#878787" transform="matrix(1.00, 0.00, -0.00, -1.00, 903.2, 15.5)">5</text><text xml:space="preserve" font-family="ArialMT" font-size="58.0" fill="#878787" transform="matrix(1.00, 0.00, -0.00, -1.00, 935.4, 15.5)">8</text><text xml:space="preserve" font-family="Helvetica-Bold" font-weight="bold" font-size="61.0" fill="#912623" transform="matrix(1.00, 0.00, -0.00, -1.00, 268.0, 641.0)">O</text><text xml:space="preserve" font-family="Helvetica-Bold" font-weight="bold" font-size="61.0" fill="#B96EDB" transform="matrix(1.00, 0.00, -0.00, -1.00, 315.4, 641.0)"> </text><text xml:space="preserve" font-family="Helvetica-Bold" font-weight="bold" font-size="61.0" fill="#000000" transform="matrix(1.00, 0.00, -0.00, -1.00, 332.4, 641.0)">/</text><text xml:space="preserve" font-family="Helvetica-Bold" font-weight="bold" font-size="61.0" fill="#B96EDB" transform="matrix(1.00, 0.00, -0.00, -1.00, 349.3, 641.0)"> </text><text xml:space="preserve" font-family="Helvetica-Bold" font-weight="bold" font-size="61.0" fill="#3F508D" transform="matrix(1.00, 0.00, -0.00, -1.00, 366.3, 641.0)">I</text><text xml:space="preserve" font-family="Helvetica-Bold" font-weight="bold" font-size="61.0" fill="#B96EDB" transform="matrix(1.00, 0.00, -0.00, -1.00, 383.2, 641.0)"> </text><text xml:space="preserve" font-family="Helvetica-Bold" font-weight="bold" font-size="61.0" fill="#B96EDB" transform="matrix(1.00, 0.00, -0.00, -1.00, 400.2, 641.0)"> </text><text xml:space="preserve" font-family="Helvetica-Bold" font-weight="bold" font-size="61.0" fill="#B96EDB" transform="matrix(1.00, 0.00, -0.00, -1.00, 417.1, 641.0)">d</text><text xml:space="preserve" font-family="Helvetica-Bold" font-weight="bold" font-size="61.0" fill="#B96EDB" transform="matrix(1.00, 0.00, -0.00, -1.00, 454.4, 641.0)">u</text><text xml:space="preserve" font-family="Helvetica-Bold" font-weight="bold" font-size="61.0" fill="#B96EDB" transform="matrix(1.00, 0.00, -0.00, -1.00, 491.6, 641.0)"> </text><text xml:space="preserve" font-family="Helvetica-Bold" font-weight="bold" font-size="61.0" fill="#B96EDB" transform="matrix(1.00, 0.00, -0.00, -1.00, 508.5, 641.0)">m</text><text xml:space="preserve" font-family="Helvetica-Bold" font-weight="bold" font-size="61.0" fill="#B96EDB" transform="matrix(1.00, 0.00, -0.00, -1.00, 562.8, 641.0)">u</text><text xml:space="preserve" font-family="Helvetica-Bold" font-weight="bold" font-size="61.0" fill="#B96EDB" transform="matrix(1.00, 0.00, -0.00, -1.00, 600.0, 641.0)">s</text><text xml:space="preserve" font-family="Helvetica-Bold" font-weight="bold" font-size="61.0" fill="#B96EDB" transform="matrix(1.00, 0.00, -0.00, -1.00, 633.9, 641.0)">c</text><text xml:space="preserve" font-family="Helvetica-Bold" font-weight="bold" font-size="61.0" fill="#B96EDB" transform="matrix(1.00, 0.00, -0.00, -1.00, 667.8, 641.0)">l</text><text xml:space="preserve" font-family="Helvetica-Bold" font-weight="bold" font-size="61.0" fill="#B96EDB" transform="matrix(1.00, 0.00, -0.00, -1.00, 684.8, 641.0)">e</text><text xml:space="preserve" font-family="Helvetica-Bold" font-weight="bold" font-size="61.0" fill="#B96EDB" transform="matrix(1.00, 0.00, -0.00, -1.00, 718.7, 641.0)">?</text><g><clipPath id="clip-81"><path d="M 531.0 593.0 L 1002.0 593.0 L 1002.0 95.0 L 531.0 95.0 Z M 531.2 593.5 "></path></clipPath><g clip-path="url(#clip-81)"><image xlink:href="../../4C48E445-92C1-4E98-AA0A-7CC7026D1C43/assets/B5350FBD8BACBB9362C5967577A16F54.png" width="529.00" height="500.00" transform="matrix(1.00, 0.00, -0.00, -1.00, 463.0, 597.0)"></image></g></g><g><clipPath id="clip-82"><path d="M 24.0 605.0 L 495.0 605.0 L 495.0 106.0 L 24.0 106.0 Z M 24.3 604.8 "></path></clipPath><g clip-path="url(#clip-82)"><image xlink:href="../../4C48E445-92C1-4E98-AA0A-7CC7026D1C43/assets/6F3CD2F8985C8CD164480EF92CFFFB4E.png" width="414.00" height="462.00" transform="matrix(1.00, 0.00, -0.00, -1.00, 40.0, 572.0)"></image></g></g><image xlink:href="../../D29840E6-9BFA-41AB-8B25-4314F611D768/assets/538EBDEA368875A6D9FB99C6AD072501.png" width="483.00" height="512.00" transform="matrix(1.00, 0.00, -0.00, -1.00, 521.4, 602.3)" opacity="0.50"></image><path d="M 0.0 0.0 L 470.4 0.0 L 470.4 498.8 L 0.0 498.8 Z M 0.0 0.0 " fill="none" stroke="#3F508D" stroke-width="7.00" transform="matrix(1.00, 0.00, 0.00, -1.00, 527.9, 597.8)"></path><image xlink:href="../../D29840E6-9BFA-41AB-8B25-4314F611D768/assets/538EBDEA368875A6D9FB99C6AD072501.png" width="483.00" height="512.00" transform="matrix(1.00, 0.00, -0.00, -1.00, 17.8, 602.3)" opacity="0.50"></image><path d="M 0.0 0.0 L 470.4 0.0 L 470.4 498.8 L 0.0 498.8 Z M 0.0 0.0 " fill="none" stroke="#912623" stroke-width="7.00" transform="matrix(1.00, 0.00, 0.00, -1.00, 24.3, 597.8)"></path></g></svg>