<?xml version="1.0" encoding="UTF-8" standalone="no"?><svg xmlns="http://www.w3.org/2000/svg" xmlns:xlink="http://www.w3.org/1999/xlink" clip-rule="evenodd" stroke-miterlimit="4.00" viewBox="0 0 1024 768"><desc>SVG generated by Keynote</desc><defs></defs><g transform="matrix(1.00, 0.00, -0.00, -1.00, 0.0, 768.0)"><path d="M 0.0 768.0 L 1024.0 768.0 L 1024.0 0.0 L 0.0 0.0 Z M 0.0 768.0 " fill="#DDDDDD"></path><image xlink:href="../../6887F6BC-13BB-4042-8066-F5975FD4D80E/assets/2321582B71CA062A5141B2E936B449F3.png" width="233.00" height="444.00" transform="matrix(-1.00, 0.00, 0.00, -1.00, 980.0, 700.0)"></image><text xml:space="preserve" font-family="Helvetica-Bold" font-weight="bold" font-size="47.0" fill="#B96EDB" transform="matrix(1.00, 0.00, -0.00, -1.00, 931.0, 315.0)">?</text><image xlink:href="../../6887F6BC-13BB-4042-8066-F5975FD4D80E/assets/B66E9D07C7FB6C60018343EDC795C35C.png" width="268.00" height="541.00" transform="matrix(-1.29, 0.00, 0.00, -1.28, 361.0, 775.0)"></image><path d="M 0.0 0.0 L 72.8 0.0 " fill="none" stroke="#B96EDB" stroke-width="4.00" transform="matrix(0.98, -0.20, -0.20, -0.98, 849.0, 348.1)"></path><text xml:space="preserve" font-family="ArialMT" font-size="58.0" fill="#878787" transform="matrix(1.00, 0.00, -0.00, -1.00, 875.2, 15.5)">1</text><text xml:space="preserve" font-family="ArialMT" font-size="58.0" fill="#878787" transform="matrix(1.00, 0.00, -0.00, -1.00, 903.2, 15.5)">1</text><text xml:space="preserve" font-family="ArialMT" font-size="58.0" fill="#878787" transform="matrix(1.00, 0.00, -0.00, -1.00, 935.4, 15.5)">2</text><text xml:space="preserve" font-family="Helvetica-Bold" font-weight="bold" font-size="47.0" fill="#B96EDB" transform="matrix(1.00, 0.00, -0.00, -1.00, 300.0, 367.0)">?</text><path d="M 0.0 0.0 L 81.6 0.0 " fill="none" stroke="#F4F243" stroke-width="4.00" transform="matrix(-0.99, -0.16, -0.16, 0.99, 310.2, 381.6)"></path><image xlink:href="../../6887F6BC-13BB-4042-8066-F5975FD4D80E/assets/B770D3962B4B8A4A63F79B84ACF513E6.png" width="269.00" height="540.00" transform="matrix(-1.32, 0.00, 0.00, -1.31, 712.0, 783.0)"></image></g></svg>