<?xml version="1.0" encoding="UTF-8" standalone="no"?><svg xmlns="http://www.w3.org/2000/svg" xmlns:xlink="http://www.w3.org/1999/xlink" clip-rule="evenodd" stroke-miterlimit="4.00" viewBox="0 0 1024 768"><desc>SVG generated by Keynote</desc><defs></defs><g transform="matrix(1.00, 0.00, -0.00, -1.00, 0.0, 768.0)"><path d="M 0.0 768.0 L 1024.0 768.0 L 1024.0 0.0 L 0.0 0.0 Z M 0.0 768.0 " fill="#000000"></path><g><clipPath id="clip-146"><path d="M 344.0 570.0 L 603.0 570.0 L 603.0 198.0 L 344.0 198.0 Z M 343.7 569.6 "></path></clipPath><g clip-path="url(#clip-146)"><image xlink:href="967EC1D2822EE87FAB1995D87E25083E.png" width="312.00" height="253.00" transform="matrix(1.47, 0.00, -0.00, -1.47, 344.0, 570.0)"></image></g></g><text xml:space="preserve" font-family="ArialMT" font-size="58.0" fill="#878787" transform="matrix(1.00, 0.00, -0.00, -1.00, 903.2, 15.5)">3</text><text xml:space="preserve" font-family="ArialMT" font-size="58.0" fill="#878787" transform="matrix(1.00, 0.00, -0.00, -1.00, 935.4, 15.5)">5</text><text xml:space="preserve" font-family="Helvetica-Bold" font-weight="bold" font-size="36.0" fill="#53D4B2" transform="matrix(1.00, 0.00, -0.00, -1.00, 429.0, 123.0)">R</text><text xml:space="preserve" font-family="Helvetica-Bold" font-weight="bold" font-size="36.0" fill="#53D4B2" transform="matrix(1.00, 0.00, -0.00, -1.00, 455.0, 123.0)">e</text><text xml:space="preserve" font-family="Helvetica-Bold" font-weight="bold" font-size="36.0" fill="#53D4B2" transform="matrix(1.00, 0.00, -0.00, -1.00, 475.0, 123.0)">l</text><text xml:space="preserve" font-family="Helvetica-Bold" font-weight="bold" font-size="36.0" fill="#53D4B2" transform="matrix(1.00, 0.00, -0.00, -1.00, 485.0, 123.0)">i</text><text xml:space="preserve" font-family="Helvetica-Bold" font-weight="bold" font-size="36.0" fill="#53D4B2" transform="matrix(1.00, 0.00, -0.00, -1.00, 495.0, 123.0)">e</text><text xml:space="preserve" font-family="Helvetica-Bold" font-weight="bold" font-size="36.0" fill="#53D4B2" transform="matrix(1.00, 0.00, -0.00, -1.00, 515.1, 123.0)">f</text><text xml:space="preserve" font-family="Helvetica-Bold" font-weight="bold" font-size="36.0" fill="#53D4B2" transform="matrix(1.00, 0.00, -0.00, -1.00, 527.0, 123.0)">?</text><path d="M 0.0 0.0 L 71.3 0.0 " fill="none" stroke="#53D4B2" stroke-width="4.00" transform="matrix(-0.26, -0.96, -0.96, 0.26, 498.8, 236.7)"></path></g></svg>