<?xml version="1.0" encoding="UTF-8" standalone="no"?><svg xmlns="http://www.w3.org/2000/svg" xmlns:xlink="http://www.w3.org/1999/xlink" clip-rule="evenodd" stroke-miterlimit="4.00" viewBox="0 0 1024 768"><desc>SVG generated by Keynote</desc><defs></defs><g transform="matrix(1.00, 0.00, -0.00, -1.00, 0.0, 768.0)"><path d="M 0.0 768.0 L 1024.0 768.0 L 1024.0 0.0 L 0.0 0.0 Z M 0.0 768.0 " fill="#DDDDDD"></path><text xml:space="preserve" font-family="ArialMT" font-size="58.0" fill="#878787" transform="matrix(1.00, 0.00, -0.00, -1.00, 903.2, 15.5)">1</text><text xml:space="preserve" font-family="ArialMT" font-size="58.0" fill="#878787" transform="matrix(1.00, 0.00, -0.00, -1.00, 935.4, 15.5)">9</text><text xml:space="preserve" font-family="Helvetica-Bold" font-weight="bold" font-size="61.0" fill="#912623" transform="matrix(1.00, 0.00, -0.00, -1.00, 268.0, 641.0)">O</text><text xml:space="preserve" font-family="Helvetica-Bold" font-weight="bold" font-size="61.0" fill="#B96EDB" transform="matrix(1.00, 0.00, -0.00, -1.00, 315.4, 641.0)"> </text><text xml:space="preserve" font-family="Helvetica-Bold" font-weight="bold" font-size="61.0" fill="#000000" transform="matrix(1.00, 0.00, -0.00, -1.00, 332.4, 641.0)">/</text><text xml:space="preserve" font-family="Helvetica-Bold" font-weight="bold" font-size="61.0" fill="#B96EDB" transform="matrix(1.00, 0.00, -0.00, -1.00, 349.3, 641.0)"> </text><text xml:space="preserve" font-family="Helvetica-Bold" font-weight="bold" font-size="61.0" fill="#3F508D" transform="matrix(1.00, 0.00, -0.00, -1.00, 366.3, 641.0)">I</text><text xml:space="preserve" font-family="Helvetica-Bold" font-weight="bold" font-size="61.0" fill="#B96EDB" transform="matrix(1.00, 0.00, -0.00, -1.00, 383.2, 641.0)"> </text><text xml:space="preserve" font-family="Helvetica-Bold" font-weight="bold" font-size="61.0" fill="#B96EDB" transform="matrix(1.00, 0.00, -0.00, -1.00, 400.2, 641.0)"> </text><text xml:space="preserve" font-family="Helvetica-Bold" font-weight="bold" font-size="61.0" fill="#B96EDB" transform="matrix(1.00, 0.00, -0.00, -1.00, 417.1, 641.0)">d</text><text xml:space="preserve" font-family="Helvetica-Bold" font-weight="bold" font-size="61.0" fill="#B96EDB" transform="matrix(1.00, 0.00, -0.00, -1.00, 454.4, 641.0)">u</text><text xml:space="preserve" font-family="Helvetica-Bold" font-weight="bold" font-size="61.0" fill="#B96EDB" transform="matrix(1.00, 0.00, -0.00, -1.00, 491.6, 641.0)"> </text><text xml:space="preserve" font-family="Helvetica-Bold" font-weight="bold" font-size="61.0" fill="#B96EDB" transform="matrix(1.00, 0.00, -0.00, -1.00, 508.5, 641.0)">m</text><text xml:space="preserve" font-family="Helvetica-Bold" font-weight="bold" font-size="61.0" fill="#B96EDB" transform="matrix(1.00, 0.00, -0.00, -1.00, 562.8, 641.0)">u</text><text xml:space="preserve" font-family="Helvetica-Bold" font-weight="bold" font-size="61.0" fill="#B96EDB" transform="matrix(1.00, 0.00, -0.00, -1.00, 600.0, 641.0)">s</text><text xml:space="preserve" font-family="Helvetica-Bold" font-weight="bold" font-size="61.0" fill="#B96EDB" transform="matrix(1.00, 0.00, -0.00, -1.00, 633.9, 641.0)">c</text><text xml:space="preserve" font-family="Helvetica-Bold" font-weight="bold" font-size="61.0" fill="#B96EDB" transform="matrix(1.00, 0.00, -0.00, -1.00, 667.8, 641.0)">l</text><text xml:space="preserve" font-family="Helvetica-Bold" font-weight="bold" font-size="61.0" fill="#B96EDB" transform="matrix(1.00, 0.00, -0.00, -1.00, 684.8, 641.0)">e</text><text xml:space="preserve" font-family="Helvetica-Bold" font-weight="bold" font-size="61.0" fill="#B96EDB" transform="matrix(1.00, 0.00, -0.00, -1.00, 718.7, 641.0)">?</text><g><clipPath id="clip-14"><path d="M 528.0 596.0 L 998.0 596.0 L 998.0 98.0 L 528.0 98.0 Z M 527.9 596.4 "></path></clipPath><g clip-path="url(#clip-14)"><image xlink:href="../../B6536A47-4082-4294-84F7-AA69B144CBD0/assets/20849320872063BCD2ED02378564E326.png" width="595.00" height="404.00" transform="matrix(1.00, 0.00, -0.00, -1.00, 509.0, 533.0)"></image></g></g><g><clipPath id="clip-15"><path d="M 26.0 600.0 L 496.0 600.0 L 496.0 101.0 L 26.0 101.0 Z M 25.7 599.9 "></path></clipPath><g clip-path="url(#clip-15)"><image xlink:href="../../B6536A47-4082-4294-84F7-AA69B144CBD0/assets/A60639F2BE35A4BBE0DF8B42E546A507.png" width="631.00" height="540.00" transform="matrix(1.35, 0.00, -0.00, -1.35, -247.0, 560.0)"></image></g></g><image xlink:href="../../9E3499F9-D0BE-4AB8-8222-BEF8D5E5F38E/assets/538EBDEA368875A6D9FB99C6AD072501.png" width="483.00" height="512.00" transform="matrix(1.00, 0.00, -0.00, -1.00, 521.4, 602.3)" opacity="0.50"></image><path d="M 0.0 0.0 L 470.4 0.0 L 470.4 498.8 L 0.0 498.8 Z M 0.0 0.0 " fill="none" stroke="#3F508D" stroke-width="7.00" transform="matrix(1.00, 0.00, 0.00, -1.00, 527.9, 597.8)"></path><image xlink:href="../../9E3499F9-D0BE-4AB8-8222-BEF8D5E5F38E/assets/538EBDEA368875A6D9FB99C6AD072501.png" width="483.00" height="512.00" transform="matrix(1.00, 0.00, -0.00, -1.00, 19.2, 602.3)" opacity="0.50"></image><path d="M 0.0 0.0 L 470.4 0.0 L 470.4 498.8 L 0.0 498.8 Z M 0.0 0.0 " fill="none" stroke="#912623" stroke-width="7.00" transform="matrix(1.00, 0.00, 0.00, -1.00, 25.7, 597.8)"></path></g></svg>