<?xml version="1.0" encoding="UTF-8" standalone="no"?><svg xmlns="http://www.w3.org/2000/svg" xmlns:xlink="http://www.w3.org/1999/xlink" clip-rule="evenodd" stroke-miterlimit="4.00" viewBox="0 0 1024 768"><desc>SVG generated by Keynote</desc><defs></defs><g transform="matrix(1.00, 0.00, -0.00, -1.00, 0.0, 768.0)"><path d="M 0.0 768.0 L 1024.0 768.0 L 1024.0 0.0 L 0.0 0.0 Z M 0.0 768.0 " fill="#000000"></path><image xlink:href="../../321653D0-3047-45E5-9862-3D76C2071D2C/assets/5C44C1EEFF5BDFA1707DF8BD75C76572.png" width="187.00" height="416.00" transform="matrix(1.35, 0.00, -0.00, -1.35, 412.0, 625.0)"></image><g><clipPath id="clip-227"><path d="M 166.0 729.0 L 339.0 729.0 L 339.0 296.0 L 166.0 296.0 Z M 165.8 728.9 "></path></clipPath><g clip-path="url(#clip-227)"><image xlink:href="../../321653D0-3047-45E5-9862-3D76C2071D2C/assets/6C8A52EFF0E631D25B8A1943C336B12E.png" width="126.00" height="415.00" transform="matrix(1.37, 0.00, -0.00, -1.38, 166.0, 868.0)"></image></g></g><text xml:space="preserve" font-family="ArialMT" font-size="58.0" fill="#878787" transform="matrix(1.00, 0.00, -0.00, -1.00, 870.9, 15.5)">1</text><text xml:space="preserve" font-family="ArialMT" font-size="58.0" fill="#878787" transform="matrix(1.00, 0.00, -0.00, -1.00, 903.2, 15.5)">2</text><text xml:space="preserve" font-family="ArialMT" font-size="58.0" fill="#878787" transform="matrix(1.00, 0.00, -0.00, -1.00, 935.4, 15.5)">5</text><text xml:space="preserve" font-family="Helvetica-Bold" font-weight="bold" font-size="36.0" fill="#53D4B2" transform="matrix(1.00, 0.00, -0.00, -1.00, 665.0, 480.0)">?</text><path d="M 0.0 0.0 L 91.6 0.0 " fill="none" stroke="#00FCFF" stroke-width="4.00" transform="matrix(-1.00, 0.00, 0.00, 1.00, 653.5, 493.6)"></path></g></svg>