<?xml version="1.0" encoding="UTF-8" standalone="no"?><svg xmlns="http://www.w3.org/2000/svg" xmlns:xlink="http://www.w3.org/1999/xlink" clip-rule="evenodd" stroke-miterlimit="4.00" viewBox="0 0 1024 768"><desc>SVG generated by Keynote</desc><defs></defs><g transform="matrix(1.00, 0.00, -0.00, -1.00, 0.0, 768.0)"><path d="M 0.0 768.0 L 1024.0 768.0 L 1024.0 0.0 L 0.0 0.0 Z M 0.0 768.0 " fill="#DDDDDD"></path><g><clipPath id="clip-173"><path d="M 164.0 720.0 L 812.0 720.0 L 812.0 0.0 L 164.0 0.0 Z M 164.4 719.9 "></path></clipPath><g clip-path="url(#clip-173)"><image xlink:href="../../6ED07502-4B77-4792-B5A7-55315B88EF0F/assets/98BE81F9120A8AB80FFCCB7099415EFA.png" width="485.00" height="540.00" transform="matrix(1.34, 0.00, -0.00, -1.33, 164.0, 720.0)"></image></g></g><text xml:space="preserve" font-family="ArialMT" font-size="58.0" fill="#878787" transform="matrix(1.00, 0.00, -0.00, -1.00, 903.2, 15.5)">2</text><text xml:space="preserve" font-family="ArialMT" font-size="58.0" fill="#878787" transform="matrix(1.00, 0.00, -0.00, -1.00, 935.4, 15.5)">9</text><text xml:space="preserve" font-family="Helvetica-Bold" font-weight="bold" font-size="47.0" fill="#B96EDB" transform="matrix(1.00, 0.00, -0.00, -1.00, 752.0, 562.0)">?</text><path d="M 0.0 0.0 L 183.1 0.0 " fill="none" stroke="#F4F243" stroke-width="4.00" transform="matrix(-0.78, -0.63, -0.63, 0.78, 748.5, 567.6)"></path></g></svg>