<?xml version="1.0" encoding="UTF-8" standalone="no"?><svg xmlns="http://www.w3.org/2000/svg" xmlns:xlink="http://www.w3.org/1999/xlink" clip-rule="evenodd" stroke-miterlimit="4.00" viewBox="0 0 1024 768"><desc>SVG generated by Keynote</desc><defs></defs><g transform="matrix(1.00, 0.00, -0.00, -1.00, 0.0, 768.0)"><path d="M 0.0 768.0 L 1024.0 768.0 L 1024.0 0.0 L 0.0 0.0 Z M 0.0 768.0 " fill="#000000"></path><image xlink:href="A583CBC9DA0D2BB35D54E7131A1CB2BB.png" width="175.00" height="252.00" transform="matrix(1.01, 0.00, -0.00, -1.00, 177.0, 531.0)"></image><text xml:space="preserve" font-family="ArialMT" font-size="58.0" fill="#878787" transform="matrix(1.00, 0.00, -0.00, -1.00, 903.2, 15.5)">3</text><text xml:space="preserve" font-family="ArialMT" font-size="58.0" fill="#878787" transform="matrix(1.00, 0.00, -0.00, -1.00, 935.4, 15.5)">3</text><g><clipPath id="clip-28"><path d="M 401.0 528.0 L 676.0 528.0 L 676.0 261.0 L 401.0 261.0 Z M 400.7 527.7 "></path></clipPath><g clip-path="url(#clip-28)"><image xlink:href="F243768ACE373D5A3037B3F3FC1F1318.png" width="358.00" height="214.00" transform="matrix(1.25, 0.00, -0.00, -1.25, 401.0, 528.0)"></image></g></g><text xml:space="preserve" font-family="Helvetica-Bold" font-weight="bold" font-size="36.0" fill="#53D4B2" transform="matrix(1.00, 0.00, -0.00, -1.00, 397.0, 560.0)">?</text><path d="M 0.0 0.0 L 72.5 0.0 " fill="none" stroke="#53D4B2" stroke-width="4.00" transform="matrix(-0.78, 0.63, 0.63, 0.78, 486.1, 520.8)"></path><path d="M 0.0 0.0 L 72.5 0.0 " fill="none" stroke="#53D4B2" stroke-width="4.00" transform="matrix(0.78, 0.63, 0.63, -0.78, 329.5, 520.8)"></path></g></svg>