<?xml version="1.0" encoding="UTF-8" standalone="no"?><svg xmlns="http://www.w3.org/2000/svg" xmlns:xlink="http://www.w3.org/1999/xlink" clip-rule="evenodd" stroke-miterlimit="4.00" viewBox="0 0 1024 768"><desc>SVG generated by Keynote</desc><defs></defs><g transform="matrix(1.00, 0.00, -0.00, -1.00, 0.0, 768.0)"><path d="M 0.0 768.0 L 1024.0 768.0 L 1024.0 0.0 L 0.0 0.0 Z M 0.0 768.0 " fill="#DDDDDD"></path><image xlink:href="../../731CEB2F-67F7-4801-80F8-2388E87B6689/assets/19D75ABCA9BEB36B6FA6E1400CB46595.png" width="351.00" height="541.00" transform="matrix(1.29, 0.00, -0.00, -1.29, 204.0, 768.0)"></image><g><clipPath id="clip-1"><path d="M 727.0 531.0 L 1004.0 531.0 L 1004.0 193.0 L 727.0 193.0 Z M 726.7 531.1 "></path></clipPath><g clip-path="url(#clip-1)"><image xlink:href="../../731CEB2F-67F7-4801-80F8-2388E87B6689/assets/C9ACB766667E66D1A83BFAC9883260FF.png" width="277.00" height="339.00" transform="matrix(1.00, 0.00, -0.00, -1.00, 727.0, 531.0)"></image></g></g><text xml:space="preserve" font-family="ArialMT" font-size="58.0" fill="#878787" transform="matrix(1.00, 0.00, -0.00, -1.00, 935.4, 15.5)">6</text><text xml:space="preserve" font-family="Helvetica-Bold" font-weight="bold" font-size="47.0" fill="#B96EDB" transform="matrix(1.00, 0.00, -0.00, -1.00, 569.0, 496.0)">?</text><path d="M 0.0 0.0 L 132.4 0.0 " fill="none" stroke="#F4F243" stroke-width="4.00" transform="matrix(-0.60, -0.80, -0.80, 0.60, 569.0, 497.2)"></path><text xml:space="preserve" font-family="Helvetica-Bold" font-weight="bold" font-size="47.0" fill="#B96EDB" transform="matrix(1.00, 0.00, -0.00, -1.00, 940.0, 520.0)">?</text><path d="M 0.0 0.0 L 132.0 0.0 " fill="none" stroke="#B96EDB" stroke-width="4.00" transform="matrix(-0.54, -0.84, -0.84, 0.54, 942.8, 529.7)"></path><image xlink:href="../../D6EA4DC9-F92B-4E53-9352-720026A56BA4/assets/4A55B5447384878DA944ADB099EDC59D.png" width="222.00" height="318.00" transform="matrix(1.00, 0.00, -0.00, -1.00, -4.0, 769.0)"></image></g></svg>