<?xml version="1.0" encoding="UTF-8" standalone="no"?><svg xmlns="http://www.w3.org/2000/svg" xmlns:xlink="http://www.w3.org/1999/xlink" clip-rule="evenodd" stroke-miterlimit="4.00" viewBox="0 0 1024 768"><desc>SVG generated by Keynote</desc><defs></defs><g transform="matrix(1.00, 0.00, -0.00, -1.00, 0.0, 768.0)"><path d="M 0.0 768.0 L 1024.0 768.0 L 1024.0 0.0 L 0.0 0.0 Z M 0.0 768.0 " fill="#DDDDDD"></path><text xml:space="preserve" font-family="ArialMT" font-size="58.0" fill="#878787" transform="matrix(1.00, 0.00, -0.00, -1.00, 903.2, 15.5)">7</text><text xml:space="preserve" font-family="ArialMT" font-size="58.0" fill="#878787" transform="matrix(1.00, 0.00, -0.00, -1.00, 935.4, 15.5)">3</text><g><clipPath id="clip-168"><path d="M 1011.0 446.0 L 752.0 446.0 L 752.0 168.0 L 1011.0 168.0 Z M 1011.0 446.0 "></path></clipPath><g clip-path="url(#clip-168)"><image xlink:href="1D424E46F39E4A069495BC10D687C6D1.png" width="219.00" height="348.00" transform="matrix(-1.00, 0.00, 0.00, -1.00, 1005.0, 510.0)"></image></g></g><g><clipPath id="clip-169"><path d="M 1036.0 752.0 L 771.0 752.0 L 771.0 475.0 L 1036.0 475.0 Z M 1035.6 751.9 "></path></clipPath><g clip-path="url(#clip-169)"><image xlink:href="02B2544410B9E3D78DDE5B90E8CC6D13.png" width="203.00" height="354.00" transform="matrix(-1.00, 0.00, 0.00, -1.00, 980.0, 767.0)"></image></g></g><image xlink:href="../../FFACBCCE-E3FB-4BCA-8570-ECC8896484DE/assets/8A242FBE5A7A27E0F3B237F944434D2D.png" width="277.00" height="293.00" transform="matrix(1.00, 0.00, -0.00, -1.00, 741.5, 758.0)" opacity="0.50"></image><path d="M 0.0 0.0 L 264.4 0.0 L 264.4 280.4 L 0.0 280.4 Z M 0.0 0.0 " fill="none" stroke="#912623" stroke-width="7.00" transform="matrix(1.00, 0.00, 0.00, -1.00, 748.0, 753.5)"></path><image xlink:href="../../FFACBCCE-E3FB-4BCA-8570-ECC8896484DE/assets/85509769F90E1BD4B1C1DFF883FEAD53.png" width="277.00" height="293.00" transform="matrix(1.00, 0.00, -0.00, -1.00, 741.6, 451.6)" opacity="0.50"></image><path d="M 0.0 0.0 L 264.4 0.0 L 264.4 280.0 L 0.0 280.0 Z M 0.0 0.0 " fill="none" stroke="#3F508D" stroke-width="7.00" transform="matrix(1.00, 0.00, 0.00, -1.00, 748.1, 447.1)"></path><image xlink:href="../../E73E6AF7-4F65-4E32-A5F4-311EAF5EC2DD/assets/33910E9688A6D06542D1BC2FCE343C95.png" width="224.00" height="540.00" transform="matrix(-1.35, 0.00, 0.00, -1.34, 328.0, 769.0)"></image><image xlink:href="../../E73E6AF7-4F65-4E32-A5F4-311EAF5EC2DD/assets/A33D958D1A7B6D7639BC4800B4BBB58A.png" width="207.00" height="540.00" transform="matrix(-1.34, 0.00, 0.00, -1.34, 626.0, 768.0)"></image><text xml:space="preserve" font-family="Helvetica-Bold" font-weight="bold" font-size="47.0" fill="#B96EDB" transform="matrix(1.00, 0.00, -0.00, -1.00, 636.0, 473.0)">?</text><path d="M 0.0 0.0 L 54.8 0.0 " fill="none" stroke="#B96EDB" stroke-width="4.00" transform="matrix(-0.94, 0.35, 0.35, 0.94, 630.5, 490.6)"></path><text xml:space="preserve" font-family="Helvetica-Bold" font-weight="bold" font-size="47.0" fill="#B96EDB" transform="matrix(1.00, 0.00, -0.00, -1.00, 277.0, 304.0)">?</text><path d="M 0.0 0.0 L 63.1 0.0 " fill="none" stroke="#F4F243" stroke-width="4.00" transform="matrix(-0.95, 0.32, 0.32, 0.95, 271.8, 325.6)"></path></g></svg>