<?xml version="1.0" encoding="UTF-8" standalone="no"?><svg xmlns="http://www.w3.org/2000/svg" xmlns:xlink="http://www.w3.org/1999/xlink" clip-rule="evenodd" stroke-miterlimit="4.00" viewBox="0 0 1024 768"><desc>SVG generated by Keynote</desc><defs><pattern id="15BA7C83-8CC5-4F61-AC2E-7749B7C267FA" patternUnits="userSpaceOnUse" width="334" height="334" viewBox="0 0 334 334" patternTransform="matrix(0.898204, 0.000000, 0.000000, -0.898204, 174.721800, 771.804500)"><image xlink:href="../../1A81FDF9-AE2C-4495-AFB2-68D19D91DF79/assets/CF5C1FBC835CF34ADBBA57D7B8B41202.jpeg" width="334.00" height="334.00"></image></pattern></defs><g transform="matrix(1.00, 0.00, -0.00, -1.00, 0.0, 768.0)"><path d="M 0.0 768.0 L 1024.0 768.0 L 1024.0 0.0 L 0.0 0.0 Z M 0.0 768.0 " fill="#DDDDDD"></path><image xlink:href="../../C93FAC84-17E2-4CCC-9544-EAD577A55CF1/assets/62A0AA72717C4BBBD508E699F6BB96C4.png" width="373.00" height="540.00" transform="matrix(-1.42, 0.00, 0.00, -1.42, 317.0, 762.0)"></image><text xml:space="preserve" font-family="ArialMT" font-size="58.0" fill="#878787" transform="matrix(1.00, 0.00, -0.00, -1.00, 903.2, 15.5)">5</text><text xml:space="preserve" font-family="ArialMT" font-size="58.0" fill="#878787" transform="matrix(1.00, 0.00, -0.00, -1.00, 935.4, 15.5)">7</text><image xlink:href="../../C93FAC84-17E2-4CCC-9544-EAD577A55CF1/assets/EF274911CF964092C859AB4414EDC54F.png" width="378.00" height="540.00" transform="matrix(1.43, 0.00, -0.00, -1.42, 331.0, 768.0)"></image><text xml:space="preserve" font-family="Helvetica-Bold" font-weight="bold" font-size="47.0" fill="#B96EDB" transform="matrix(1.00, 0.00, -0.00, -1.00, 307.0, 548.0)">?</text><g><clipPath id="clip-79"><path d="M 174.7 771.8 L 508.0 771.8 L 508.0 742.7 L 174.7 742.7 Z M 174.7 771.8 "></path></clipPath><g clip-path="url(#clip-79)"><path d="M 174.7 742.7 L 508.0 742.7 L 508.0 768.0 L 174.7 768.0 Z M 174.7 742.7 " fill="url(#15BA7C83-8CC5-4F61-AC2E-7749B7C267FA)"></path><path d="M 174.7 771.8 L 508.0 771.8 L 508.0 742.7 L 174.7 742.7 Z M 174.7 771.8 " fill="#DDDDDD"></path></g></g><path d="M 0.0 0.0 L 217.7 0.0 " fill="none" stroke="#F4F243" stroke-width="4.00" transform="matrix(-1.00, 0.10, 0.10, 1.00, 578.6, 541.6)"></path><path d="M 0.0 0.0 L 217.7 0.0 " fill="none" stroke="#F4F243" stroke-width="4.00" transform="matrix(-1.00, -0.10, -0.10, 1.00, 285.5, 561.3)"></path></g></svg>