<?xml version="1.0" encoding="UTF-8" standalone="no"?><svg xmlns="http://www.w3.org/2000/svg" xmlns:xlink="http://www.w3.org/1999/xlink" clip-rule="evenodd" stroke-miterlimit="4.00" viewBox="0 0 1024 768"><desc>SVG generated by Keynote</desc><defs></defs><g transform="matrix(1.00, 0.00, -0.00, -1.00, 0.0, 768.0)"><path d="M 0.0 768.0 L 1024.0 768.0 L 1024.0 0.0 L 0.0 0.0 Z M 0.0 768.0 " fill="#DDDDDD"></path><text xml:space="preserve" font-family="ArialMT" font-size="58.0" fill="#878787" transform="matrix(1.00, 0.00, -0.00, -1.00, 870.0, 15.5)">1</text><text xml:space="preserve" font-family="ArialMT" font-size="58.0" fill="#878787" transform="matrix(1.00, 0.00, -0.00, -1.00, 902.2, 15.5)">0</text><text xml:space="preserve" font-family="ArialMT" font-size="58.0" fill="#878787" transform="matrix(1.00, 0.00, -0.00, -1.00, 934.5, 15.5)">4</text><g><clipPath id="clip-202"><path d="M 1011.0 446.0 L 752.0 446.0 L 752.0 168.0 L 1011.0 168.0 Z M 1011.0 446.0 "></path></clipPath><g clip-path="url(#clip-202)"><image xlink:href="3B7F97E825C9A672330F9D97BA073AA4.png" width="214.00" height="278.00" transform="matrix(-1.00, 0.00, 0.00, -1.00, 989.0, 456.0)"></image></g></g><g><clipPath id="clip-203"><path d="M 1013.0 753.0 L 748.0 753.0 L 748.0 475.0 L 1013.0 475.0 Z M 1012.7 752.6 "></path></clipPath><g clip-path="url(#clip-203)"><image xlink:href="7D665068AFCD2ABEA678D7D4AA603417.png" width="225.00" height="376.00" transform="matrix(-1.00, 0.00, 0.00, -1.00, 977.0, 767.0)"></image></g></g><image xlink:href="../../FFACBCCE-E3FB-4BCA-8570-ECC8896484DE/assets/8A242FBE5A7A27E0F3B237F944434D2D.png" width="277.00" height="293.00" transform="matrix(1.00, 0.00, -0.00, -1.00, 741.5, 758.0)" opacity="0.50"></image><path d="M 0.0 0.0 L 264.4 0.0 L 264.4 280.4 L 0.0 280.4 Z M 0.0 0.0 " fill="none" stroke="#912623" stroke-width="7.00" transform="matrix(1.00, 0.00, 0.00, -1.00, 748.0, 753.5)"></path><image xlink:href="../../FFACBCCE-E3FB-4BCA-8570-ECC8896484DE/assets/85509769F90E1BD4B1C1DFF883FEAD53.png" width="277.00" height="293.00" transform="matrix(1.00, 0.00, -0.00, -1.00, 741.6, 451.6)" opacity="0.50"></image><path d="M 0.0 0.0 L 264.4 0.0 L 264.4 280.0 L 0.0 280.0 Z M 0.0 0.0 " fill="none" stroke="#3F508D" stroke-width="7.00" transform="matrix(1.00, 0.00, 0.00, -1.00, 748.1, 447.1)"></path><image xlink:href="../../EA34CEBA-3AE2-4B5C-ACC0-C973285E8059/assets/6D9C41322D8D6722D491A9DFB393A08C.png" width="245.00" height="540.00" transform="matrix(-1.42, 0.00, 0.00, -1.42, 720.0, 839.0)"></image><text xml:space="preserve" font-family="Helvetica-Bold" font-weight="bold" font-size="47.0" fill="#B96EDB" transform="matrix(1.00, 0.00, -0.00, -1.00, 478.0, 481.0)">?</text><image xlink:href="../../EA34CEBA-3AE2-4B5C-ACC0-C973285E8059/assets/18D074F3A7618F7BD212CCB6A9C234E6.png" width="272.00" height="541.00" transform="matrix(-1.27, 0.00, 0.00, -1.27, 349.0, 770.0)"></image><path d="M 0.0 0.0 L 72.8 0.0 " fill="none" stroke="#B96EDB" stroke-width="4.00" transform="matrix(0.98, -0.20, -0.20, -0.98, 508.8, 496.5)"></path><text xml:space="preserve" font-family="Helvetica-Bold" font-weight="bold" font-size="47.0" fill="#B96EDB" transform="matrix(1.00, 0.00, -0.00, -1.00, 336.0, 479.0)">?</text><path d="M 0.0 0.0 L 81.6 0.0 " fill="none" stroke="#F4F243" stroke-width="4.00" transform="matrix(-0.99, -0.16, -0.16, 0.99, 346.3, 493.5)"></path></g></svg>