<?xml version="1.0" encoding="UTF-8" standalone="no"?><svg xmlns="http://www.w3.org/2000/svg" xmlns:xlink="http://www.w3.org/1999/xlink" clip-rule="evenodd" stroke-miterlimit="4.00" viewBox="0 0 1024 768"><desc>SVG generated by Keynote</desc><defs><pattern id="94C1CF3B-544B-49B6-AF70-207A8D384B51" patternUnits="userSpaceOnUse" width="334" height="334" viewBox="0 0 334 334" patternTransform="matrix(0.898204, 0.000000, 0.000000, -0.898204, 174.721800, 771.804500)"><image xlink:href="../../1A81FDF9-AE2C-4495-AFB2-68D19D91DF79/assets/CF5C1FBC835CF34ADBBA57D7B8B41202.jpeg" width="334.00" height="334.00"></image></pattern></defs><g transform="matrix(1.00, 0.00, -0.00, -1.00, 0.0, 768.0)"><path d="M 0.0 768.0 L 1024.0 768.0 L 1024.0 0.0 L 0.0 0.0 Z M 0.0 768.0 " fill="#DDDDDD"></path><text xml:space="preserve" font-family="ArialMT" font-size="58.0" fill="#878787" transform="matrix(1.00, 0.00, -0.00, -1.00, 903.2, 15.5)">7</text><text xml:space="preserve" font-family="ArialMT" font-size="58.0" fill="#878787" transform="matrix(1.00, 0.00, -0.00, -1.00, 935.4, 15.5)">9</text><text xml:space="preserve" font-family="Helvetica-Bold" font-weight="bold" font-size="47.0" fill="#B96EDB" transform="matrix(1.00, 0.00, -0.00, -1.00, 276.0, 343.0)">?</text><image xlink:href="../../2CE2CAF0-17C6-4AB3-A90A-5868B90BBC00/assets/53C8CCE658FC47390A84EDB07A26C151.png" width="385.00" height="540.00" transform="matrix(-1.42, 0.00, 0.00, -1.42, 863.0, 768.0)"></image><image xlink:href="../../2CE2CAF0-17C6-4AB3-A90A-5868B90BBC00/assets/8EC3C86B4A68AE119E6D65403AFC2C5C.png" width="180.00" height="540.00" transform="matrix(-1.51, 0.00, 0.00, -1.50, 273.0, 787.0)"></image><g><clipPath id="clip-119"><path d="M 174.7 771.8 L 508.0 771.8 L 508.0 742.7 L 174.7 742.7 Z M 174.7 771.8 "></path></clipPath><g clip-path="url(#clip-119)"><path d="M 174.7 742.7 L 508.0 742.7 L 508.0 768.0 L 174.7 768.0 Z M 174.7 742.7 " fill="url(#94C1CF3B-544B-49B6-AF70-207A8D384B51)"></path><path d="M 174.7 771.8 L 508.0 771.8 L 508.0 742.7 L 174.7 742.7 Z M 174.7 771.8 " fill="#DDDDDD"></path></g></g><path d="M 0.0 0.0 L 224.5 0.0 " fill="none" stroke="#F4F243" stroke-width="4.00" transform="matrix(-0.98, 0.22, 0.22, 0.98, 533.6, 305.7)"></path><path d="M 0.0 0.0 L 92.4 0.0 " fill="none" stroke="#F4F243" stroke-width="4.00" transform="matrix(-0.96, -0.27, -0.27, 0.96, 272.9, 355.5)"></path></g></svg>