<?xml version="1.0" encoding="UTF-8" standalone="no"?><svg xmlns="http://www.w3.org/2000/svg" xmlns:xlink="http://www.w3.org/1999/xlink" clip-rule="evenodd" stroke-miterlimit="4.00" viewBox="0 0 1024 768"><desc>SVG generated by Keynote</desc><defs></defs><g transform="matrix(1.00, 0.00, -0.00, -1.00, 0.0, 768.0)"><path d="M 0.0 768.0 L 1024.0 768.0 L 1024.0 0.0 L 0.0 0.0 Z M 0.0 768.0 " fill="#DDDDDD"></path><text xml:space="preserve" font-family="ArialMT" font-size="58.0" fill="#878787" transform="matrix(1.00, 0.00, -0.00, -1.00, 903.2, 15.5)">6</text><text xml:space="preserve" font-family="ArialMT" font-size="58.0" fill="#878787" transform="matrix(1.00, 0.00, -0.00, -1.00, 935.4, 15.5)">5</text><image xlink:href="../../7156EADD-AB65-427B-BE05-234DDA699966/assets/817328897E8A34AB6371B170206653FD.png" width="546.00" height="540.00" transform="matrix(1.19, 0.00, -0.00, -1.19, 160.0, 668.0)"></image><text xml:space="preserve" font-family="Helvetica-Bold" font-weight="bold" font-size="47.0" fill="#B96EDB" transform="matrix(1.00, 0.00, -0.00, -1.00, 339.0, 548.0)">?</text><path d="M 0.0 0.0 L 174.8 0.0 " fill="none" stroke="#BA6EDC" stroke-width="4.00" transform="matrix(-0.97, 0.25, 0.25, 0.97, 545.9, 518.6)"></path><g><clipPath id="clip-51"><path d="M -2.8 714.1 L 75.4 714.1 L 75.4 479.6 L -2.8 479.6 Z M -2.8 714.1 "></path></clipPath><g clip-path="url(#clip-51)"><image xlink:href="../../AA66D07E-8C56-4EBA-908D-1A63377AABAD/assets/D5BAA0E7A80E113D25EB92D00157B4C8.jpeg" width="300.00" height="300.00" transform="matrix(1.00, 0.00, -0.00, -1.00, -2.8, 714.1)"></image><path d="M -2.8 714.1 L 75.4 714.1 L 75.4 479.6 L -2.8 479.6 Z M -2.8 714.1 " fill="#DDDDDD"></path></g></g></g></svg>