<?xml version="1.0" encoding="UTF-8" standalone="no"?><svg xmlns="http://www.w3.org/2000/svg" xmlns:xlink="http://www.w3.org/1999/xlink" clip-rule="evenodd" stroke-miterlimit="4.00" viewBox="0 0 1024 768"><desc>SVG generated by Keynote</desc><defs></defs><g transform="matrix(1.00, 0.00, -0.00, -1.00, 0.0, 768.0)"><path d="M 0.0 768.0 L 1024.0 768.0 L 1024.0 0.0 L 0.0 0.0 Z M 0.0 768.0 " fill="#000000"></path><text xml:space="preserve" font-family="ArialMT" font-size="58.0" fill="#878787" transform="matrix(1.00, 0.00, -0.00, -1.00, 903.2, 15.5)">5</text><text xml:space="preserve" font-family="ArialMT" font-size="58.0" fill="#878787" transform="matrix(1.00, 0.00, -0.00, -1.00, 935.4, 15.5)">5</text><image xlink:href="46CE3631870AB484B11E82E5821DBC1B.png" width="362.00" height="541.00" transform="matrix(1.11, 0.00, -0.00, -1.11, 509.0, 673.0)"></image><text xml:space="preserve" font-family="Helvetica-Bold" font-weight="bold" font-size="36.0" fill="#53D4B2" transform="matrix(1.00, 0.00, -0.00, -1.00, 439.0, 607.0)">?</text><image xlink:href="../../7C39BDFB-513C-4B90-AABC-E9D592ED67FD/assets/5A2599D57D3A3ABD26237E1E4348F63D.png" width="324.00" height="540.00" transform="matrix(1.08, 0.00, -0.00, -1.08, -23.0, 791.0)"></image><path d="M 0.0 0.0 L 156.5 0.0 " fill="none" stroke="#53D4B2" stroke-width="4.00" transform="matrix(0.99, -0.17, -0.17, -0.99, 472.2, 612.7)"></path></g></svg>