<?xml version="1.0" encoding="UTF-8" standalone="no"?><svg xmlns="http://www.w3.org/2000/svg" xmlns:xlink="http://www.w3.org/1999/xlink" clip-rule="evenodd" stroke-miterlimit="4.00" viewBox="0 0 1024 768"><desc>SVG generated by Keynote</desc><defs></defs><g transform="matrix(1.00, 0.00, -0.00, -1.00, 0.0, 768.0)"><path d="M 0.0 768.0 L 1024.0 768.0 L 1024.0 0.0 L 0.0 0.0 Z M 0.0 768.0 " fill="#DDDDDD"></path><text xml:space="preserve" font-family="ArialMT" font-size="58.0" fill="#878787" transform="matrix(1.00, 0.00, -0.00, -1.00, 870.0, 15.5)">1</text><text xml:space="preserve" font-family="ArialMT" font-size="58.0" fill="#878787" transform="matrix(1.00, 0.00, -0.00, -1.00, 902.2, 15.5)">2</text><text xml:space="preserve" font-family="ArialMT" font-size="58.0" fill="#878787" transform="matrix(1.00, 0.00, -0.00, -1.00, 934.5, 15.5)">7</text><g><clipPath id="clip-230"><path d="M 1011.0 446.0 L 752.0 446.0 L 752.0 168.0 L 1011.0 168.0 Z M 1011.0 446.0 "></path></clipPath><g clip-path="url(#clip-230)"><image xlink:href="../../591FD0C6-FDD8-4B80-A228-86426FDF0947/assets/0E15BB753858687A041F285EC44B94C6.png" width="249.00" height="331.00" transform="matrix(-1.00, 0.00, 0.00, -1.00, 991.0, 505.0)"></image></g></g><g><clipPath id="clip-231"><path d="M 1013.0 753.0 L 748.0 753.0 L 748.0 475.0 L 1013.0 475.0 Z M 1012.7 752.6 "></path></clipPath><g clip-path="url(#clip-231)"><image xlink:href="../../591FD0C6-FDD8-4B80-A228-86426FDF0947/assets/7C3A99EDF24B1E599655F6F69AF86853.png" width="207.00" height="278.00" transform="matrix(-1.00, 0.00, 0.00, -1.00, 984.0, 753.0)"></image></g></g><image xlink:href="../../FFACBCCE-E3FB-4BCA-8570-ECC8896484DE/assets/8A242FBE5A7A27E0F3B237F944434D2D.png" width="277.00" height="293.00" transform="matrix(1.00, 0.00, -0.00, -1.00, 741.5, 758.0)" opacity="0.50"></image><path d="M 0.0 0.0 L 264.4 0.0 L 264.4 280.4 L 0.0 280.4 Z M 0.0 0.0 " fill="none" stroke="#912623" stroke-width="7.00" transform="matrix(1.00, 0.00, 0.00, -1.00, 748.0, 753.5)"></path><image xlink:href="../../FFACBCCE-E3FB-4BCA-8570-ECC8896484DE/assets/85509769F90E1BD4B1C1DFF883FEAD53.png" width="277.00" height="293.00" transform="matrix(1.00, 0.00, -0.00, -1.00, 741.6, 451.6)" opacity="0.50"></image><path d="M 0.0 0.0 L 264.4 0.0 L 264.4 280.0 L 0.0 280.0 Z M 0.0 0.0 " fill="none" stroke="#3F508D" stroke-width="7.00" transform="matrix(1.00, 0.00, 0.00, -1.00, 748.1, 447.1)"></path><image xlink:href="../../C9720D34-57F3-417A-BA8C-B1F90B1620AB/assets/5CB4FD82F76B934BBBAEC6868EDA3E3F.png" width="274.00" height="541.00" transform="matrix(-1.20, 0.00, 0.00, -1.20, 330.0, 770.0)"></image><image xlink:href="../../C9720D34-57F3-417A-BA8C-B1F90B1620AB/assets/C14B7714A4D71528CC05767243B5F2B2.png" width="287.00" height="541.00" transform="matrix(-1.14, 0.00, 0.00, -1.14, 675.0, 740.0)"></image><text xml:space="preserve" font-family="Helvetica-Bold" font-weight="bold" font-size="47.0" fill="#B96EDB" transform="matrix(1.00, 0.00, -0.00, -1.00, 262.0, 415.0)">?</text><path d="M 0.0 0.0 L 113.2 0.0 " fill="none" stroke="#F4F243" stroke-width="4.00" transform="matrix(-0.98, -0.18, -0.18, 0.98, 260.8, 427.2)"></path><text xml:space="preserve" font-family="Helvetica-Bold" font-weight="bold" font-size="47.0" fill="#B96EDB" transform="matrix(1.00, 0.00, -0.00, -1.00, 400.0, 415.0)">?</text><path d="M 0.0 0.0 L 48.1 0.0 " fill="none" stroke="#B96EDB" stroke-width="4.00" transform="matrix(0.96, -0.29, -0.29, -0.96, 434.5, 426.9)"></path></g></svg>