<?xml version="1.0" encoding="UTF-8" standalone="no"?><svg xmlns="http://www.w3.org/2000/svg" xmlns:xlink="http://www.w3.org/1999/xlink" clip-rule="evenodd" stroke-miterlimit="4.00" viewBox="0 0 1024 768"><desc>SVG generated by Keynote</desc><defs></defs><g transform="matrix(1.00, 0.00, -0.00, -1.00, 0.0, 768.0)"><path d="M 0.0 768.0 L 1024.0 768.0 L 1024.0 0.0 L 0.0 0.0 Z M 0.0 768.0 " fill="#DDDDDD"></path><image xlink:href="CD769AE4FFA48638AED6158A782ECEF9.png" width="343.00" height="541.00" transform="matrix(1.30, 0.00, -0.00, -1.29, 196.0, 768.0)"></image><text xml:space="preserve" font-family="ArialMT" font-size="58.0" fill="#878787" transform="matrix(1.00, 0.00, -0.00, -1.00, 935.4, 15.5)">8</text><image xlink:href="1E2E00DC53BAC7DE277ECCA79554E797.png" width="231.00" height="540.00" transform="matrix(1.24, 0.00, -0.00, -1.24, 691.0, 809.0)"></image><text xml:space="preserve" font-family="Helvetica-Bold" font-weight="bold" font-size="47.0" fill="#B96EDB" transform="matrix(1.00, 0.00, -0.00, -1.00, 238.0, 312.0)">?</text><path d="M 0.0 0.0 L 65.5 0.0 " fill="none" stroke="#F4F243" stroke-width="4.00" transform="matrix(0.96, 0.29, 0.29, -0.96, 270.3, 330.6)"></path><text xml:space="preserve" font-family="Helvetica-Bold" font-weight="bold" font-size="47.0" fill="#B96EDB" transform="matrix(1.00, 0.00, -0.00, -1.00, 702.0, 323.0)">?</text><path d="M 0.0 0.0 L 69.8 0.0 " fill="none" stroke="#B96EDB" stroke-width="4.00" transform="matrix(0.93, 0.37, 0.37, -0.93, 736.0, 336.5)"></path><image xlink:href="../../D6EA4DC9-F92B-4E53-9352-720026A56BA4/assets/4A55B5447384878DA944ADB099EDC59D.png" width="222.00" height="318.00" transform="matrix(1.00, 0.00, -0.00, -1.00, -4.0, 769.0)"></image></g></svg>