<?xml version="1.0" encoding="UTF-8" standalone="no"?><svg xmlns="http://www.w3.org/2000/svg" xmlns:xlink="http://www.w3.org/1999/xlink" clip-rule="evenodd" stroke-miterlimit="4.00" viewBox="0 0 1024 768"><desc>SVG generated by Keynote</desc><defs></defs><g transform="matrix(1.00, 0.00, -0.00, -1.00, 0.0, 768.0)"><path d="M 0.0 768.0 L 1024.0 768.0 L 1024.0 0.0 L 0.0 0.0 Z M 0.0 768.0 " fill="#000000"></path><text xml:space="preserve" font-family="TimesNewRomanPSMT" font-size="62.0" fill="#FFFFFF" transform="matrix(1.00, 0.00, -0.00, -1.00, 404.0, 652.0)">P</text><text xml:space="preserve" font-family="TimesNewRomanPSMT" font-size="62.0" fill="#FFFFFF" transform="matrix(1.00, 0.00, -0.00, -1.00, 438.5, 652.0)">l</text><text xml:space="preserve" font-family="TimesNewRomanPSMT" font-size="62.0" fill="#FFFFFF" transform="matrix(1.00, 0.00, -0.00, -1.00, 455.7, 652.0)">a</text><text xml:space="preserve" font-family="TimesNewRomanPSMT" font-size="62.0" fill="#FFFFFF" transform="matrix(1.00, 0.00, -0.00, -1.00, 483.2, 652.0)">n</text><text xml:space="preserve" font-family="TimesNewRomanPSMT" font-size="62.0" fill="#FFFFFF" transform="matrix(1.00, 0.00, -0.00, -1.00, 514.2, 652.0)"> </text><text xml:space="preserve" font-family="TimesNewRomanPSMT" font-size="62.0" fill="#FFFFFF" transform="matrix(1.00, 0.00, -0.00, -1.00, 529.7, 652.0)">…</text><text xml:space="preserve" font-family="TimesNewRomanPSMT" font-size="62.0" fill="#FFFFFF" transform="matrix(1.00, 0.00, -0.00, -1.00, 591.7, 652.0)">?</text><image xlink:href="EDA53E033A1302D7780E8576DAF0DC71.png" width="450.00" height="507.00" transform="matrix(1.00, 0.00, -0.00, -1.00, 287.0, 589.0)"></image><text xml:space="preserve" font-family="ArialMT" font-size="58.0" fill="#878787" transform="matrix(1.00, 0.00, -0.00, -1.00, 903.2, 15.5)">1</text><text xml:space="preserve" font-family="ArialMT" font-size="58.0" fill="#878787" transform="matrix(1.00, 0.00, -0.00, -1.00, 935.4, 15.5)">9</text></g></svg>