<?xml version="1.0" encoding="UTF-8" standalone="no"?><svg xmlns="http://www.w3.org/2000/svg" xmlns:xlink="http://www.w3.org/1999/xlink" clip-rule="evenodd" stroke-miterlimit="4.00" viewBox="0 0 1024 768"><desc>SVG generated by Keynote</desc><defs><pattern id="0589B00D-20C5-47A3-8811-8CAB3CA05471" patternUnits="userSpaceOnUse" width="334" height="334" viewBox="0 0 334 334" patternTransform="matrix(0.898204, 0.000000, 0.000000, -0.898204, 174.721800, 771.804500)"><image xlink:href="../../1A81FDF9-AE2C-4495-AFB2-68D19D91DF79/assets/CF5C1FBC835CF34ADBBA57D7B8B41202.jpeg" width="334.00" height="334.00"></image></pattern></defs><g transform="matrix(1.00, 0.00, -0.00, -1.00, 0.0, 768.0)"><path d="M 0.0 768.0 L 1024.0 768.0 L 1024.0 0.0 L 0.0 0.0 Z M 0.0 768.0 " fill="#DDDDDD"></path><text xml:space="preserve" font-family="ArialMT" font-size="58.0" fill="#878787" transform="matrix(1.00, 0.00, -0.00, -1.00, 903.2, 15.5)">8</text><text xml:space="preserve" font-family="ArialMT" font-size="58.0" fill="#878787" transform="matrix(1.00, 0.00, -0.00, -1.00, 935.4, 15.5)">1</text><text xml:space="preserve" font-family="Helvetica-Bold" font-weight="bold" font-size="47.0" fill="#B96EDB" transform="matrix(1.00, 0.00, -0.00, -1.00, 276.0, 343.0)">?</text><image xlink:href="../../D00EE599-7BEA-438C-9506-AE452B0A2332/assets/41D77D2A0A1A73817B7090ABAFEE3B44.png" width="163.00" height="540.00" transform="matrix(-1.47, 0.00, 0.00, -1.46, 237.0, 765.0)"></image><image xlink:href="../../D00EE599-7BEA-438C-9506-AE452B0A2332/assets/6ED4A3D0A2CA3A0C77CEB1ED0113DB4D.png" width="390.00" height="540.00" transform="matrix(-1.42, 0.00, 0.00, -1.42, 876.0, 768.0)"></image><g><clipPath id="clip-121"><path d="M 174.7 771.8 L 508.0 771.8 L 508.0 742.7 L 174.7 742.7 Z M 174.7 771.8 "></path></clipPath><g clip-path="url(#clip-121)"><path d="M 174.7 742.7 L 508.0 742.7 L 508.0 768.0 L 174.7 768.0 Z M 174.7 742.7 " fill="url(#0589B00D-20C5-47A3-8811-8CAB3CA05471)"></path><path d="M 174.7 771.8 L 508.0 771.8 L 508.0 742.7 L 174.7 742.7 Z M 174.7 771.8 " fill="#DDDDDD"></path></g></g><path d="M 0.0 0.0 L 198.7 0.0 " fill="none" stroke="#F4F243" stroke-width="4.00" transform="matrix(-0.98, 0.22, 0.22, 0.98, 508.3, 310.9)"></path><path d="M 0.0 0.0 L 104.3 0.0 " fill="none" stroke="#F4F243" stroke-width="4.00" transform="matrix(-0.95, -0.32, -0.32, 0.95, 272.9, 355.5)"></path></g></svg>