<?xml version="1.0" encoding="UTF-8" standalone="no"?><svg xmlns="http://www.w3.org/2000/svg" xmlns:xlink="http://www.w3.org/1999/xlink" clip-rule="evenodd" stroke-miterlimit="4.00" viewBox="0 0 1024 768"><desc>SVG generated by Keynote</desc><defs></defs><g transform="matrix(1.00, 0.00, -0.00, -1.00, 0.0, 768.0)"><path d="M 0.0 768.0 L 1024.0 768.0 L 1024.0 0.0 L 0.0 0.0 Z M 0.0 768.0 " fill="#000000"></path><g><clipPath id="clip-50"><path d="M 392.0 722.0 L 603.0 722.0 L 603.0 73.0 L 392.0 73.0 Z M 391.6 721.7 "></path></clipPath><g clip-path="url(#clip-50)"><image xlink:href="../../43A1F1F6-D17D-4518-BD4D-9A89C7DBB0DE/assets/A8308795451C24B3C74A2336D91EC5E0.png" width="262.00" height="402.00" transform="matrix(1.61, 0.00, -0.00, -1.61, 390.0, 722.0)"></image></g></g><text xml:space="preserve" font-family="ArialMT" font-size="58.0" fill="#878787" transform="matrix(1.00, 0.00, -0.00, -1.00, 903.2, 15.5)">5</text><text xml:space="preserve" font-family="ArialMT" font-size="58.0" fill="#878787" transform="matrix(1.00, 0.00, -0.00, -1.00, 935.4, 15.5)">7</text><text xml:space="preserve" font-family="Helvetica-Bold" font-weight="bold" font-size="36.0" fill="#53D4B2" transform="matrix(1.00, 0.00, -0.00, -1.00, 813.0, 172.0)">R</text><text xml:space="preserve" font-family="Helvetica-Bold" font-weight="bold" font-size="36.0" fill="#53D4B2" transform="matrix(1.00, 0.00, -0.00, -1.00, 839.0, 172.0)">e</text><text xml:space="preserve" font-family="Helvetica-Bold" font-weight="bold" font-size="36.0" fill="#53D4B2" transform="matrix(1.00, 0.00, -0.00, -1.00, 859.0, 172.0)">l</text><text xml:space="preserve" font-family="Helvetica-Bold" font-weight="bold" font-size="36.0" fill="#53D4B2" transform="matrix(1.00, 0.00, -0.00, -1.00, 869.0, 172.0)">i</text><text xml:space="preserve" font-family="Helvetica-Bold" font-weight="bold" font-size="36.0" fill="#53D4B2" transform="matrix(1.00, 0.00, -0.00, -1.00, 879.0, 172.0)">e</text><text xml:space="preserve" font-family="Helvetica-Bold" font-weight="bold" font-size="36.0" fill="#53D4B2" transform="matrix(1.00, 0.00, -0.00, -1.00, 899.1, 172.0)">f</text><text xml:space="preserve" font-family="Helvetica-Bold" font-weight="bold" font-size="36.0" fill="#53D4B2" transform="matrix(1.00, 0.00, -0.00, -1.00, 911.0, 172.0)">?</text><path d="M 0.0 0.0 L 188.9 0.0 " fill="none" stroke="#53D4B2" stroke-width="4.00" transform="matrix(-0.98, -0.20, -0.20, 0.98, 798.4, 180.6)"></path></g></svg>