<?xml version="1.0" encoding="UTF-8" standalone="no"?><svg xmlns="http://www.w3.org/2000/svg" xmlns:xlink="http://www.w3.org/1999/xlink" clip-rule="evenodd" stroke-miterlimit="4.00" viewBox="0 0 1024 768"><desc>SVG generated by Keynote</desc><defs></defs><g transform="matrix(1.00, 0.00, -0.00, -1.00, 0.0, 768.0)"><path d="M 0.0 768.0 L 1024.0 768.0 L 1024.0 0.0 L 0.0 0.0 Z M 0.0 768.0 " fill="#000000"></path><text xml:space="preserve" font-family="ArialMT" font-size="58.0" fill="#878787" transform="matrix(1.00, 0.00, -0.00, -1.00, 875.2, 15.5)">1</text><text xml:space="preserve" font-family="ArialMT" font-size="58.0" fill="#878787" transform="matrix(1.00, 0.00, -0.00, -1.00, 903.2, 15.5)">1</text><text xml:space="preserve" font-family="ArialMT" font-size="58.0" fill="#878787" transform="matrix(1.00, 0.00, -0.00, -1.00, 935.4, 15.5)">0</text><image xlink:href="../../5D3EF521-5452-4498-BC9D-964DE451078B/assets/219F1A3DD2FBDFBDC9518D32636A40CA.png" width="380.00" height="369.00" transform="matrix(1.49, 0.00, -0.00, -1.49, 329.0, 669.0)"></image><text xml:space="preserve" font-family="Helvetica-Bold" font-weight="bold" font-size="36.0" fill="#53D4B2" transform="matrix(1.00, 0.00, -0.00, -1.00, 218.0, 454.0)">?</text><path d="M 0.0 0.0 L 238.9 0.0 " fill="none" stroke="#00FCFF" stroke-width="4.00" transform="matrix(-1.00, 0.00, 0.00, 1.00, 499.2, 467.2)"></path><path d="M 0.0 0.0 L 382.2 0.0 " fill="none" stroke="#00FCFF" stroke-width="4.00" transform="matrix(-1.00, -0.05, -0.05, 1.00, 677.0, 486.2)"></path></g></svg>