<?xml version="1.0" encoding="UTF-8" standalone="no"?><svg xmlns="http://www.w3.org/2000/svg" xmlns:xlink="http://www.w3.org/1999/xlink" clip-rule="evenodd" stroke-miterlimit="4.00" viewBox="0 0 1024 768"><desc>SVG generated by Keynote</desc><defs></defs><g transform="matrix(1.00, 0.00, -0.00, -1.00, 0.0, 768.0)"><path d="M 0.0 768.0 L 1024.0 768.0 L 1024.0 0.0 L 0.0 0.0 Z M 0.0 768.0 " fill="#DDDDDD"></path><text xml:space="preserve" font-family="ArialMT" font-size="58.0" fill="#878787" transform="matrix(1.00, 0.00, -0.00, -1.00, 870.0, 15.5)">1</text><text xml:space="preserve" font-family="ArialMT" font-size="58.0" fill="#878787" transform="matrix(1.00, 0.00, -0.00, -1.00, 902.2, 15.5)">2</text><text xml:space="preserve" font-family="ArialMT" font-size="58.0" fill="#878787" transform="matrix(1.00, 0.00, -0.00, -1.00, 934.5, 15.5)">3</text><g><clipPath id="clip-222"><path d="M 1011.0 446.0 L 752.0 446.0 L 752.0 168.0 L 1011.0 168.0 Z M 1011.0 446.0 "></path></clipPath><g clip-path="url(#clip-222)"><image xlink:href="E16786FCDFD572F97E1DE123E975B762.png" width="274.00" height="278.00" transform="matrix(-1.00, 0.00, 0.00, -1.00, 1001.0, 465.0)"></image></g></g><g><clipPath id="clip-223"><path d="M 1013.0 753.0 L 748.0 753.0 L 748.0 475.0 L 1013.0 475.0 Z M 1012.7 752.6 "></path></clipPath><g clip-path="url(#clip-223)"><image xlink:href="3E614E1F9EB37D6DD1CD069C6C667EC6.png" width="121.00" height="437.00" transform="matrix(-1.00, 0.00, 0.00, -1.00, 941.0, 914.0)"></image></g></g><image xlink:href="../../FFACBCCE-E3FB-4BCA-8570-ECC8896484DE/assets/8A242FBE5A7A27E0F3B237F944434D2D.png" width="277.00" height="293.00" transform="matrix(1.00, 0.00, -0.00, -1.00, 741.5, 758.0)" opacity="0.50"></image><path d="M 0.0 0.0 L 264.4 0.0 L 264.4 280.4 L 0.0 280.4 Z M 0.0 0.0 " fill="none" stroke="#912623" stroke-width="7.00" transform="matrix(1.00, 0.00, 0.00, -1.00, 748.0, 753.5)"></path><image xlink:href="../../FFACBCCE-E3FB-4BCA-8570-ECC8896484DE/assets/85509769F90E1BD4B1C1DFF883FEAD53.png" width="277.00" height="293.00" transform="matrix(1.00, 0.00, -0.00, -1.00, 741.6, 451.6)" opacity="0.50"></image><path d="M 0.0 0.0 L 264.4 0.0 L 264.4 280.0 L 0.0 280.0 Z M 0.0 0.0 " fill="none" stroke="#3F508D" stroke-width="7.00" transform="matrix(1.00, 0.00, 0.00, -1.00, 748.1, 447.1)"></path><image xlink:href="../../1FF132E1-1B72-4B15-BBC7-079E1DA79319/assets/37FDBFC2E174F7F2374C0A87961FA23C.png" width="274.00" height="540.00" transform="matrix(-1.25, 0.00, 0.00, -1.25, 344.0, 769.0)"></image><text xml:space="preserve" font-family="Helvetica-Bold" font-weight="bold" font-size="47.0" fill="#B96EDB" transform="matrix(1.00, 0.00, -0.00, -1.00, 260.0, 355.0)">?</text><path d="M 0.0 0.0 L 70.4 0.0 " fill="none" stroke="#F4F243" stroke-width="4.00" transform="matrix(-0.98, -0.20, -0.20, 0.98, 260.8, 371.2)"></path><image xlink:href="../../1FF132E1-1B72-4B15-BBC7-079E1DA79319/assets/558946997DE866BD3A8B43638F313D0D.png" width="322.00" height="501.00" transform="matrix(-1.00, 0.00, 0.00, -1.00, 683.0, 730.0)"></image><text xml:space="preserve" font-family="Helvetica-Bold" font-weight="bold" font-size="47.0" fill="#B96EDB" transform="matrix(1.00, 0.00, -0.00, -1.00, 418.0, 448.0)">?</text><path d="M 0.0 0.0 L 48.1 0.0 " fill="none" stroke="#B96EDB" stroke-width="4.00" transform="matrix(0.96, -0.29, -0.29, -0.96, 453.1, 459.6)"></path></g></svg>