<?xml version="1.0" encoding="UTF-8" standalone="no"?><svg xmlns="http://www.w3.org/2000/svg" xmlns:xlink="http://www.w3.org/1999/xlink" clip-rule="evenodd" stroke-miterlimit="4.00" viewBox="0 0 1024 768"><desc>SVG generated by Keynote</desc><defs></defs><g transform="matrix(1.00, 0.00, -0.00, -1.00, 0.0, 768.0)"><path d="M 0.0 768.0 L 1024.0 768.0 L 1024.0 0.0 L 0.0 0.0 Z M 0.0 768.0 " fill="#DDDDDD"></path><image xlink:href="../../F22F2CBB-C7E8-48F7-A7CE-11FC187E4571/assets/07661EA3836821F796C0E3D40B6C3FEA.png" width="344.00" height="541.00" transform="matrix(1.30, 0.00, -0.00, -1.30, 191.0, 768.0)"></image><text xml:space="preserve" font-family="ArialMT" font-size="58.0" fill="#878787" transform="matrix(1.00, 0.00, -0.00, -1.00, 903.2, 15.5)">1</text><text xml:space="preserve" font-family="ArialMT" font-size="58.0" fill="#878787" transform="matrix(1.00, 0.00, -0.00, -1.00, 935.4, 15.5)">0</text><text xml:space="preserve" font-family="Helvetica-Bold" font-weight="bold" font-size="47.0" fill="#B96EDB" transform="matrix(1.00, 0.00, -0.00, -1.00, 238.0, 312.0)">?</text><image xlink:href="../../F22F2CBB-C7E8-48F7-A7CE-11FC187E4571/assets/6DA26694633C3268C1192C07BAF31F84.png" width="207.00" height="540.00" transform="matrix(1.15, 0.00, -0.00, -1.15, 728.0, 793.0)"></image><path d="M 0.0 0.0 L 77.0 0.0 " fill="none" stroke="#F4F243" stroke-width="4.00" transform="matrix(0.97, 0.25, 0.25, -0.97, 270.3, 330.6)"></path><text xml:space="preserve" font-family="Helvetica-Bold" font-weight="bold" font-size="47.0" fill="#B96EDB" transform="matrix(1.00, 0.00, -0.00, -1.00, 702.0, 323.0)">?</text><path d="M 0.0 0.0 L 69.8 0.0 " fill="none" stroke="#B96EDB" stroke-width="4.00" transform="matrix(0.93, 0.37, 0.37, -0.93, 736.0, 336.5)"></path><image xlink:href="../../D6EA4DC9-F92B-4E53-9352-720026A56BA4/assets/4A55B5447384878DA944ADB099EDC59D.png" width="222.00" height="318.00" transform="matrix(1.00, 0.00, -0.00, -1.00, -4.0, 769.0)"></image></g></svg>