<?xml version="1.0" encoding="UTF-8" standalone="no"?><svg xmlns="http://www.w3.org/2000/svg" xmlns:xlink="http://www.w3.org/1999/xlink" clip-rule="evenodd" stroke-miterlimit="4.00" viewBox="0 0 1024 768"><desc>SVG generated by Keynote</desc><defs></defs><g transform="matrix(1.00, 0.00, -0.00, -1.00, 0.0, 768.0)"><path d="M 0.0 768.0 L 1024.0 768.0 L 1024.0 0.0 L 0.0 0.0 Z M 0.0 768.0 " fill="#000000"></path><g><clipPath id="clip-216"><path d="M 461.0 648.0 L 684.0 648.0 L 684.0 120.0 L 461.0 120.0 Z M 460.5 648.1 "></path></clipPath><g clip-path="url(#clip-216)"><image xlink:href="B4E8C0AA40862946742BCFC417BEB9F0.png" width="437.00" height="514.00" transform="matrix(1.03, 0.00, -0.00, -1.03, 461.0, 648.0)"></image></g></g><text xml:space="preserve" font-family="ArialMT" font-size="58.0" fill="#878787" transform="matrix(1.00, 0.00, -0.00, -1.00, 870.9, 15.5)">1</text><text xml:space="preserve" font-family="ArialMT" font-size="58.0" fill="#878787" transform="matrix(1.00, 0.00, -0.00, -1.00, 903.2, 15.5)">0</text><text xml:space="preserve" font-family="ArialMT" font-size="58.0" fill="#878787" transform="matrix(1.00, 0.00, -0.00, -1.00, 935.4, 15.5)">3</text><text xml:space="preserve" font-family="Helvetica-Bold" font-weight="bold" font-size="36.0" fill="#53D4B2" transform="matrix(1.00, 0.00, -0.00, -1.00, 706.0, 302.0)">?</text><path d="M 0.0 0.0 L 117.1 0.0 " fill="none" stroke="#53D4B2" stroke-width="4.00" transform="matrix(-0.97, -0.23, -0.23, 0.97, 699.3, 309.7)"></path></g></svg>