<?xml version="1.0" encoding="UTF-8" standalone="no"?><svg xmlns="http://www.w3.org/2000/svg" xmlns:xlink="http://www.w3.org/1999/xlink" clip-rule="evenodd" stroke-miterlimit="4.00" viewBox="0 0 1024 768"><desc>SVG generated by Keynote</desc><defs><pattern id="BC298F48-411D-45AB-A264-B30976341956" patternUnits="userSpaceOnUse" width="334" height="334" viewBox="0 0 334 334" patternTransform="matrix(0.898204, 0.000000, 0.000000, -0.898204, 174.721800, 771.804500)"><image xlink:href="../../1A81FDF9-AE2C-4495-AFB2-68D19D91DF79/assets/CF5C1FBC835CF34ADBBA57D7B8B41202.jpeg" width="334.00" height="334.00"></image></pattern></defs><g transform="matrix(1.00, 0.00, -0.00, -1.00, 0.0, 768.0)"><path d="M 0.0 768.0 L 1024.0 768.0 L 1024.0 0.0 L 0.0 0.0 Z M 0.0 768.0 " fill="#DDDDDD"></path><image xlink:href="../../6989C08B-1456-43A1-89E7-3782F4E479CC/assets/BAA12DF5FEEEF8AEB54C71A032E78497.png" width="439.00" height="540.00" transform="matrix(1.26, 0.00, -0.00, -1.25, 237.0, 722.0)"></image><text xml:space="preserve" font-family="ArialMT" font-size="58.0" fill="#878787" transform="matrix(1.00, 0.00, -0.00, -1.00, 903.2, 15.5)">6</text><text xml:space="preserve" font-family="ArialMT" font-size="58.0" fill="#878787" transform="matrix(1.00, 0.00, -0.00, -1.00, 935.4, 15.5)">2</text><g><clipPath id="clip-91"><path d="M 174.7 771.8 L 508.0 771.8 L 508.0 742.7 L 174.7 742.7 Z M 174.7 771.8 "></path></clipPath><g clip-path="url(#clip-91)"><path d="M 174.7 742.7 L 508.0 742.7 L 508.0 768.0 L 174.7 768.0 Z M 174.7 742.7 " fill="url(#BC298F48-411D-45AB-A264-B30976341956)"></path><path d="M 174.7 771.8 L 508.0 771.8 L 508.0 742.7 L 174.7 742.7 Z M 174.7 771.8 " fill="#DDDDDD"></path></g></g><text xml:space="preserve" font-family="Helvetica-Bold" font-weight="bold" font-size="47.0" fill="#B96EDB" transform="matrix(1.00, 0.00, -0.00, -1.00, 253.0, 161.0)">?</text><path d="M 0.0 0.0 L 219.2 0.0 " fill="none" stroke="#BA6EDC" stroke-width="4.00" transform="matrix(-0.98, -0.21, -0.21, 0.98, 506.4, 225.4)"></path></g></svg>