<?xml version="1.0" encoding="UTF-8" standalone="no"?><svg xmlns="http://www.w3.org/2000/svg" xmlns:xlink="http://www.w3.org/1999/xlink" clip-rule="evenodd" stroke-miterlimit="4.00" viewBox="0 0 1024 768"><desc>SVG generated by Keynote</desc><defs></defs><g transform="matrix(1.00, 0.00, -0.00, -1.00, 0.0, 768.0)"><path d="M 0.0 768.0 L 1024.0 768.0 L 1024.0 0.0 L 0.0 0.0 Z M 0.0 768.0 " fill="#000000"></path><text xml:space="preserve" font-family="ArialMT" font-size="58.0" fill="#878787" transform="matrix(1.00, 0.00, -0.00, -1.00, 903.2, 15.5)">5</text><text xml:space="preserve" font-family="ArialMT" font-size="58.0" fill="#878787" transform="matrix(1.00, 0.00, -0.00, -1.00, 935.4, 15.5)">0</text><g><clipPath id="clip-188"><path d="M 217.0 697.0 L 807.0 697.0 L 807.0 71.0 L 217.0 71.0 Z M 217.0 696.8 "></path></clipPath><g clip-path="url(#clip-188)"><image xlink:href="C287CD2E5D818D37C7E10A946111B546.png" width="526.00" height="548.00" transform="matrix(1.16, 0.00, -0.00, -1.16, 217.0, 697.0)"></image></g></g><text xml:space="preserve" font-family="Helvetica-Bold" font-weight="bold" font-size="36.0" fill="#53D4B2" transform="matrix(1.00, 0.00, -0.00, -1.00, 127.0, 538.0)">?</text><path d="M 0.0 0.0 L 322.3 0.0 " fill="none" stroke="#00FCFF" stroke-width="4.00" transform="matrix(-1.00, 0.00, 0.00, 1.00, 482.0, 551.3)"></path></g></svg>