<?xml version="1.0" encoding="UTF-8" standalone="no"?><svg xmlns="http://www.w3.org/2000/svg" xmlns:xlink="http://www.w3.org/1999/xlink" clip-rule="evenodd" stroke-miterlimit="4.00" viewBox="0 0 1024 768"><desc>SVG generated by Keynote</desc><defs></defs><g transform="matrix(1.00, 0.00, -0.00, -1.00, 0.0, 768.0)"><path d="M 0.0 768.0 L 1024.0 768.0 L 1024.0 0.0 L 0.0 0.0 Z M 0.0 768.0 " fill="#FEFFFF"></path><g><clipPath id="clip-157"><path d="M 251.0 704.0 L 773.0 704.0 L 773.0 64.0 L 251.0 64.0 Z M 251.2 704.0 "></path></clipPath><g clip-path="url(#clip-157)"><image xlink:href="../../6D260374-3B64-4C3D-A009-F7D50487CEAC/assets/414F9F4CD3211040125278C70BF8F7C2.png" width="606.00" height="540.00" transform="matrix(1.36, 0.00, -0.00, -1.36, -52.0, 762.0)"></image></g></g><text xml:space="preserve" font-family="ArialMT" font-size="58.0" fill="#878787" transform="matrix(1.00, 0.00, -0.00, -1.00, 870.9, 15.5)">1</text><text xml:space="preserve" font-family="ArialMT" font-size="58.0" fill="#878787" transform="matrix(1.00, 0.00, -0.00, -1.00, 903.2, 15.5)">6</text><text xml:space="preserve" font-family="ArialMT" font-size="58.0" fill="#878787" transform="matrix(1.00, 0.00, -0.00, -1.00, 935.4, 15.5)">3</text><path d="M 0.0 0.0 L 178.0 0.0 " fill="none" stroke="#000000" stroke-width="4.00" transform="matrix(-0.93, -0.38, -0.38, 0.93, 792.1, 246.0)"></path><text xml:space="preserve" font-family="Helvetica-Bold" font-weight="bold" font-size="36.0" fill="#000000" transform="matrix(1.00, 0.00, -0.00, -1.00, 803.0, 241.0)">?</text><image xlink:href="../../6D260374-3B64-4C3D-A009-F7D50487CEAC/assets/12805CBFF92675A3E6F8B708DB8335AE.png" width="201.00" height="174.00" transform="matrix(1.00, 0.00, -0.00, -1.00, 14.0, 742.0)"></image></g></svg>