<?xml version="1.0" encoding="UTF-8" standalone="no"?><svg xmlns="http://www.w3.org/2000/svg" xmlns:xlink="http://www.w3.org/1999/xlink" clip-rule="evenodd" stroke-miterlimit="4.00" viewBox="0 0 1024 768"><desc>SVG generated by Keynote</desc><defs></defs><g transform="matrix(1.00, 0.00, -0.00, -1.00, 0.0, 768.0)"><path d="M 0.0 768.0 L 1024.0 768.0 L 1024.0 0.0 L 0.0 0.0 Z M 0.0 768.0 " fill="#DDDDDD"></path><image xlink:href="F82440527EEF45D3743BE87F5C237855.png" width="275.00" height="541.00" transform="matrix(-1.29, 0.00, 0.00, -1.28, 358.0, 769.0)"></image><text xml:space="preserve" font-family="ArialMT" font-size="58.0" fill="#878787" transform="matrix(1.00, 0.00, -0.00, -1.00, 870.9, 15.5)">1</text><text xml:space="preserve" font-family="ArialMT" font-size="58.0" fill="#878787" transform="matrix(1.00, 0.00, -0.00, -1.00, 903.2, 15.5)">3</text><text xml:space="preserve" font-family="ArialMT" font-size="58.0" fill="#878787" transform="matrix(1.00, 0.00, -0.00, -1.00, 935.4, 15.5)">3</text><text xml:space="preserve" font-family="Helvetica-Bold" font-weight="bold" font-size="47.0" fill="#B96EDB" transform="matrix(1.00, 0.00, -0.00, -1.00, 234.0, 677.0)">?</text><image xlink:href="86BC98D79C0351004115089ACA9408D6.png" width="272.00" height="541.00" transform="matrix(-1.29, 0.00, 0.00, -1.28, 700.0, 769.0)"></image><image xlink:href="7C4A63800919BDB2F3B2E39FDAE985C8.png" width="231.00" height="541.00" transform="matrix(-1.01, 0.00, 0.00, -1.01, 970.0, 825.0)"></image><path d="M 0.0 0.0 L 154.0 0.0 " fill="none" stroke="#F4F243" stroke-width="4.00" transform="matrix(-0.98, -0.17, -0.17, 0.98, 232.3, 689.1)"></path><text xml:space="preserve" font-family="Helvetica-Bold" font-weight="bold" font-size="47.0" fill="#B96EDB" transform="matrix(1.00, 0.00, -0.00, -1.00, 680.0, 613.0)">?</text><path d="M 0.0 0.0 L 65.3 0.0 " fill="none" stroke="#B96EDB" stroke-width="4.00" transform="matrix(0.93, 0.36, 0.36, -0.93, 715.1, 630.8)"></path></g></svg>