<?xml version="1.0" encoding="UTF-8" standalone="no"?><svg xmlns="http://www.w3.org/2000/svg" xmlns:xlink="http://www.w3.org/1999/xlink" clip-rule="evenodd" stroke-miterlimit="4.00" viewBox="0 0 1024 768"><desc>SVG generated by Keynote</desc><defs><pattern id="18F4E35B-0B42-4133-822D-DBF4A220460E" patternUnits="userSpaceOnUse" width="334" height="334" viewBox="0 0 334 334" patternTransform="matrix(0.898204, 0.000000, 0.000000, -0.898204, 174.721800, 771.804500)"><image xlink:href="CF5C1FBC835CF34ADBBA57D7B8B41202.jpeg" width="334.00" height="334.00"></image></pattern></defs><g transform="matrix(1.00, 0.00, -0.00, -1.00, 0.0, 768.0)"><path d="M 0.0 768.0 L 1024.0 768.0 L 1024.0 0.0 L 0.0 0.0 Z M 0.0 768.0 " fill="#DDDDDD"></path><text xml:space="preserve" font-family="ArialMT" font-size="58.0" fill="#878787" transform="matrix(1.00, 0.00, -0.00, -1.00, 903.2, 15.5)">2</text><text xml:space="preserve" font-family="ArialMT" font-size="58.0" fill="#878787" transform="matrix(1.00, 0.00, -0.00, -1.00, 935.4, 15.5)">5</text><image xlink:href="96A4E1A1481AAFDDDF795745CF335FCE.png" width="381.00" height="540.00" transform="matrix(-1.43, 0.00, 0.00, -1.42, 856.0, 762.0)"></image><image xlink:href="338120FE8A0AB3DDC375B96C41B479E2.png" width="167.00" height="540.00" transform="matrix(-1.43, 0.00, 0.00, -1.42, 245.0, 768.0)"></image><text xml:space="preserve" font-family="Helvetica-Bold" font-weight="bold" font-size="47.0" fill="#B96EDB" transform="matrix(1.00, 0.00, -0.00, -1.00, 276.0, 343.0)">?</text><g><clipPath id="clip-37"><path d="M 174.7 771.8 L 508.0 771.8 L 508.0 742.7 L 174.7 742.7 Z M 174.7 771.8 "></path></clipPath><g clip-path="url(#clip-37)"><path d="M 174.7 742.7 L 508.0 742.7 L 508.0 768.0 L 174.7 768.0 Z M 174.7 742.7 " fill="url(#18F4E35B-0B42-4133-822D-DBF4A220460E)"></path><path d="M 174.7 771.8 L 508.0 771.8 L 508.0 742.7 L 174.7 742.7 Z M 174.7 771.8 " fill="#DDDDDD"></path></g></g><path d="M 0.0 0.0 L 190.2 0.0 " fill="none" stroke="#F4F243" stroke-width="4.00" transform="matrix(-0.97, 0.24, 0.24, 0.97, 499.0, 309.0)"></path><path d="M 0.0 0.0 L 88.0 0.0 " fill="none" stroke="#F4F243" stroke-width="4.00" transform="matrix(-0.96, -0.27, -0.27, 0.96, 272.9, 355.5)"></path></g></svg>