<?xml version="1.0" encoding="UTF-8" standalone="no"?><svg xmlns="http://www.w3.org/2000/svg" xmlns:xlink="http://www.w3.org/1999/xlink" clip-rule="evenodd" stroke-miterlimit="4.00" viewBox="0 0 1024 768"><desc>SVG generated by Keynote</desc><defs></defs><g transform="matrix(1.00, 0.00, -0.00, -1.00, 0.0, 768.0)"><path d="M 0.0 768.0 L 1024.0 768.0 L 1024.0 0.0 L 0.0 0.0 Z M 0.0 768.0 " fill="#000000"></path><text xml:space="preserve" font-family="ArialMT" font-size="58.0" fill="#878787" transform="matrix(1.00, 0.00, -0.00, -1.00, 870.9, 15.5)">1</text><text xml:space="preserve" font-family="ArialMT" font-size="58.0" fill="#878787" transform="matrix(1.00, 0.00, -0.00, -1.00, 903.2, 15.5)">0</text><text xml:space="preserve" font-family="ArialMT" font-size="58.0" fill="#878787" transform="matrix(1.00, 0.00, -0.00, -1.00, 935.4, 15.5)">4</text><g><clipPath id="clip-152"><path d="M 703.0 645.0 L 348.0 645.0 L 348.0 -68.0 L 703.0 -68.0 Z M 702.5 644.6 "></path></clipPath><g clip-path="url(#clip-152)"><image xlink:href="../../4E0D3ACF-FA8F-41F2-8D01-B3EAD01854A5/assets/F97F8A23D5F0E4FE26A551B672C67B39.png" width="600.00" height="578.00" transform="matrix(-1.23, 0.00, 0.00, -1.23, 1087.0, 645.0)"></image></g></g><text xml:space="preserve" font-family="Helvetica-Bold" font-weight="bold" font-size="36.0" fill="#53D4B2" transform="matrix(1.00, 0.00, -0.00, -1.00, 24.0, 699.0)">M</text><text xml:space="preserve" font-family="Helvetica-Bold" font-weight="bold" font-size="36.0" fill="#53D4B2" transform="matrix(1.00, 0.00, -0.00, -1.00, 54.0, 699.0)">A</text><text xml:space="preserve" font-family="Helvetica-Bold" font-weight="bold" font-size="36.0" fill="#53D4B2" transform="matrix(1.00, 0.00, -0.00, -1.00, 80.0, 699.0)">I</text><text xml:space="preserve" font-family="Helvetica-Bold" font-weight="bold" font-size="36.0" fill="#53D4B2" transform="matrix(1.00, 0.00, -0.00, -1.00, 90.0, 699.0)">N</text><text xml:space="preserve" font-family="Helvetica-Bold" font-weight="bold" font-size="36.0" fill="#53D4B2" transform="matrix(1.00, 0.00, -0.00, -1.00, 116.0, 699.0)"> </text><text xml:space="preserve" font-family="Helvetica-Bold" font-weight="bold" font-size="36.0" fill="#53D4B2" transform="matrix(1.00, 0.00, -0.00, -1.00, 126.0, 699.0)">G</text><text xml:space="preserve" font-family="Helvetica-Bold" font-weight="bold" font-size="36.0" fill="#53D4B2" transform="matrix(1.00, 0.00, -0.00, -1.00, 154.0, 699.0)">A</text><text xml:space="preserve" font-family="Helvetica-Bold" font-weight="bold" font-size="36.0" fill="#53D4B2" transform="matrix(1.00, 0.00, -0.00, -1.00, 180.0, 699.0)">U</text><text xml:space="preserve" font-family="Helvetica-Bold" font-weight="bold" font-size="36.0" fill="#53D4B2" transform="matrix(1.00, 0.00, -0.00, -1.00, 206.0, 699.0)">C</text><text xml:space="preserve" font-family="Helvetica-Bold" font-weight="bold" font-size="36.0" fill="#53D4B2" transform="matrix(1.00, 0.00, -0.00, -1.00, 232.0, 699.0)">H</text><text xml:space="preserve" font-family="Helvetica-Bold" font-weight="bold" font-size="36.0" fill="#53D4B2" transform="matrix(1.00, 0.00, -0.00, -1.00, 258.0, 699.0)">E</text><text xml:space="preserve" font-family="Helvetica-Bold" font-weight="bold" font-size="36.0" fill="#53D4B2" transform="matrix(1.00, 0.00, -0.00, -1.00, 282.0, 699.0)"> </text><text xml:space="preserve" font-family="Helvetica-Bold" font-weight="bold" font-size="36.0" fill="#53D4B2" transform="matrix(1.00, 0.00, -0.00, -1.00, 292.0, 699.0)">O</text><text xml:space="preserve" font-family="Helvetica-Bold" font-weight="bold" font-size="36.0" fill="#53D4B2" transform="matrix(1.00, 0.00, -0.00, -1.00, 320.0, 699.0)">U</text><text xml:space="preserve" font-family="Helvetica-Bold" font-weight="bold" font-size="36.0" fill="#53D4B2" transform="matrix(1.00, 0.00, -0.00, -1.00, 346.0, 699.0)"> </text><text xml:space="preserve" font-family="Helvetica-Bold" font-weight="bold" font-size="36.0" fill="#53D4B2" transform="matrix(1.00, 0.00, -0.00, -1.00, 356.0, 699.0)">D</text><text xml:space="preserve" font-family="Helvetica-Bold" font-weight="bold" font-size="36.0" fill="#53D4B2" transform="matrix(1.00, 0.00, -0.00, -1.00, 382.0, 699.0)">R</text><text xml:space="preserve" font-family="Helvetica-Bold" font-weight="bold" font-size="36.0" fill="#53D4B2" transform="matrix(1.00, 0.00, -0.00, -1.00, 408.0, 699.0)">O</text><text xml:space="preserve" font-family="Helvetica-Bold" font-weight="bold" font-size="36.0" fill="#53D4B2" transform="matrix(1.00, 0.00, -0.00, -1.00, 436.0, 699.0)">I</text><text xml:space="preserve" font-family="Helvetica-Bold" font-weight="bold" font-size="36.0" fill="#53D4B2" transform="matrix(1.00, 0.00, -0.00, -1.00, 446.0, 699.0)">T</text><text xml:space="preserve" font-family="Helvetica-Bold" font-weight="bold" font-size="36.0" fill="#53D4B2" transform="matrix(1.00, 0.00, -0.00, -1.00, 468.0, 699.0)">E</text><text xml:space="preserve" font-family="Helvetica-Bold" font-weight="bold" font-size="36.0" fill="#53D4B2" transform="matrix(1.00, 0.00, -0.00, -1.00, 492.0, 699.0)">?</text></g></svg>