<?xml version="1.0" encoding="UTF-8" standalone="no"?><svg xmlns="http://www.w3.org/2000/svg" xmlns:xlink="http://www.w3.org/1999/xlink" clip-rule="evenodd" stroke-miterlimit="4.00" viewBox="0 0 1024 768"><desc>SVG generated by Keynote</desc><defs></defs><g transform="matrix(1.00, 0.00, -0.00, -1.00, 0.0, 768.0)"><path d="M 0.0 768.0 L 1024.0 768.0 L 1024.0 0.0 L 0.0 0.0 Z M 0.0 768.0 " fill="#DDDDDD"></path><text xml:space="preserve" font-family="ArialMT" font-size="58.0" fill="#878787" transform="matrix(1.00, 0.00, -0.00, -1.00, 903.2, 15.5)">5</text><text xml:space="preserve" font-family="ArialMT" font-size="58.0" fill="#878787" transform="matrix(1.00, 0.00, -0.00, -1.00, 935.4, 15.5)">7</text><g><clipPath id="clip-152"><path d="M 1011.0 446.0 L 752.0 446.0 L 752.0 168.0 L 1011.0 168.0 Z M 1011.0 446.0 "></path></clipPath><g clip-path="url(#clip-152)"><image xlink:href="8D5D7471D0F71601A9334D40B6217715.png" width="227.00" height="422.00" transform="matrix(-1.00, 0.00, 0.00, -1.00, 979.0, 469.0)"></image></g></g><g><clipPath id="clip-153"><path d="M 1036.0 752.0 L 771.0 752.0 L 771.0 475.0 L 1036.0 475.0 Z M 1035.6 751.9 "></path></clipPath><g clip-path="url(#clip-153)"><image xlink:href="62C7B2B7CC4FF0F7392CA85CA60E733D.png" width="265.00" height="519.00" transform="matrix(-1.00, 0.00, 0.00, -1.00, 956.0, 769.0)"></image></g></g><image xlink:href="../../FFACBCCE-E3FB-4BCA-8570-ECC8896484DE/assets/8A242FBE5A7A27E0F3B237F944434D2D.png" width="277.00" height="293.00" transform="matrix(1.00, 0.00, -0.00, -1.00, 741.5, 758.0)" opacity="0.50"></image><path d="M 0.0 0.0 L 264.4 0.0 L 264.4 280.4 L 0.0 280.4 Z M 0.0 0.0 " fill="none" stroke="#912623" stroke-width="7.00" transform="matrix(1.00, 0.00, 0.00, -1.00, 748.0, 753.5)"></path><image xlink:href="../../FFACBCCE-E3FB-4BCA-8570-ECC8896484DE/assets/85509769F90E1BD4B1C1DFF883FEAD53.png" width="277.00" height="293.00" transform="matrix(1.00, 0.00, -0.00, -1.00, 741.6, 451.6)" opacity="0.50"></image><path d="M 0.0 0.0 L 264.4 0.0 L 264.4 280.0 L 0.0 280.0 Z M 0.0 0.0 " fill="none" stroke="#3F508D" stroke-width="7.00" transform="matrix(1.00, 0.00, 0.00, -1.00, 748.1, 447.1)"></path><image xlink:href="../../C62FB1BF-233F-4407-AF65-CC685FC72422/assets/C4020A6BC669D9E4E4265C8E19B01012.png" width="234.00" height="540.00" transform="matrix(-1.35, 0.00, 0.00, -1.34, 346.0, 773.0)"></image><text xml:space="preserve" font-family="Helvetica-Bold" font-weight="bold" font-size="47.0" fill="#B96EDB" transform="matrix(1.00, 0.00, -0.00, -1.00, 364.0, 492.0)">?</text><path d="M 0.0 0.0 L 118.3 0.0 " fill="none" stroke="#F4F243" stroke-width="4.00" transform="matrix(-0.95, 0.30, 0.30, 0.95, 359.1, 513.5)"></path><image xlink:href="../../C62FB1BF-233F-4407-AF65-CC685FC72422/assets/A86951C8877505A19230C8A1F4D71533.png" width="188.00" height="541.00" transform="matrix(-1.04, 0.00, 0.00, -1.04, 655.0, 790.0)"></image><text xml:space="preserve" font-family="Helvetica-Bold" font-weight="bold" font-size="47.0" fill="#B96EDB" transform="matrix(1.00, 0.00, -0.00, -1.00, 634.0, 478.0)">?</text><path d="M 0.0 0.0 L 59.8 0.0 " fill="none" stroke="#B96EDB" stroke-width="4.00" transform="matrix(-0.93, 0.38, 0.38, 0.93, 631.6, 498.3)"></path></g></svg>