<?xml version="1.0" encoding="UTF-8" standalone="no"?><svg xmlns="http://www.w3.org/2000/svg" xmlns:xlink="http://www.w3.org/1999/xlink" clip-rule="evenodd" stroke-miterlimit="4.00" viewBox="0 0 1024 768"><desc>SVG generated by Keynote</desc><defs></defs><g transform="matrix(1.00, 0.00, -0.00, -1.00, 0.0, 768.0)"><path d="M 0.0 768.0 L 1024.0 768.0 L 1024.0 0.0 L 0.0 0.0 Z M 0.0 768.0 " fill="#DDDDDD"></path><text xml:space="preserve" font-family="ArialMT" font-size="58.0" fill="#878787" transform="matrix(1.00, 0.00, -0.00, -1.00, 903.2, 15.5)">7</text><text xml:space="preserve" font-family="ArialMT" font-size="58.0" fill="#878787" transform="matrix(1.00, 0.00, -0.00, -1.00, 935.4, 15.5)">7</text><g><clipPath id="clip-172"><path d="M 1011.0 446.0 L 752.0 446.0 L 752.0 168.0 L 1011.0 168.0 Z M 1011.0 446.0 "></path></clipPath><g clip-path="url(#clip-172)"><image xlink:href="../../FFACBCCE-E3FB-4BCA-8570-ECC8896484DE/assets/8D9442880BB569A780A238D40EECB6AB.png" width="174.00" height="541.00" transform="matrix(-1.14, 0.00, 0.00, -1.13, 980.0, 757.0)"></image></g></g><g><clipPath id="clip-173"><path d="M 1036.0 752.0 L 771.0 752.0 L 771.0 475.0 L 1036.0 475.0 Z M 1035.6 751.9 "></path></clipPath><g clip-path="url(#clip-173)"><image xlink:href="../../FFACBCCE-E3FB-4BCA-8570-ECC8896484DE/assets/635483837258BA97D504470831C06611.png" width="171.00" height="517.00" transform="matrix(-1.00, 0.00, 0.00, -1.00, 989.0, 807.0)"></image></g></g><image xlink:href="../../FFACBCCE-E3FB-4BCA-8570-ECC8896484DE/assets/8A242FBE5A7A27E0F3B237F944434D2D.png" width="277.00" height="293.00" transform="matrix(1.00, 0.00, -0.00, -1.00, 741.5, 758.0)" opacity="0.50"></image><path d="M 0.0 0.0 L 264.4 0.0 L 264.4 280.4 L 0.0 280.4 Z M 0.0 0.0 " fill="none" stroke="#912623" stroke-width="7.00" transform="matrix(1.00, 0.00, 0.00, -1.00, 748.0, 753.5)"></path><image xlink:href="../../FFACBCCE-E3FB-4BCA-8570-ECC8896484DE/assets/85509769F90E1BD4B1C1DFF883FEAD53.png" width="277.00" height="293.00" transform="matrix(1.00, 0.00, -0.00, -1.00, 741.6, 451.6)" opacity="0.50"></image><path d="M 0.0 0.0 L 264.4 0.0 L 264.4 280.0 L 0.0 280.0 Z M 0.0 0.0 " fill="none" stroke="#3F508D" stroke-width="7.00" transform="matrix(1.00, 0.00, 0.00, -1.00, 748.1, 447.1)"></path><image xlink:href="../../1EF1BB69-E954-4DB1-881E-74037D2ADD5C/assets/53D1A51BBED4702573C9544F1A29F396.png" width="277.00" height="540.00" transform="matrix(-1.26, 0.00, 0.00, -1.25, 397.0, 769.0)"></image><text xml:space="preserve" font-family="Helvetica-Bold" font-weight="bold" font-size="47.0" fill="#B96EDB" transform="matrix(1.00, 0.00, -0.00, -1.00, 290.0, 503.0)">?</text><path d="M 0.0 0.0 L 63.1 0.0 " fill="none" stroke="#F4F243" stroke-width="4.00" transform="matrix(-0.95, 0.32, 0.32, 0.95, 285.1, 524.9)"></path><image xlink:href="../../1EF1BB69-E954-4DB1-881E-74037D2ADD5C/assets/20E9413A0526EBD36D0CD9C82F28C338.png" width="220.00" height="540.00" transform="matrix(-1.10, 0.00, 0.00, -1.09, 669.0, 803.0)"></image><text xml:space="preserve" font-family="Helvetica-Bold" font-weight="bold" font-size="47.0" fill="#B96EDB" transform="matrix(1.00, 0.00, -0.00, -1.00, 642.0, 505.0)">?</text><path d="M 0.0 0.0 L 54.8 0.0 " fill="none" stroke="#B96EDB" stroke-width="4.00" transform="matrix(-0.94, 0.35, 0.35, 0.94, 636.2, 523.0)"></path></g></svg>