<?xml version="1.0" encoding="UTF-8" standalone="no"?><svg xmlns="http://www.w3.org/2000/svg" xmlns:xlink="http://www.w3.org/1999/xlink" clip-rule="evenodd" stroke-miterlimit="4.00" viewBox="0 0 1024 768"><desc>SVG generated by Keynote</desc><defs></defs><g transform="matrix(1.00, 0.00, -0.00, -1.00, 0.0, 768.0)"><path d="M 0.0 768.0 L 1024.0 768.0 L 1024.0 0.0 L 0.0 0.0 Z M 0.0 768.0 " fill="#000000"></path><text xml:space="preserve" font-family="ArialMT" font-size="58.0" fill="#878787" transform="matrix(1.00, 0.00, -0.00, -1.00, 903.2, 15.5)">9</text><text xml:space="preserve" font-family="ArialMT" font-size="58.0" fill="#878787" transform="matrix(1.00, 0.00, -0.00, -1.00, 935.4, 15.5)">8</text><text xml:space="preserve" font-family="Helvetica-Bold" font-weight="bold" font-size="36.0" fill="#53D4B2" transform="matrix(1.00, 0.00, -0.00, -1.00, 718.0, 432.0)">?</text><image xlink:href="../../B7236BE4-5DB7-42D5-BDC6-A2C7092CA13D/assets/6B5E25714FFCC8B97EF76FF6578446C7.png" width="190.00" height="621.00" transform="matrix(1.18, 0.00, -0.00, -1.18, 400.0, 749.0)"></image><path d="M 0.0 0.0 L 254.5 0.0 " fill="none" stroke="#00FCFF" stroke-width="4.00" transform="matrix(-1.00, -0.01, -0.01, 1.00, 704.9, 445.5)"></path><path d="M 0.0 0.0 L 237.0 0.0 " fill="none" stroke="#00FCFF" stroke-width="4.00" transform="matrix(-0.96, -0.29, -0.29, 0.96, 684.8, 445.0)"></path></g></svg>