<?xml version="1.0" encoding="UTF-8" standalone="no"?><svg xmlns="http://www.w3.org/2000/svg" xmlns:xlink="http://www.w3.org/1999/xlink" clip-rule="evenodd" stroke-miterlimit="4.00" viewBox="0 0 1024 768"><desc>SVG generated by Keynote</desc><defs></defs><g transform="matrix(1.00, 0.00, -0.00, -1.00, 0.0, 768.0)"><path d="M 0.0 768.0 L 1024.0 768.0 L 1024.0 0.0 L 0.0 0.0 Z M 0.0 768.0 " fill="#DDDDDD"></path><image xlink:href="../../3C6E5D1F-2617-4203-97C6-823663D30DDA/assets/3E1A8B9B7BB4CA0EEB3775D316F91F88.png" width="224.00" height="540.00" transform="matrix(-1.29, 0.00, 0.00, -1.29, 643.0, 773.0)"></image><image xlink:href="../../3C6E5D1F-2617-4203-97C6-823663D30DDA/assets/CC321CAC89C7A8FFD0503DF239A4D0F8.png" width="227.00" height="541.00" transform="matrix(-1.28, 0.00, 0.00, -1.27, 367.0, 768.0)"></image><text xml:space="preserve" font-family="ArialMT" font-size="58.0" fill="#878787" transform="matrix(1.00, 0.00, -0.00, -1.00, 903.2, 15.5)">5</text><text xml:space="preserve" font-family="ArialMT" font-size="58.0" fill="#878787" transform="matrix(1.00, 0.00, -0.00, -1.00, 935.4, 15.5)">9</text><image xlink:href="../../3C6E5D1F-2617-4203-97C6-823663D30DDA/assets/4EFF6BABE050F3D4AC0D02D8B17B22BA.png" width="234.00" height="541.00" transform="matrix(-1.13, 0.00, 0.00, -1.13, 936.0, 768.0)"></image><text xml:space="preserve" font-family="Helvetica-Bold" font-weight="bold" font-size="47.0" fill="#B96EDB" transform="matrix(1.00, 0.00, -0.00, -1.00, 924.0, 488.0)">?</text><path d="M 0.0 0.0 L 63.1 0.0 " fill="none" stroke="#B96EDB" stroke-width="4.00" transform="matrix(-0.95, 0.32, 0.32, 0.95, 918.9, 509.7)"></path><text xml:space="preserve" font-family="Helvetica-Bold" font-weight="bold" font-size="47.0" fill="#B96EDB" transform="matrix(1.00, 0.00, -0.00, -1.00, 374.0, 488.0)">?</text><path d="M 0.0 0.0 L 63.1 0.0 " fill="none" stroke="#F4F243" stroke-width="4.00" transform="matrix(-0.95, 0.32, 0.32, 0.95, 369.0, 509.7)"></path></g></svg>