<?xml version="1.0" encoding="UTF-8" standalone="no"?><svg xmlns="http://www.w3.org/2000/svg" xmlns:xlink="http://www.w3.org/1999/xlink" clip-rule="evenodd" stroke-miterlimit="4.00" viewBox="0 0 1024 768"><desc>SVG generated by Keynote</desc><defs></defs><g transform="matrix(1.00, 0.00, -0.00, -1.00, 0.0, 768.0)"><path d="M 0.0 768.0 L 1024.0 768.0 L 1024.0 0.0 L 0.0 0.0 Z M 0.0 768.0 " fill="#DDDDDD"></path><image xlink:href="../../4B982C6C-3600-4C06-9279-69EE387DC422/assets/BF93313CDDAB62B723AB2244F1EDF133.png" width="352.00" height="541.00" transform="matrix(1.36, 0.00, -0.00, -1.36, 193.0, 778.0)"></image><text xml:space="preserve" font-family="ArialMT" font-size="58.0" fill="#878787" transform="matrix(1.00, 0.00, -0.00, -1.00, 902.2, 16.5)">9</text><text xml:space="preserve" font-family="ArialMT" font-size="58.0" fill="#878787" transform="matrix(1.00, 0.00, -0.00, -1.00, 934.4, 16.5)">2</text><text xml:space="preserve" font-family="Helvetica-Bold" font-weight="bold" font-size="47.0" fill="#B96EDB" transform="matrix(1.00, 0.00, -0.00, -1.00, 556.0, 518.0)">?</text><image xlink:href="../../4B982C6C-3600-4C06-9279-69EE387DC422/assets/2085D642447A071935401C093D7E0421.png" width="314.00" height="512.00" transform="matrix(1.00, 0.00, -0.00, -1.00, 681.0, 791.0)"></image><path d="M 0.0 0.0 L 74.8 0.0 " fill="none" stroke="#F4F243" stroke-width="4.00" transform="matrix(-0.55, -0.83, -0.83, 0.55, 556.2, 519.9)"></path><text xml:space="preserve" font-family="Helvetica-Bold" font-weight="bold" font-size="47.0" fill="#B96EDB" transform="matrix(1.00, 0.00, -0.00, -1.00, 940.0, 520.0)">?</text><path d="M 0.0 0.0 L 91.0 0.0 " fill="none" stroke="#B96EDB" stroke-width="4.00" transform="matrix(-0.71, -0.71, -0.71, 0.71, 938.9, 528.7)"></path><image xlink:href="../../AF97474F-B761-44D0-858C-C8D26B71980C/assets/4A55B5447384878DA944ADB099EDC59D.png" width="222.00" height="318.00" transform="matrix(1.00, 0.00, -0.00, -1.00, -4.0, 769.0)"></image></g></svg>