<?xml version="1.0" encoding="UTF-8" standalone="no"?><svg xmlns="http://www.w3.org/2000/svg" xmlns:xlink="http://www.w3.org/1999/xlink" clip-rule="evenodd" stroke-miterlimit="4.00" viewBox="0 0 1024 768"><desc>SVG generated by Keynote</desc><defs></defs><g transform="matrix(1.00, 0.00, -0.00, -1.00, 0.0, 768.0)"><path d="M 0.0 768.0 L 1024.0 768.0 L 1024.0 0.0 L 0.0 0.0 Z M 0.0 768.0 " fill="#000000"></path><text xml:space="preserve" font-family="ArialMT" font-size="58.0" fill="#878787" transform="matrix(1.00, 0.00, -0.00, -1.00, 903.2, 15.5)">3</text><text xml:space="preserve" font-family="ArialMT" font-size="58.0" fill="#878787" transform="matrix(1.00, 0.00, -0.00, -1.00, 935.4, 15.5)">8</text><g><clipPath id="clip-12"><path d="M 332.0 583.0 L 692.0 583.0 L 692.0 239.0 L 332.0 239.0 Z M 332.4 582.7 "></path></clipPath><g clip-path="url(#clip-12)"><image xlink:href="../../0FB4EE9B-6CDA-4505-AFBA-29A0F2CFC99B/assets/1D661F2568547025AC6EBECB2D6C10CC.png" width="239.00" height="107.00" transform="matrix(3.21, 0.00, -0.00, -3.21, -88.0, 583.0)"></image></g></g><text xml:space="preserve" font-family="TimesNewRomanPSMT" font-size="62.0" fill="#FFFFFF" transform="matrix(1.00, 0.00, -0.00, -1.00, 370.0, 652.0)">R</text><text xml:space="preserve" font-family="TimesNewRomanPSMT" font-size="62.0" fill="#FFFFFF" transform="matrix(1.00, 0.00, -0.00, -1.00, 411.4, 652.0)">é</text><text xml:space="preserve" font-family="TimesNewRomanPSMT" font-size="62.0" fill="#FFFFFF" transform="matrix(1.00, 0.00, -0.00, -1.00, 438.9, 652.0)">g</text><text xml:space="preserve" font-family="TimesNewRomanPSMT" font-size="62.0" fill="#FFFFFF" transform="matrix(1.00, 0.00, -0.00, -1.00, 469.9, 652.0)">i</text><text xml:space="preserve" font-family="TimesNewRomanPSMT" font-size="62.0" fill="#FFFFFF" transform="matrix(1.00, 0.00, -0.00, -1.00, 487.1, 652.0)">o</text><text xml:space="preserve" font-family="TimesNewRomanPSMT" font-size="62.0" fill="#FFFFFF" transform="matrix(1.00, 0.00, -0.00, -1.00, 518.1, 652.0)">n</text><text xml:space="preserve" font-family="TimesNewRomanPSMT" font-size="62.0" fill="#FFFFFF" transform="matrix(1.00, 0.00, -0.00, -1.00, 549.1, 652.0)"> </text><text xml:space="preserve" font-family="TimesNewRomanPSMT" font-size="62.0" fill="#FFFFFF" transform="matrix(1.00, 0.00, -0.00, -1.00, 564.6, 652.0)">…</text><text xml:space="preserve" font-family="TimesNewRomanPSMT" font-size="62.0" fill="#FFFFFF" transform="matrix(1.00, 0.00, -0.00, -1.00, 626.6, 652.0)">?</text></g></svg>