<?xml version="1.0" encoding="UTF-8" standalone="no"?><svg xmlns="http://www.w3.org/2000/svg" xmlns:xlink="http://www.w3.org/1999/xlink" clip-rule="evenodd" stroke-miterlimit="4.00" viewBox="0 0 1024 768"><desc>SVG generated by Keynote</desc><defs></defs><g transform="matrix(1.00, 0.00, -0.00, -1.00, 0.0, 768.0)"><path d="M 0.0 768.0 L 1024.0 768.0 L 1024.0 0.0 L 0.0 0.0 Z M 0.0 768.0 " fill="#000000"></path><text xml:space="preserve" font-family="ArialMT" font-size="58.0" fill="#878787" transform="matrix(1.00, 0.00, -0.00, -1.00, 903.2, 15.5)">2</text><text xml:space="preserve" font-family="ArialMT" font-size="58.0" fill="#878787" transform="matrix(1.00, 0.00, -0.00, -1.00, 935.4, 15.5)">0</text><image xlink:href="5EDF88180399F74C8925BFC4ED8C33DA.png" width="525.00" height="547.00" transform="matrix(1.08, 0.00, -0.00, -1.08, 229.0, 679.0)"></image><path d="M 0.0 0.0 L 252.6 0.0 " fill="none" stroke="#00FCFF" stroke-width="4.00" transform="matrix(-1.00, 0.00, 0.00, 1.00, 737.1, 284.0)"></path><text xml:space="preserve" font-family="Helvetica-Bold" font-weight="bold" font-size="36.0" fill="#53D4B2" transform="matrix(1.00, 0.00, -0.00, -1.00, 745.0, 271.0)">?</text><path d="M 0.0 0.0 L 113.9 0.0 " fill="none" stroke="#00FCFF" stroke-width="4.00" transform="matrix(-0.79, -0.61, -0.61, 0.79, 579.8, 284.3)"></path><path d="M 0.0 0.0 L 161.3 0.0 " fill="none" stroke="#00FCFF" stroke-width="4.00" transform="matrix(-0.95, -0.32, -0.32, 0.95, 574.6, 282.8)"></path><text xml:space="preserve" font-family="Helvetica-Bold" font-weight="bold" font-size="47.0" fill="#B96EDB" transform="matrix(1.00, 0.00, -0.00, -1.00, 42.0, 681.0)">G</text><text xml:space="preserve" font-family="Helvetica-Bold" font-weight="bold" font-size="47.0" fill="#B96EDB" transform="matrix(1.00, 0.00, -0.00, -1.00, 78.5, 681.0)">R</text><text xml:space="preserve" font-family="Helvetica-Bold" font-weight="bold" font-size="47.0" fill="#B96EDB" transform="matrix(1.00, 0.00, -0.00, -1.00, 112.5, 681.0)">O</text><text xml:space="preserve" font-family="Helvetica-Bold" font-weight="bold" font-size="47.0" fill="#B96EDB" transform="matrix(1.00, 0.00, -0.00, -1.00, 149.0, 681.0)">U</text><text xml:space="preserve" font-family="Helvetica-Bold" font-weight="bold" font-size="47.0" fill="#B96EDB" transform="matrix(1.00, 0.00, -0.00, -1.00, 183.0, 681.0)">P</text><text xml:space="preserve" font-family="Helvetica-Bold" font-weight="bold" font-size="47.0" fill="#B96EDB" transform="matrix(1.00, 0.00, -0.00, -1.00, 214.3, 681.0)">E</text><text xml:space="preserve" font-family="Helvetica-Bold" font-weight="bold" font-size="47.0" fill="#B96EDB" transform="matrix(1.00, 0.00, -0.00, -1.00, 245.7, 681.0)">?</text><path d="M 0.0 0.0 L 202.6 0.0 " fill="none" stroke="#01FCFF" stroke-width="4.00" transform="matrix(-1.00, 0.00, 0.00, 1.00, 247.6, 674.4)"></path></g></svg>