<?xml version="1.0" encoding="UTF-8" standalone="no"?><svg xmlns="http://www.w3.org/2000/svg" xmlns:xlink="http://www.w3.org/1999/xlink" clip-rule="evenodd" stroke-miterlimit="4.00" viewBox="0 0 1024 768"><desc>SVG generated by Keynote</desc><defs></defs><g transform="matrix(1.00, 0.00, -0.00, -1.00, 0.0, 768.0)"><path d="M 0.0 768.0 L 1024.0 768.0 L 1024.0 0.0 L 0.0 0.0 Z M 0.0 768.0 " fill="#000000"></path><text xml:space="preserve" font-family="ArialMT" font-size="58.0" fill="#878787" transform="matrix(1.00, 0.00, -0.00, -1.00, 903.2, 15.5)">2</text><text xml:space="preserve" font-family="ArialMT" font-size="58.0" fill="#878787" transform="matrix(1.00, 0.00, -0.00, -1.00, 935.4, 15.5)">8</text><image xlink:href="../../7ED3886B-0F1A-4C5D-982B-2FAFF39C6426/assets/FB8217DD265F39C946D66059FC15C665.png" width="395.00" height="403.00" transform="matrix(1.00, 0.00, -0.00, -1.00, 627.0, 715.0)"></image><image xlink:href="../../7ED3886B-0F1A-4C5D-982B-2FAFF39C6426/assets/E78AB7C38A79409DB87D9AACF6DF9FA6.png" width="566.00" height="385.00" transform="matrix(1.00, 0.00, -0.00, -1.00, 30.0, 707.0)"></image><image xlink:href="../../7ED3886B-0F1A-4C5D-982B-2FAFF39C6426/assets/A1849B553A3775B011A409E9CEDD361A.png" width="497.00" height="342.00" transform="matrix(1.00, 0.00, -0.00, -1.00, 274.0, 344.0)"></image><text xml:space="preserve" font-family="Helvetica-Bold" font-weight="bold" font-size="36.0" fill="#53D4B2" transform="matrix(1.00, 0.00, -0.00, -1.00, 20.0, 712.0)">S</text><text xml:space="preserve" font-family="Helvetica-Bold" font-weight="bold" font-size="36.0" fill="#53D4B2" transform="matrix(1.00, 0.00, -0.00, -1.00, 44.0, 712.0)">E</text><text xml:space="preserve" font-family="Helvetica-Bold" font-weight="bold" font-size="36.0" fill="#53D4B2" transform="matrix(1.00, 0.00, -0.00, -1.00, 68.0, 712.0)">X</text><text xml:space="preserve" font-family="Helvetica-Bold" font-weight="bold" font-size="36.0" fill="#53D4B2" transform="matrix(1.00, 0.00, -0.00, -1.00, 92.0, 712.0)">E</text><text xml:space="preserve" font-family="Helvetica-Bold" font-weight="bold" font-size="36.0" fill="#53D4B2" transform="matrix(1.00, 0.00, -0.00, -1.00, 116.0, 712.0)">?</text></g></svg>